<?xml version="1.0" encoding="UTF-8" standalone="no"?>
<!-- Generator: Adobe Illustrator 25.3.0, SVG Export Plug-In . SVG Version: 6.00 Build 0)  -->

<svg
   version="1.1"
   id="Calque_1"
   x="0px"
   y="0px"
   viewBox="0 0 289.82422 291.50458"
   xml:space="preserve"
   sodipodi:docname="background-sublogo.svg"
   inkscape:version="1.1 (c4e8f9ed74, 2021-05-24)"
   width="289.82422"
   height="291.50458"
   xmlns:inkscape="http://www.inkscape.org/namespaces/inkscape"
   xmlns:sodipodi="http://sodipodi.sourceforge.net/DTD/sodipodi-0.dtd"
   xmlns="http://www.w3.org/2000/svg"
   xmlns:svg="http://www.w3.org/2000/svg"><defs
   id="defs149"><filter
     inkscape:collect="always"
     style="color-interpolation-filters:sRGB"
     id="filter941"
     x="-0.04073707"
     width="1.0815822"
     y="-0.040385234"
     height="1.0808741"><feGaussianBlur
       inkscape:collect="always"
       stdDeviation="1.1456051"
       id="feGaussianBlur943" /></filter></defs><sodipodi:namedview
   id="namedview147"
   pagecolor="#ffffff"
   bordercolor="#111111"
   borderopacity="1"
   inkscape:pageshadow="0"
   inkscape:pageopacity="0"
   inkscape:pagecheckerboard="1"
   showgrid="false"
   inkscape:zoom="0.45622363"
   inkscape:cx="133.70636"
   inkscape:cy="232.3422"
   inkscape:window-width="941"
   inkscape:window-height="1025"
   inkscape:window-x="2885"
   inkscape:window-y="41"
   inkscape:window-maximized="1"
   inkscape:current-layer="Calque_1"
   fit-margin-top="0"
   fit-margin-left="0"
   fit-margin-right="0"
   fit-margin-bottom="0" />
<style
   type="text/css"
   id="style2">
	.st0{fill:#E6358A;}
	.st1{fill:#00B8E8;}
	.st2{fill:#62B131;}
	.st3{fill:#FAB906;}
</style>
<g
   id="g6"
   transform="translate(58.331757,443.85171)">
	<path
   d="m 602.7,259.8 v 0 c -0.1,0 -0.1,0 0,0 z"
   id="path4" />
</g>









<g
   id="g947"
   transform="matrix(3.7795276,0,0,3.7795276,439.59157,1264.4801)"><path
     style="opacity:0.500599;fill:#393f3b;fill-opacity:1;stroke:#000000;stroke-width:0.264583px;stroke-linecap:butt;stroke-linejoin:miter;stroke-opacity:1;filter:url(#filter941)"
     d="m -113.4204,-331.67861 h 70.898591 l -6.89751,67.89606 -60.599201,3.46031 z"
     id="path76-3" /><path
     style="fill:#ffffff;fill-opacity:1;stroke:none;stroke-width:0.264583px;stroke-linecap:butt;stroke-linejoin:miter;stroke-opacity:1"
     d="m -115.00791,-333.79529 h 70.898599 l -6.89751,67.89606 -60.599209,3.46031 z"
     id="path76-36" /></g><g
   id="g12"
   transform="translate(31.933078,11.971281)">
	<path
   class="st0"
   d="m 181.8,175.9 c 0.4,-0.2 0.8,-0.5 1.1,-0.8 2.6,-2.4 3.3,-15.8 2.6,-19.5 -0.2,-6.4 -3.2,-8.9 -3.2,-8.9 -2,-1.2 -2.6,-1.6 -4.6,-2.2 l -1.1,-2.9 v 0 c 0.4,-0.8 0.8,-1.5 1,-2.4 0.3,-0.2 0.6,-0.3 0.8,-0.5 0.3,-0.5 0.5,-1 0.7,-1.6 0.1,0 0.1,0.1 0.2,0.1 0.1,-0.2 0.2,-0.2 0.3,-0.5 0.5,0 0.4,-1.1 1,-1.5 0,-0.2 -0.1,-0.5 -0.2,-0.8 0,-0.1 0,-0.2 0,-0.3 0,0 0,0 0,-0.1 0,-0.2 0,-0.4 0,-0.5 0,0.1 0.1,0.2 0.1,0.2 0.1,-0.5 -0.1,-0.9 -0.2,-1.3 0,0 0,0 0,-0.1 -0.1,-0.2 -0.2,-0.3 -0.3,-0.5 -1.4,-4.6 -8.5,-2.5 -9.3,-4.9 -0.2,0.5 0.2,1.5 -0.2,0.5 0.1,0.7 0.8,1.4 -0.2,0.5 -0.5,-1.3 -0.1,0.1 -0.3,-0.6 0.2,0.7 -0.2,-0.4 0.1,0.4 -0.4,-1.1 0.2,1.4 -0.2,2.3 -0.2,0.2 -0.1,0.4 -0.2,0.7 0,0.2 0.1,0.3 0,0.5 -0.2,0.4 -0.2,0.7 -0.5,1.2 0,0.2 0.1,0.3 0.1,0.5 -0.1,0.1 -0.1,0.2 -0.2,0.3 0,0.2 0,0.3 -0.1,0.4 0,0 0,0.1 0.1,0.1 0,0.2 -0.2,0.4 -0.2,0.7 -0.1,0.3 0.1,0.5 0.1,0.6 -0.2,0.5 -0.5,0.9 -0.5,1.6 0,0.5 0,0.8 0.1,1.2 0,0.5 -0.1,0.7 -0.1,1 0.1,0.5 0.1,1 0.2,1.5 -0.1,0.5 -0.1,0.8 0.1,1.1 0.2,0.2 0.5,0.4 0.9,0.4 -0.1,0.1 0.5,0.2 1.1,0.2 l 0.2,1.3 c -2,-0.2 -3.2,-0.1 -3.2,-0.1 l -0.1,0.1 c 0,0 -2.8,5.9 -11,9.9 -2.9,1.3 -5.9,2.3 -8.9,2.4 0,0 -0.6,-2.2 -1.6,-2 -0.9,0.2 -2,0.8 -2,0.8 l -1.7,1.9 c 0,0 4.1,1.9 5.6,1.2 0,0 4.2,1.1 9.7,0.6 3.3,-0.3 4.6,-0.4 7.2,-2.1 0.1,0.5 0.1,1.2 0.2,1.7 1,10.9 1.4,14.6 1.2,19.9 h -0.1 c 0,0.2 0,0.3 0,0.5 -1.4,3.5 -2.2,7.3 -2.8,11.2 -1.7,12.7 -1.4,5.6 -1.7,14.8 6.2,-0.8 12,-2.9 17.1,-6 0.2,-2.5 0.5,-4.9 0.6,-7.3 2.9,-11.5 3.4,-10 2.3,-14.9 z"
   id="path8" />
	<path
   class="st0"
   d="m 145,188.5 c 0.1,0 -1.6,-4.9 -2.5,-12.1 3.9,0.4 9.2,0.1 13.6,-3.5 0.5,-0.4 1.1,-0.5 1.7,-0.5 l 3.1,0.4 c 1.3,0.2 2.5,-0.7 2.7,-1.9 0.2,-0.7 0.2,-1.5 0,-2.2 l -5.8,-0.2 0.2,-0.8 c 0,0 -2.5,0.7 -2.5,2.7 0,0 -3.6,3.3 -13.7,-1.5 -0.5,-3.3 -1.5,-5.9 -5.7,-7.3 -0.4,-0.2 -0.7,-0.2 -1.1,-0.3 l 0.3,-3.3 c 0.5,-0.1 0.8,-0.3 1.2,-0.7 0.8,-0.8 1.3,-2.1 0.5,-3.9 -0.2,-0.5 0.2,-0.6 0,-1 -0.2,-0.4 -1.2,-1 -1.5,-1.3 -0.5,-0.6 -1.1,-1.2 -1.5,-1.9 0.3,-0.2 0.8,-0.2 1.2,-0.3 -0.2,-0.1 -0.5,-0.2 -0.7,-0.3 0.2,-0.3 0.4,-0.6 0.5,-0.9 0.3,-1.6 -0.6,-1.9 -1.9,-1.9 -0.1,0 -0.2,0.1 -0.2,0.2 v 0.2 c 0,0.2 -0.2,0.2 -0.3,0.1 -0.1,-0.1 -0.2,-0.1 -0.3,0.1 -0.1,0.3 -0.4,0.3 -1,0.5 -0.2,0 -0.4,0 -0.5,0.1 -3.3,0.5 -6.2,3.1 -7,6.3 0.2,-0.2 0.5,-0.5 0.7,-0.6 -1.2,2.3 -0.8,5.2 0.8,7.3 0.2,-0.4 0.3,-0.8 0.5,-1.2 0.1,1.2 0.8,2.3 1.9,2.9 0.4,-0.9 0.8,-1.9 1.2,-2.7 0.1,-0.2 0.2,-0.4 0.2,-0.5 0,-0.1 -0.1,-0.2 -0.1,-0.3 0.5,0.1 1,0 1.4,0 -0.5,2 -1,3.9 -1,3.9 -7.6,12.9 -0.3,21.8 0.8,25.5 0.1,0.5 0.1,0.8 0.2,1.1 0,-0.2 0,-0.5 0.1,-0.4 0.5,2.9 0.8,5.3 1.5,7.7 0.2,0.5 0.2,1.1 0.4,1.6 4.7,3 10,5.2 15.7,6.2 -2.3,-7.6 -2.4,-13.1 -3.1,-15.3 z"
   id="path10" />
</g><g
   id="g18"
   transform="translate(31.933078,11.971281)">
	<g
   id="g16">
		<path
   class="st1"
   d="m 195.1,39.6 c -1.1,-0.4 -2,-0.8 -2.8,-1 -0.4,-0.1 -0.7,0 -0.9,0 -1.2,0.5 -2.2,0.9 -3.1,1.2 -0.5,-0.6 -1.1,-1 -1.1,-1.2 0.3,-2.8 0.2,-5.6 1.1,-8.2 1.2,-3.5 3.2,-6.6 5.1,-10.6 -1.5,1.1 -3,1.6 -3.6,2.7 -2.3,3.9 -6,7.2 -6.3,12.3 -0.1,1.5 -1.3,2.9 -2.4,5.1 -1.6,-3 -2.8,-5.1 -4.1,-7.5 -6.1,-1.1 -12.3,-2.2 -19.5,-3.5 2.3,2.8 5.1,3 7.4,4.1 1.9,1 4.2,1.8 5.4,3.5 2.1,3 3.5,6.4 5.2,9.6 -4.4,6.3 -9.8,8.5 -15.1,5.7 -1,0.9 -1.9,1.7 -2.9,2.7 2.1,0.4 4,0.6 5.8,1.2 8.1,2.6 15.5,1.6 21.7,-4.3 3.6,-3.4 6.7,-7.3 10,-11 0.1,-0.1 0.3,-0.3 0.3,-0.4 0,-0.2 -0.1,-0.3 -0.2,-0.4 z"
   id="path14" />
	</g>
</g><path
   class="st1"
   d="m 162.53308,79.671281 c 1.2,1.9 2.1,3.5 3.2,5.2 -0.5,1.1 -1.1,2.2 -1.7,3.6 -1,0.2 -2,0.6 -3.2,0.7 -1.2,0.1 -2.2,0 -3.4,-0.1 -0.6,1.1 -1,2 -1.6,3.4 3.4,-0.7 6.3,-1.4 9.3,-1.8 7,-0.9 10.8,-5.3 13.5,-12.2 -1.9,0.7 -3.3,1.1 -4.6,1.5 -1.1,-4.9 -0.9,-9.6 3.4,-13.5 -4.2,3.7 -6.8,8 -7.3,14 -1.4,-1.5 -2.4,-2.6 -3.5,-3.7 -3.9,-0.8 -7.8,-1.5 -11.6,-2.2 -0.1,0.2 -0.2,0.4 -0.3,0.7 2.6,1.4 5.2,2.9 7.8,4.4 z"
   id="path20" /><g
   id="g24"
   transform="translate(31.933078,11.971281)">
	<path
   class="st2"
   d="m 7.4,159.2 c -0.6,2 1.2,4 3.1,4.5 2,0.5 4.1,0 6,-0.6 5.3,-1.5 10.6,-3.1 16.1,-4 5.5,-0.9 11.2,-0.7 16.3,1.2 4.1,1.5 8,4.1 12.4,4 0.2,-1.2 0.3,-2.3 0.7,-3.3 0,-0.1 0.1,-0.2 0.1,-0.2 -0.4,0 -0.8,0 -1.3,-0.1 -1,-0.2 -1.8,-1 -2.5,-1.8 -0.7,-0.8 -1.2,-1.8 -1.8,-2.6 2.7,-0.2 5.5,0.6 7.7,2.1 v 0 c 0.2,-0.1 0.4,-0.2 0.7,-0.2 -0.4,-0.3 -0.7,-0.7 -0.9,-1.1 -0.5,-0.9 -0.6,-2.1 -1.3,-2.8 2.2,0.6 4.1,2 5.4,3.9 0.2,0.1 0.6,0.1 0.8,0.2 1,0.2 1.9,0.4 2.8,0.8 0.8,0.5 1.6,1.2 1.7,2.2 0.1,0.7 -0.2,1.4 -0.5,2 -0.3,0.6 -0.7,1.1 -1.2,1.6 -0.2,0.2 -0.3,0.4 -0.5,0.6 -0.4,0.4 -0.7,0.8 -1.2,1.2 2.6,1.9 2.4,2.3 5.4,3.2 0.2,0.1 0.6,0.2 0.8,0.2 0.4,0.1 1,0.2 1.1,0.8 0.1,0.3 -0.2,0.7 -0.4,0.9 -0.6,0.3 -1.2,0.2 -1.8,0 -0.2,0 -0.3,-0.1 -0.4,-0.1 -0.7,-0.2 -1.2,-0.3 -1.9,-0.5 -0.7,-0.2 -1.7,-0.5 -1.9,-0.6 -1.2,-0.5 -2.2,-1.1 -3.4,-1.5 -0.2,0.2 -0.4,0.4 -0.7,0.6 3,2.3 6.5,4.1 10.1,5.1 0.2,0.1 0.3,0.1 0.5,0.2 0.5,0.2 1.1,0.3 1.2,0.9 0.1,0.4 -0.2,0.8 -0.5,1 -0.7,0.4 -1.4,0.2 -2.1,0.1 -0.2,0 -0.2,-0.1 -0.4,-0.1 -0.7,-0.2 -1.5,-0.4 -2.2,-0.6 -1.9,-0.5 -3.8,-1.1 -5.6,-1.9 -1.7,-0.7 -3.3,-1.6 -5,-2.1 -2.7,1.2 -5.8,1.6 -8.8,1.4 -0.4,0 -0.7,-0.1 -1.2,-0.1 0.4,0.6 0.9,1.2 1.3,1.8 0.2,0.3 0.4,0.6 0.6,0.9 0.2,0.3 0.3,0.7 0.4,1.2 0.1,0.7 -0.5,1.7 -1.2,1.7 -0.4,-0.7 -0.9,-1.4 -1.4,-2.1 -1,-1.4 -2.2,-2.7 -3.3,-4 -0.3,0.2 -0.7,0.4 -1.1,0.7 -2.2,1.1 -4.6,1.7 -7.1,1.6 1.7,1.6 3.1,3.7 4,6 0.1,0.2 0.1,0.3 0.2,0.5 0.2,0.5 0.2,1.1 0.2,1.6 -0.2,0.7 -0.7,1.3 -1.5,1.2 -0.2,-0.8 -0.4,-1.7 -0.7,-2.4 -0.3,-0.7 -0.7,-1.5 -1.1,-2.2 -1.1,-2 -2.6,-3.8 -4.5,-5.1 -0.4,-0.3 -1,-0.7 -0.9,-1.3 0.1,-0.6 0.8,-0.7 1.4,-0.7 0.6,0 1.2,0.1 1.7,-0.2 -0.7,-1.2 -0.9,-3 -0.8,-4.4 0.2,-1.3 0.7,-2.6 1.5,-3.6 0.2,-0.4 0.2,-0.7 0.4,-1.1 -2.7,-0.1 -5.1,0.7 -7.3,2.2 -2.2,1.5 -4.1,3.2 -6.3,4.7 -3.1,2 -6.6,3.4 -10.3,3.4 -3.7,0 -7.4,-1.6 -9.6,-4.5 -0.3,-0.4 -0.6,-0.8 -0.8,-1.3 -1.2,-3 -0.9,-6.5 0.8,-9.1 z"
   id="path22" />
</g><g
   id="g28"
   transform="translate(31.933078,11.971281)">
	<path
   class="st3"
   d="m 50.8,92.4 0.4,-4.8 c 0,-0.1 0.4,-36.6 0.2,-40.6 0.7,-0.2 1.4,-0.5 1.9,-1.1 v 0 c 1,-0.9 1.6,-2.1 1.6,-3.5 0,-0.2 0,-0.4 -0.1,-0.5 0,0 0.1,0 0.1,0.1 1.1,0.6 2.2,1.4 3.2,2.6 l 0.8,1 c 0.8,1 1.7,1.9 2.5,2.9 2.5,3 4.8,5.7 7.1,8.3 2.4,2.6 4.7,5.3 7.1,8 0.4,0.4 0.8,0.9 1.2,1.5 0.3,0.4 0.4,0.7 0.6,1.1 0.2,0.3 0.2,0.6 0.2,0.7 V 68 l 0.1,1.4 -1.4,-0.3 C 75.6,68.9 75.2,68.6 75,68.3 L 74.9,68.2 C 73.9,67.2 73,66.3 72.1,65.4 71.5,64.8 70.9,64.2 70.2,63.5 69.7,63 69.1,62.4 68.6,61.8 L 67,60.4 C 65.2,58.6 63.5,56.8 61.6,55 60.7,54.1 59.7,53.2 58.9,52.4 58.5,52 58.1,51.6 57.7,51.3 L 56.9,50.6 C 56.4,50.1 55.8,49.5 55.3,49 54.6,48.4 54,47.7 53.4,47 c 0.2,4 1,24.3 -0.2,40.6 l -0.3,5 z M 32.3,88.9 c 0.4,-2 0.9,-3.9 0.9,-3.9 0.1,-0.4 0.2,-0.8 0.3,-1.1 2.5,-12.6 11.9,-37.6 12.4,-39.2 0.4,0.6 0.9,1.2 1.5,1.7 -1.9,4.9 -9.8,26.8 -12.1,37.9 l -1.1,5.4 z M 45.4,42.4 c 0,0.6 0.1,1.1 0.4,1.7 -1.2,0.8 -2.5,1.3 -3.7,1.6 -1,0.2 -1.9,0.4 -2.9,0.6 -1,0.2 -1.9,0.4 -2.8,0.6 -1,0.2 -1.9,0.4 -3,0.6 -1.7,0.4 -3.4,0.7 -5.1,1.1 -2.2,0.4 -4.4,1 -6.6,1.5 -1.5,0.4 -3,0.7 -4.6,1.1 -1.1,0.3 -2.1,0.4 -3.2,0.6 -0.4,0.1 -0.8,0.1 -1.1,0.1 h -0.2 c -0.3,0 -0.5,-0.1 -0.6,-0.2 H 11.9 L 10,51 l 1.5,-1.2 0.1,-0.1 c 0.1,-0.1 0.3,-0.3 0.6,-0.4 0.4,-0.2 1,-0.4 1.5,-0.4 1.3,-0.4 2.6,-0.7 3.9,-1.1 2.2,-0.6 4.4,-1.2 6.6,-1.9 4.8,-1.4 8.6,-2.6 12,-3.7 2,-0.7 4.3,-1.4 6.6,-2 0.5,-0.1 1,-0.3 1.5,-0.4 0.8,-0.2 1.7,-0.4 2.6,-0.5 -1.1,0.6 -1.5,1.7 -1.5,3.1 z m 4.7,3.1 c -1.7,0 -3.1,-1.4 -3.1,-3.1 0,-1.7 1.4,-3.1 3.1,-3.1 1.7,0 3.1,1.4 3.1,3.1 0,1.7 -1.4,3.1 -3.1,3.1 z M 62.1,3.6 62,4.1 c -0.2,0.7 -0.4,1.4 -0.5,2.1 -0.6,2.1 -1.1,4.2 -1.8,6.3 -0.8,3 -1.7,6 -2.5,9 -0.4,1.6 -0.9,3.2 -1.2,4.8 -0.3,1.1 -0.6,2.3 -0.9,3.4 -0.8,3.1 -1.6,5.5 -2.4,7.6 -0.1,0.2 -0.2,0.4 -0.3,0.7 -0.7,-0.4 -1.5,-0.6 -2.4,-0.6 -0.5,0 -1.1,0.1 -1.5,0.3 0.3,-0.5 0.3,-1.2 0.4,-1.9 v -0.3 c 0,-0.4 0,-0.7 0,-1.1 v -0.2 c 0,-1 0.1,-1.9 0.4,-3 0.6,-2 1.3,-4.1 2.1,-6.1 2.2,-5.9 4.2,-11.8 5.7,-16.3 0.5,-1.7 1.1,-3.4 1.6,-4.6 0.2,-0.5 0.4,-1 0.6,-1.5 L 59.4,2.6 C 59.5,2.3 59.8,1.7 60.5,1.5 L 61.1,1.3 61.8,2 c 0.5,0.7 0.4,1.3 0.3,1.6 z"
   id="path26" />
</g><g
   id="g66"
   transform="translate(31.933078,11.971281)">
	<g
   id="g64">
		<path
   class="st0"
   d="m 132.1,221 c -1.8,0 -3.2,-0.9 -3.2,-2.6 h 1.9 c 0,0.7 0.5,1.2 1.3,1.2 0.8,0 1.3,-0.4 1.3,-1.1 0,-1.9 -4.5,-0.7 -4.5,-3.9 0,-1.6 1.3,-2.5 3.1,-2.5 1.8,0 3,0.9 3.1,2.5 h -1.9 c 0,-0.6 -0.5,-1 -1.2,-1 -0.7,0 -1.2,0.3 -1.2,1 0,1.7 4.5,0.8 4.5,3.8 -0.1,1.4 -1.2,2.6 -3.2,2.6 z"
   id="path30" />
		<path
   class="st0"
   d="m 140.8,221 c -2.5,0 -4.5,-1.8 -4.5,-4.5 0,-2.6 2,-4.5 4.5,-4.5 2.5,0 4.5,1.9 4.5,4.5 -0.1,2.7 -2.1,4.5 -4.5,4.5 z m 0,-1.5 c 1.6,0 2.7,-1.1 2.7,-2.9 0,-1.8 -1.1,-2.9 -2.7,-2.9 -1.6,0 -2.7,1.1 -2.7,2.9 0,1.7 1.1,2.9 2.7,2.9 z"
   id="path32" />
		<path
   class="st0"
   d="m 150.5,212.1 c 1.9,0 3.5,1 4.1,2.8 h -2 c -0.4,-0.8 -1.2,-1.2 -2.1,-1.2 -1.5,0 -2.6,1.1 -2.6,2.9 0,1.8 1.1,2.9 2.6,2.9 0.9,0 1.7,-0.4 2.1,-1.3 h 2 c -0.6,1.8 -2.2,2.8 -4.1,2.8 -2.5,0 -4.4,-1.8 -4.4,-4.4 0,-2.6 1.9,-4.5 4.4,-4.5 z"
   id="path34" />
		<path
   class="st0"
   d="m 156.1,212.2 h 1.7 v 8.7 h -1.7 z"
   id="path36" />
		<path
   class="st0"
   d="m 164.9,219.3 h -3.5 l -0.6,1.7 H 159 l 3.1,-8.7 h 2 l 3.1,8.7 h -1.8 z m -1.7,-5 -1.3,3.6 h 2.5 z"
   id="path38" />
		<path
   class="st0"
   d="m 170.3,212.2 v 7.3 h 2.9 v 1.4 h -4.6 v -8.7 z"
   id="path40" />
		<path
   class="st0"
   d="m 181.4,214.3 c 0,-0.6 -0.3,-0.8 -0.8,-0.8 -0.5,0 -0.8,0.3 -0.8,0.7 0,0.4 0.3,0.8 0.8,1.4 l 2.2,2.2 c 0,0 0,-0.1 0.1,-0.1 l 0.7,-1.2 h 1.8 l -0.9,1.5 c -0.2,0.3 -0.4,0.6 -0.5,0.9 l 2.1,2.1 H 184 l -1,-1 c -0.8,0.7 -1.8,1.1 -3,1.1 -1.9,0 -3.2,-1 -3.2,-2.7 0,-1.1 0.6,-2.1 1.9,-2.7 -0.5,-0.6 -0.6,-1 -0.6,-1.6 0,-1.2 1,-2.1 2.6,-2.1 1.6,0 2.5,1 2.4,2.2 h -1.7 z m 0.5,4.6 -2.1,-2.1 c -0.8,0.4 -1.2,0.9 -1.2,1.5 0,0.7 0.6,1.3 1.5,1.3 0.7,0.1 1.3,-0.2 1.8,-0.7 z"
   id="path42" />
		<path
   class="st0"
   d="m 126.1,236 c -1.8,0 -3.2,-0.9 -3.2,-2.6 h 1.9 c 0,0.7 0.5,1.2 1.3,1.2 0.8,0 1.3,-0.4 1.3,-1.1 0,-1.9 -4.5,-0.7 -4.5,-3.9 0,-1.6 1.3,-2.5 3.1,-2.5 1.8,0 3,0.9 3.1,2.5 h -1.9 c 0,-0.6 -0.5,-1 -1.2,-1 -0.7,0 -1.2,0.3 -1.2,1 0,1.7 4.5,0.8 4.5,3.8 -0.1,1.4 -1.2,2.6 -3.2,2.6 z"
   id="path44" />
		<path
   class="st0"
   d="m 134.8,236 c -2.5,0 -4.5,-1.8 -4.5,-4.5 0,-2.6 2,-4.5 4.5,-4.5 2.5,0 4.5,1.8 4.5,4.5 -0.1,2.7 -2.1,4.5 -4.5,4.5 z m 0,-1.5 c 1.6,0 2.7,-1.1 2.7,-2.9 0,-1.8 -1.1,-2.9 -2.7,-2.9 -1.6,0 -2.7,1.1 -2.7,2.9 0,1.7 1.1,2.9 2.7,2.9 z"
   id="path46" />
		<path
   class="st0"
   d="m 142.3,227.2 v 7.3 h 2.9 v 1.4 h -4.6 v -8.7 z"
   id="path48" />
		<path
   class="st0"
   d="m 146.3,227.2 h 1.7 v 8.7 h -1.7 z"
   id="path50" />
		<path
   class="st0"
   d="m 157.4,231.6 c 0,2.6 -1.8,4.3 -4.6,4.3 h -3 v -8.7 h 3 c 2.8,0 4.6,1.8 4.6,4.4 z m -4.7,2.9 c 1.8,0 2.9,-1 2.9,-2.9 0,-1.8 -1,-2.9 -2.9,-2.9 h -1.2 v 5.8 z"
   id="path52" />
		<path
   class="st0"
   d="m 164,234.3 h -3.5 L 160,236 h -1.8 l 3.1,-8.7 h 2 l 3.1,8.7 h -1.8 z m -1.7,-5.1 -1.3,3.6 h 2.5 z"
   id="path54" />
		<path
   class="st0"
   d="m 170.9,227.2 c 2.1,0 3.1,1.2 3.1,2.7 0,1.1 -0.6,2.1 -2,2.5 l 2.1,3.5 h -2 l -1.9,-3.4 h -0.8 v 3.4 h -1.7 v -8.7 z m -0.1,1.5 h -1.5 v 2.6 h 1.5 c 1,0 1.4,-0.5 1.4,-1.3 0.1,-0.8 -0.4,-1.3 -1.4,-1.3 z"
   id="path56" />
		<path
   class="st0"
   d="m 175.6,227.2 h 1.7 v 8.7 h -1.7 z"
   id="path58" />
		<path
   class="st0"
   d="m 178.7,227.2 h 6.4 v 1.4 h -2.3 v 7.3 H 181 v -7.3 h -2.3 z"
   id="path60" />
		<path
   class="st0"
   d="m 191.4,228.6 h -3.3 v 2.2 h 2.9 v 1.4 h -2.9 v 2.3 h 3.3 v 1.4 h -5.1 v -8.7 h 5.1 z m -1.2,-4.6 v 1.4 l -2.9,1.3 v -1.3 z"
   id="path62" />
	</g>
</g><g
   id="g84"
   transform="translate(31.933078,11.971281)">
	<g
   id="g82">
		<path
   class="st1"
   d="m 133.3,107.6 h -3.5 l -0.6,1.7 h -1.8 l 3.1,-8.7 h 2 l 3.1,8.7 h -1.8 z m -1.7,-5 -1.3,3.6 h 2.5 z"
   id="path68" />
		<path
   class="st1"
   d="m 136.9,100.5 h 1.7 v 8.7 h -1.7 z"
   id="path70" />
		<path
   class="st1"
   d="m 143.7,100.5 c 2.1,0 3.1,1.2 3.1,2.7 0,1.1 -0.6,2.1 -2,2.5 l 2.1,3.5 h -2 l -1.9,-3.4 h -0.8 v 3.4 h -1.7 v -8.7 z m -0.1,1.5 h -1.5 v 2.6 h 1.5 c 1,0 1.4,-0.5 1.4,-1.3 0,-0.8 -0.4,-1.3 -1.4,-1.3 z"
   id="path72" />
		<path
   class="st1"
   d="m 155.5,102.6 c 0,-0.6 -0.3,-0.8 -0.8,-0.8 -0.5,0 -0.8,0.3 -0.8,0.7 0,0.4 0.3,0.8 0.8,1.4 l 2.2,2.2 c 0,0 0,-0.1 0.1,-0.1 l 0.7,-1.2 h 1.8 l -0.9,1.5 c -0.2,0.3 -0.3,0.6 -0.5,0.9 l 2.1,2.1 h -2.1 l -0.9,-0.9 c -0.8,0.7 -1.8,1.1 -3,1.1 -1.9,0 -3.2,-1 -3.2,-2.7 0,-1.1 0.6,-2.1 1.9,-2.7 -0.5,-0.6 -0.6,-1 -0.6,-1.6 0,-1.2 1,-2.1 2.6,-2.1 1.6,0 2.5,1 2.4,2.2 z m 0.5,4.6 -2.1,-2.1 c -0.8,0.4 -1.2,0.9 -1.2,1.5 0,0.7 0.6,1.3 1.5,1.3 0.7,0.1 1.3,-0.2 1.8,-0.7 z"
   id="path74" />
		<path
   class="st1"
   d="m 169.1,102 h -3.3 v 2.2 h 2.9 v 1.4 h -2.9 v 2.3 h 3.3 v 1.4 H 164 v -8.7 h 5.1 z"
   id="path76" />
		<path
   class="st1"
   d="m 176.1,107.6 h -3.5 l -0.6,1.7 h -1.8 l 3.1,-8.7 h 2 l 3.1,8.7 h -1.8 z m -1.8,-5 -1.3,3.6 h 2.5 z"
   id="path78" />
		<path
   class="st1"
   d="m 179.6,100.5 h 1.7 v 5.4 c 0,1.2 0.6,1.8 1.8,1.8 1.1,0 1.8,-0.6 1.8,-1.8 v -5.4 h 1.8 v 5.4 c 0,2.3 -1.6,3.4 -3.6,3.4 -1.9,0 -3.5,-1.1 -3.5,-3.4 z"
   id="path80" />
	</g>
</g><g
   id="g126"
   transform="translate(31.933078,11.971281)">
	<g
   id="g124">
		<path
   class="st2"
   d="M 5.6,221 H 1.8 v -8.7 h 3.6 c 1.8,0 2.8,0.9 2.8,2.2 0,1.1 -0.6,1.7 -1.5,2 1,0.2 1.7,1.1 1.7,2.1 0.1,1.4 -1,2.4 -2.8,2.4 z M 5.2,213.7 H 3.6 v 2.2 h 1.6 c 0.8,0 1.3,-0.4 1.3,-1.1 0,-0.7 -0.5,-1.1 -1.3,-1.1 z m 0.1,3.5 H 3.6 v 2.3 h 1.8 c 0.8,0 1.3,-0.4 1.3,-1.1 0,-0.8 -0.5,-1.2 -1.4,-1.2 z"
   id="path86" />
		<path
   class="st2"
   d="m 9.9,212.2 h 1.7 v 8.7 H 9.9 Z"
   id="path88" />
		<path
   class="st2"
   d="m 17.4,221 c -2.5,0 -4.5,-1.8 -4.5,-4.5 0,-2.6 2,-4.5 4.5,-4.5 2.5,0 4.5,1.9 4.5,4.5 -0.1,2.7 -2,4.5 -4.5,4.5 z m 0,-1.5 c 1.6,0 2.7,-1.1 2.7,-2.9 0,-1.8 -1.1,-2.9 -2.7,-2.9 -1.6,0 -2.7,1.1 -2.7,2.9 0,1.7 1.1,2.9 2.7,2.9 z"
   id="path90" />
		<path
   class="st2"
   d="m 30.8,216.6 c 0,2.6 -1.8,4.3 -4.6,4.3 h -3 v -8.7 h 3 c 2.8,0 4.6,1.8 4.6,4.4 z m -4.7,2.9 c 1.8,0 2.9,-1.1 2.9,-2.9 0,-1.8 -1,-2.9 -2.9,-2.9 h -1.2 v 5.8 z"
   id="path92" />
		<path
   class="st2"
   d="m 32.1,212.2 h 1.7 v 8.7 h -1.7 z"
   id="path94" />
		<path
   class="st2"
   d="m 41.6,212.2 h 1.9 l -3.2,8.7 H 38.2 L 35,212.2 h 1.9 l 2.4,6.9 z"
   id="path96" />
		<path
   class="st2"
   d="m 49.5,213.7 h -3.3 v 2.2 h 2.9 v 1.4 h -2.9 v 2.3 h 3.3 v 1.4 h -5.1 v -8.7 h 5.1 z"
   id="path98" />
		<path
   class="st2"
   d="m 54.4,212.2 c 2.1,0 3.1,1.2 3.1,2.7 0,1.1 -0.6,2.1 -2,2.5 l 2.1,3.5 h -2 l -1.9,-3.4 h -0.8 v 3.4 h -1.7 v -8.7 z m -0.1,1.5 h -1.5 v 2.6 h 1.5 c 1,0 1.4,-0.5 1.4,-1.3 0,-0.8 -0.4,-1.3 -1.4,-1.3 z"
   id="path100" />
		<path
   class="st2"
   d="m 62.1,221 c -1.8,0 -3.2,-0.9 -3.2,-2.6 h 1.9 c 0,0.7 0.5,1.2 1.3,1.2 0.8,0 1.3,-0.4 1.3,-1.1 0,-1.9 -4.5,-0.7 -4.5,-3.9 0,-1.6 1.3,-2.5 3.1,-2.5 1.8,0 3,0.9 3.1,2.5 h -1.9 c 0,-0.6 -0.5,-1 -1.2,-1 -0.7,0 -1.2,0.3 -1.2,1 0,1.7 4.5,0.8 4.5,3.8 -0.1,1.4 -1.2,2.6 -3.2,2.6 z"
   id="path102" />
		<path
   class="st2"
   d="m 66.7,212.2 h 1.7 v 8.7 h -1.7 z"
   id="path104" />
		<path
   class="st2"
   d="m 69.7,212.2 h 6.4 v 1.4 h -2.3 v 7.3 h -1.7 v -7.3 h -2.3 v -1.4 z"
   id="path106" />
		<path
   class="st2"
   d="m 82.5,213.7 h -3.3 v 2.2 h 2.9 v 1.4 h -2.9 v 2.3 h 3.3 v 1.4 h -5.1 v -8.7 h 5.1 z M 81.2,209 v 1.4 l -2.9,1.3 v -1.2 z"
   id="path108" />
		<path
   class="st2"
   d="m 16.4,229.3 c 0,-0.6 -0.3,-0.9 -0.8,-0.9 -0.5,0 -0.8,0.3 -0.8,0.7 0,0.4 0.3,0.8 0.8,1.4 l 2.2,2.2 c 0,0 0,-0.1 0.1,-0.1 l 0.7,-1.2 h 1.8 l -0.9,1.5 c -0.2,0.3 -0.3,0.6 -0.5,0.9 l 2.1,2.1 H 19 L 18,235 c -0.8,0.7 -1.8,1.1 -3,1.1 -1.9,0 -3.2,-1 -3.2,-2.7 0,-1.1 0.6,-2.1 1.9,-2.7 -0.5,-0.6 -0.6,-1 -0.6,-1.6 0,-1.2 1,-2.1 2.6,-2.1 1.6,0 2.5,1 2.4,2.2 h -1.7 z m 0.5,4.6 -2.1,-2.1 c -0.8,0.4 -1.2,0.9 -1.2,1.5 0,0.7 0.6,1.3 1.5,1.3 0.7,0.1 1.3,-0.2 1.8,-0.7 z"
   id="path110" />
		<path
   class="st2"
   d="m 32.4,227.2 v 8.7 h -1.7 l -4,-6 v 6 H 25 v -8.7 h 1.7 l 4,6 v -6 z"
   id="path112" />
		<path
   class="st2"
   d="M 39.5,234.3 H 36 l -0.6,1.7 h -1.8 l 3.1,-8.7 h 2 l 3.1,8.7 H 40 Z m -1.8,-5.1 -1.3,3.6 H 39 Z"
   id="path114" />
		<path
   class="st2"
   d="M 42.6,227.2 H 49 v 1.4 h -2.3 v 7.3 H 45 v -7.3 h -2.3 v -1.4 z"
   id="path116" />
		<path
   class="st2"
   d="M 50.3,227.2 H 52 v 5.4 c 0,1.2 0.6,1.8 1.8,1.8 1.1,0 1.8,-0.6 1.8,-1.8 v -5.4 h 1.8 v 5.4 c 0,2.3 -1.6,3.4 -3.6,3.4 -1.9,0 -3.5,-1.1 -3.5,-3.4 z"
   id="path118" />
		<path
   class="st2"
   d="m 62.3,227.2 c 2.1,0 3.1,1.2 3.1,2.7 0,1.1 -0.6,2.1 -2,2.5 l 2.1,3.5 h -2 l -1.9,-3.4 h -0.8 v 3.4 H 59 v -8.7 z m -0.1,1.5 h -1.5 v 2.6 h 1.5 c 1,0 1.4,-0.5 1.4,-1.3 0,-0.8 -0.4,-1.3 -1.4,-1.3 z"
   id="path120" />
		<path
   class="st2"
   d="m 72.1,228.6 h -3.3 v 2.2 h 2.9 v 1.4 h -2.9 v 2.3 h 3.3 v 1.4 H 67 v -8.7 h 5.1 z"
   id="path122" />
	</g>
</g><g
   id="g144"
   transform="translate(31.933078,11.971281)">
	<g
   id="g142">
		<path
   class="st3"
   d="m 24.4,102 h -3.3 v 2.2 H 24 v 1.4 h -2.9 v 2.3 h 3.3 v 1.4 h -5.1 v -8.7 h 5.1 z m -1.3,-4.7 v 1.4 l -2.9,1.3 v -1.2 z"
   id="path128" />
		<path
   class="st3"
   d="m 33.4,100.5 v 8.7 h -1.7 l -4,-6 v 6 H 26 v -8.7 h 1.7 l 4,6 v -6 z"
   id="path130" />
		<path
   class="st3"
   d="m 40.2,102 h -3.3 v 2.2 h 2.9 v 1.4 h -2.9 v 2.3 h 3.3 v 1.4 h -5.1 v -8.7 h 5.1 z"
   id="path132" />
		<path
   class="st3"
   d="m 45.1,100.5 c 2.1,0 3.1,1.2 3.1,2.7 0,1.1 -0.6,2.1 -2,2.5 l 2.1,3.5 h -2 l -1.9,-3.4 h -0.8 v 3.4 h -1.7 v -8.7 z M 45,102 h -1.5 v 2.6 H 45 c 1,0 1.4,-0.5 1.4,-1.3 0,-0.8 -0.4,-1.3 -1.4,-1.3 z"
   id="path134" />
		<path
   class="st3"
   d="m 57.9,103.2 h -2 c -0.4,-0.7 -1.1,-1.1 -2,-1.1 -1.6,0 -2.6,1.1 -2.6,2.8 0,1.8 1.1,2.9 2.7,2.9 1.3,0 2.2,-0.8 2.5,-2 h -3 v -1.3 h 4.7 v 1.5 c -0.3,1.8 -1.9,3.4 -4.3,3.4 -2.5,0 -4.5,-1.8 -4.5,-4.4 0,-2.6 1.9,-4.5 4.4,-4.5 2,-0.1 3.5,0.9 4.1,2.7 z"
   id="path136" />
		<path
   class="st3"
   d="m 59.4,100.5 h 1.7 v 8.7 h -1.7 z"
   id="path138" />
		<path
   class="st3"
   d="m 67.9,102 h -3.3 v 2.2 h 2.9 v 1.4 h -2.9 v 2.3 h 3.3 v 1.4 h -5.1 v -8.7 h 5.1 z"
   id="path140" />
	</g>
</g></svg>
