<?xml version="1.0" encoding="utf-8"?>
<!-- Generator: Adobe Illustrator 25.3.0, SVG Export Plug-In . SVG Version: 6.00 Build 0)  -->
<svg version="1.1" id="Calque_1" xmlns="http://www.w3.org/2000/svg" xmlns:xlink="http://www.w3.org/1999/xlink" x="0px" y="0px"
	 viewBox="0 0 33 33" style="enable-background:new 0 0 33 33;" xml:space="preserve">
<style type="text/css">
	.st0{fill:#FBBA00;}
</style>
<g>
	<path class="st0" d="M22.1,15.1c-0.3,0-0.4,0.1-0.3,0.4c0.2,0.8,0.1,1.7-0.1,2.6c-0.8,2.7-3.6,4.3-6.4,3.8
		c-2.7-0.5-4.6-3.2-4.3-5.9c0.1-0.8,0.1-0.8-0.7-0.8c-0.6,0-0.7,0.1-0.7,0.7c0,2.2,0,4.3,0,6.5c0,0.8,0.2,1.1,1,1.1
		c1.9,0,3.9,0,5.8,0c1.9,0,3.9,0,5.8,0c0.8,0,1-0.2,1.1-1.1c0-2,0-4,0-6C23.3,15,23.3,15,22.1,15.1z"/>
	<path class="st0" d="M16.4,19.9c1.9,0,3.5-1.5,3.5-3.4c0-1.8-1.6-3.5-3.4-3.5c-1.9,0-3.4,1.5-3.5,3.4C13,18.3,14.5,19.9,16.4,19.9z
		"/>
	<path class="st0" d="M16.5,0C7.4,0,0,7.4,0,16.5c0,9.1,7.4,16.5,16.5,16.5c9.1,0,16.5-7.4,16.5-16.5C32.9,7.4,25.6,0,16.5,0z
		 M25.4,23c0,1.5-0.8,2.4-2.4,2.4c-4.4,0-8.8,0-13.2,0c-1.5,0-2.3-0.8-2.3-2.3c0-2.2,0-4.4,0-6.6c0-2.2,0-4.3,0-6.5
		c0-1.6,0.8-2.4,2.4-2.4c4.4,0,8.7,0,13.1,0c1.5,0,2.4,0.8,2.4,2.3C25.4,14.3,25.4,18.6,25.4,23z"/>
	<path class="st0" d="M21.6,9.6c-1.7,0-1.7,0-1.7,1.7c0,1.7,0,1.7,1.7,1.7c1.7,0,1.7,0,1.7-1.7C23.3,9.6,23.3,9.6,21.6,9.6z"/>
</g>
</svg>
