<?xml version="1.0" encoding="utf-8"?>
<!-- Generator: Adobe Illustrator 25.1.0, SVG Export Plug-In . SVG Version: 6.00 Build 0)  -->
<svg version="1.1" id="Calque_1" xmlns="http://www.w3.org/2000/svg" xmlns:xlink="http://www.w3.org/1999/xlink" x="0px" y="0px"
	 viewBox="0 0 150.5 153.8" style="enable-background:new 0 0 150.5 153.8;" xml:space="preserve">
<style type="text/css">
	.st0{fill:#E8348B;}
	.st1{fill:#FFFFFF;}
</style>
<g>
	<path d="M141,79.5c0,0-0.1,0-0.1,0C140.9,79.5,140.9,79.5,141,79.5C141,79.5,141,79.5,141,79.5L141,79.5z"/>
</g>
<g>
	<path class="st0" d="M42.5,113c-0.1-0.1-0.1,0.2-0.1,0.5c0.1,1,0,0.5,0,0c0-0.3-0.1-0.8-0.2-1.4c-1.5-4.6-11-16.3-1.1-33
		c0,0,0.7-2.5,1.3-5.1c-0.5,0.1-1.1,0.1-1.8,0c0.1,0.1,0.1,0.2,0.1,0.4c0,0.2-0.1,0.5-0.2,0.7c-0.5,1.2-1.1,2.4-1.6,3.5
		c-1.4-0.7-2.3-2.1-2.4-3.7c-0.2,0.5-0.4,1.1-0.6,1.6c-2.1-2.6-2.5-6.4-1-9.4c-0.3,0.3-0.6,0.6-0.9,0.8c1.2-4.1,4.9-7.5,9.1-8.2
		c0.2,0,0.5,0,0.7-0.1c0.8-0.2,1.2-0.2,1.3-0.6c0-0.2,0.3-0.2,0.4-0.1c0.1,0.1,0.3,0.1,0.4-0.1l0-0.3c0-0.1,0.1-0.2,0.2-0.2
		c1.6,0.1,2.9,0.4,2.4,2.5c-0.1,0.4-0.3,0.8-0.6,1.2c0.3,0.1,0.6,0.3,0.9,0.4c-0.5,0.1-1.1,0.1-1.5,0.4c0.6,0.9,1.2,1.7,1.9,2.5
		c0.4,0.5,1.6,1.2,2,1.7c0.3,0.5-0.2,0.7,0,1.3c1,2.4,0.3,4.1-0.7,5.1c-0.5,0.5-1,0.7-1.6,0.9l-0.4,4.3c0.4,0.1,0.9,0.3,1.4,0.4
		c5.5,1.8,6.8,5.2,7.4,9.5c13,6.3,17.8,1.9,17.8,1.9c0-2.6,3.3-3.5,3.3-3.5l-0.2,1l7.5,0.3c0.2,0.9,0.2,1.9,0,2.9
		c-0.3,1.7-1.9,2.8-3.5,2.5l-4-0.5c-0.8-0.1-1.6,0.1-2.2,0.6c-5.7,4.6-12.6,5-17.6,4.5c1.2,9.3,3.3,15.6,3.3,15.7
		c0.8,2.9,1.1,10,3.7,19.2c3.4,0.6,7,1,10.6,1c2.5,0,5-0.2,7.4-0.5c0.4-12,0-2.8,2.2-19.2c0.7-5.1,1.8-9.9,3.6-14.5
		c0-0.2,0-0.4,0-0.6c0,0,0.1,0,0.1,0c0.3-6.9-0.1-11.7-1.5-25.8c-0.1-0.7-0.1-1.5-0.2-2.2c-3.4,2.2-5,2.3-9.3,2.7
		c-7.1,0.6-12.6-0.8-12.6-0.8c-2,1.1-7.3-1.5-7.3-1.5l2.1-2.5c0,0,1.4-0.8,2.6-1c1.2-0.2,2.1,2.6,2.1,2.6c3.9-0.1,7.8-1.3,11.5-3.1
		c10.7-5,14.2-12.8,14.2-12.8l0.1-0.1c0,0,1.6-0.1,4.2,0.1l-0.2-1.7c-0.7-0.1-1.5-0.3-1.4-0.3c-0.6-0.1-1-0.2-1.2-0.5
		c-0.2-0.4-0.2-0.8-0.1-1.4C92,50.7,92.1,50,92,49.4c0.1-0.4,0.1-0.7,0.2-1.1c-0.1-0.5-0.2-1-0.1-1.6c0.1-0.9,0.5-1.4,0.7-2.1
		c0.1-0.1-0.1-0.4-0.1-0.8c0.1-0.4,0.2-0.6,0.2-0.9c0,0,0-0.1-0.1-0.1c0.2-0.1,0.1-0.3,0.1-0.5c0.1-0.1,0.1-0.3,0.2-0.4
		c0-0.2-0.1-0.4-0.1-0.6c0.2-0.6,0.3-1,0.6-1.5c0.1-0.2,0-0.4,0-0.6c0.2-0.4,0.1-0.6,0.3-0.9c0.5-1.2-0.3-4.5,0.3-3
		c-0.3-1,0.1,0.3-0.1-0.5c0.3,0.9-0.3-0.9,0.4,0.8c1.3,1.1,0.3,0.2,0.2-0.7c0.6,1.3,0.1,0,0.3-0.6c1,3.2,10.2,0.5,12,6.4
		c0.2,0.2,0.3,0.4,0.4,0.6c0,0,0,0,0,0.1c0.3,0.5,0.4,1.1,0.3,1.7c0-0.1,0-0.2-0.1-0.3c0,0.2,0,0.5,0,0.7c0,0,0,0,0,0.1
		c0,0.1,0,0.2,0,0.4c0.1,0.3,0.2,0.7,0.2,1c-0.9,0.7-0.6,2-1.3,2c-0.1,0.3-0.3,0.3-0.4,0.6c-0.1,0-0.1-0.1-0.2-0.1
		c-0.2,0.8-0.6,1.5-0.9,2.1c-0.3,0.3-0.7,0.5-1.1,0.7c-0.4,1.1-0.9,2.1-1.3,3.1l0,0l1.4,3.8c2.5,0.8,3.3,1.3,5.9,2.9
		c0,0,4,3.3,4.2,11.6c1,4.8,0,22.2-3.4,25.3c-0.4,0.4-0.9,0.7-1.4,1c1.5,6.4,0.7,4.4-3,18.7c-0.3,3.2-0.6,6.3-0.8,9.5
		c16.4-10,27.4-28.1,27.4-48.7c0-31.4-25.6-57-57-57c-31.4,0-57,25.6-57,57c0,20.1,10.4,37.7,26.1,47.9c-0.2-0.7-0.3-1.4-0.5-2.1
		C43.7,119.9,43.2,116.7,42.5,113z"/>
	<path class="st1" d="M42.4,113.5C42.4,114.1,42.5,114.6,42.4,113.5L42.4,113.5z"/>
	<path class="st1" d="M109.2,97.8c0.5-0.3,1-0.6,1.4-1c3.4-3.1,4.3-20.5,3.4-25.3c-0.2-8.3-4.2-11.6-4.2-11.6
		c-2.6-1.6-3.4-2.1-5.9-2.9l-1.4-3.8l0,0c0.5-1,1-2,1.3-3.1c0.4-0.2,0.8-0.4,1.1-0.7c0.4-0.6,0.7-1.3,0.9-2.1c0.1,0,0.1,0.1,0.2,0.1
		c0.1-0.3,0.3-0.3,0.4-0.6c0.7,0,0.5-1.4,1.3-2c0-0.3-0.1-0.7-0.2-1c0-0.1,0-0.2,0-0.4c0,0,0,0,0-0.1c0-0.2,0-0.5,0-0.7
		c0,0.1,0.1,0.2,0.1,0.3c0.1-0.6-0.1-1.2-0.3-1.7c0,0,0,0,0-0.1c-0.1-0.2-0.3-0.4-0.4-0.6c-1.8-5.9-11-3.3-12-6.4
		c-0.2,0.6,0.3,1.9-0.3,0.6c0.1,0.9,1.1,1.8-0.2,0.7c-0.7-1.7-0.1,0.1-0.4-0.8c0.2,0.9-0.2-0.5,0.1,0.5c-0.5-1.4,0.2,1.8-0.3,3
		c-0.2,0.3-0.1,0.5-0.3,0.9c0,0.2,0.1,0.4,0,0.6c-0.3,0.5-0.3,0.9-0.6,1.5c0,0.2,0.1,0.4,0.1,0.6c-0.1,0.1-0.1,0.3-0.2,0.4
		c0,0.2,0,0.4-0.1,0.5c0,0,0,0.1,0.1,0.1c0,0.3-0.2,0.5-0.2,0.9c-0.1,0.4,0.1,0.7,0.1,0.8c-0.3,0.7-0.6,1.2-0.7,2.1
		c0,0.6,0,1.1,0.1,1.6C92.1,48.7,92,49,92,49.4c0.1,0.6,0.1,1.3,0.2,1.9c-0.1,0.6-0.1,1.1,0.1,1.4c0.2,0.3,0.6,0.5,1.2,0.5
		c-0.1,0.1,0.7,0.2,1.4,0.3l0.2,1.7c-2.6-0.2-4.2-0.1-4.2-0.1l-0.1,0.1c0,0-3.6,7.7-14.2,12.8c-3.7,1.7-7.6,3-11.5,3.1
		c0,0-0.8-2.8-2.1-2.6c-1.2,0.2-2.6,1-2.6,1L58.2,72c0,0,5.3,2.5,7.3,1.5c0,0,5.5,1.4,12.6,0.8c4.3-0.4,5.9-0.5,9.3-2.7
		c0.1,0.7,0.1,1.5,0.2,2.2c1.3,14.1,1.8,18.9,1.5,25.8c0,0-0.1,0-0.1,0c0,0.2,0,0.4,0,0.6c-1.8,4.6-2.9,9.4-3.6,14.5
		c-2.2,16.4-1.8,7.3-2.2,19.2c8-1,15.6-3.8,22.2-7.8c0.3-3.2,0.6-6.3,0.8-9.5C109.9,102.2,110.6,104.2,109.2,97.8z"/>
	<path class="st1" d="M61.5,114.1c0.1,0-2.1-6.3-3.3-15.7c5,0.5,11.9,0.1,17.6-4.5c0.6-0.5,1.4-0.7,2.2-0.6l4,0.5
		c1.7,0.2,3.2-0.9,3.5-2.5c0.2-0.9,0.3-2,0-2.9l-7.5-0.3l0.2-1c0,0-3.3,0.9-3.3,3.5c0,0-4.7,4.3-17.8-1.9c-0.6-4.3-1.9-7.7-7.4-9.5
		c-0.5-0.2-0.9-0.3-1.4-0.4l0.4-4.3c0.6-0.1,1.1-0.4,1.6-0.9c1-1,1.7-2.7,0.7-5.1c-0.2-0.6,0.3-0.8,0-1.3c-0.3-0.5-1.6-1.3-2-1.7
		c-0.7-0.8-1.4-1.6-1.9-2.5c0.4-0.3,1-0.3,1.5-0.4c-0.3-0.1-0.6-0.3-0.9-0.4c0.3-0.4,0.5-0.8,0.6-1.2c0.4-2.1-0.8-2.4-2.4-2.5
		c-0.1,0-0.2,0.1-0.2,0.2l0,0.3c0,0.2-0.3,0.2-0.4,0.1c-0.1-0.1-0.3-0.1-0.4,0.1c-0.1,0.4-0.5,0.4-1.3,0.6c-0.2,0-0.5,0-0.7,0.1
		c-4.3,0.7-8,4-9.1,8.2c0.3-0.3,0.6-0.6,0.9-0.8c-1.5,3-1.1,6.8,1,9.4c0.2-0.5,0.4-1.1,0.6-1.6c0.1,1.5,1.1,3,2.4,3.7
		c0.5-1.2,1.1-2.4,1.6-3.5c0.1-0.2,0.2-0.5,0.2-0.7c0-0.1-0.1-0.3-0.1-0.4c0.7,0.1,1.3,0,1.8,0c-0.7,2.6-1.3,5.1-1.3,5.1
		c-9.8,16.7-0.4,28.3,1.1,33c0.1,0.7,0.1,1.1,0.2,1.4c0-0.3,0-0.6,0.1-0.5c0.7,3.7,1.1,6.9,1.9,10c0.2,0.7,0.3,1.4,0.5,2.1
		c6.1,3.9,12.9,6.7,20.3,8.1C62.5,124.1,62.3,117,61.5,114.1z"/>
</g>
</svg>
