<?xml version="1.0" encoding="utf-8"?>
<!-- Generator: Adobe Illustrator 25.1.0, SVG Export Plug-In . SVG Version: 6.00 Build 0)  -->
<svg version="1.1" id="Calque_1" xmlns="http://www.w3.org/2000/svg" xmlns:xlink="http://www.w3.org/1999/xlink" x="0px" y="0px"
	 viewBox="0 0 150.5 153.8" style="enable-background:new 0 0 150.5 153.8;" xml:space="preserve">
<style type="text/css">
	.st0{fill:#FBBA00;}
	.st1{fill:#FFFFFF;}
</style>
<g>
	<path d="M23.9,105.3C23.8,105.3,23.8,105.3,23.9,105.3C23.8,105.4,23.8,105.3,23.9,105.3C23.9,105.3,23.9,105.3,23.9,105.3
		L23.9,105.3z"/>
</g>
<g>
	<path class="st0" d="M133.3,75.9c0-31.4-25.6-57-57-57c-31.4,0-57,25.6-57,57c0,24.1,15.1,44.8,36.3,53.1c0.5-2.3,1-4.4,1-4.4
		c0.1-0.5,0.2-0.9,0.3-1.3C59.7,109,70.4,80.6,71,78.8c0.4,0.7,1,1.4,1.7,1.9c-2.1,5.6-11.1,30.4-13.7,43l-1.2,6.1
		c5.8,2,12,3.1,18.5,3.1c0.1,0,0.2,0,0.3,0l0.4-5.4c0-0.1,0.4-41.5,0.2-46.1c0.8-0.2,1.6-0.6,2.2-1.2l0,0c1.1-1,1.8-2.4,1.8-4
		c0-0.2,0-0.4-0.1-0.6c0,0,0.1,0,0.1,0.1c1.3,0.7,2.5,1.6,3.6,2.9l0.9,1.1c0.9,1.1,1.9,2.2,2.8,3.3c2.8,3.4,5.4,6.5,8,9.4
		c2.7,3,5.3,6,8,9.1c0.4,0.5,0.9,1,1.4,1.7c0.3,0.4,0.5,0.8,0.7,1.2c0.2,0.3,0.2,0.7,0.2,0.8l0,0.1l0.1,1.6l-1.6-0.3
		c-0.8-0.2-1.2-0.6-1.5-0.9l-0.1-0.1c-1.1-1.1-2.2-2.1-3.2-3.2c-0.7-0.7-1.4-1.4-2.1-2.2c-0.6-0.6-1.2-1.2-1.8-1.9l-1.6-1.6
		c-2-2-4-4.1-6.1-6.1c-1-1-2.1-2-3.1-3c-0.5-0.4-0.9-0.9-1.4-1.3l-0.9-0.8c-0.6-0.6-1.2-1.2-1.8-1.8c-0.8-0.7-1.5-1.5-2.2-2.3
		c0.2,4.5,1.1,27.6-0.2,46l-0.3,5.7C109.1,131.4,133.3,106.4,133.3,75.9z M70.4,76.2c0,0.7,0.1,1.3,0.4,1.9
		c-1.4,0.9-2.8,1.5-4.2,1.8c-1.1,0.2-2.2,0.5-3.3,0.7c-1.1,0.2-2.1,0.5-3.2,0.7c-1.1,0.2-2.2,0.5-3.4,0.7c-1.9,0.4-3.9,0.8-5.8,1.2
		c-2.5,0.5-5,1.1-7.5,1.7c-1.7,0.4-3.4,0.8-5.2,1.2c-1.2,0.3-2.4,0.5-3.6,0.7c-0.4,0.1-0.9,0.1-1.3,0.1l-0.2,0
		c-0.3,0-0.6-0.1-0.7-0.2c0,0-0.1,0-0.1,0l-2-0.7l1.7-1.4c0,0,0.1-0.1,0.1-0.1c0.1-0.1,0.3-0.3,0.7-0.4c0.5-0.2,1.1-0.4,1.7-0.5
		c1.5-0.4,2.9-0.8,4.4-1.3c2.5-0.7,5-1.4,7.5-2.2c5.5-1.6,9.7-2.9,13.6-4.2c2.3-0.8,4.9-1.6,7.5-2.3c0.6-0.1,1.1-0.3,1.7-0.4
		c0.9-0.2,1.9-0.4,2.9-0.6C70.9,73.4,70.4,74.7,70.4,76.2z M75.8,79.7c-1.9,0-3.5-1.6-3.5-3.5s1.6-3.5,3.5-3.5
		c1.9,0,3.5,1.6,3.5,3.5S77.7,79.7,75.8,79.7z M89.4,32.2l-0.1,0.6c-0.2,0.8-0.4,1.6-0.6,2.4c-0.7,2.4-1.3,4.8-2,7.2
		c-0.9,3.4-1.9,6.8-2.8,10.2c-0.5,1.8-1,3.6-1.4,5.5c-0.3,1.3-0.7,2.6-1,3.9c-0.9,3.5-1.8,6.2-2.7,8.6c-0.1,0.2-0.2,0.5-0.3,0.8
		c-0.8-0.5-1.7-0.7-2.7-0.7c-0.6,0-1.2,0.1-1.7,0.3c0.3-0.6,0.3-1.4,0.4-2.2l0-0.3c0-0.4,0-0.8,0-1.3l0-0.2c0-1.1,0.1-2.2,0.5-3.4
		c0.7-2.3,1.5-4.6,2.4-6.9c2.5-6.7,4.8-13.4,6.5-18.5c0.6-1.9,1.3-3.8,1.8-5.2c0.2-0.6,0.5-1.1,0.7-1.7l0.1-0.1
		c0.1-0.3,0.5-1,1.3-1.2l0.7-0.2l0.5,0.6C89.6,31.2,89.5,31.9,89.4,32.2z"/>
	<path class="st1" d="M75.8,72.6c-1.9,0-3.5,1.6-3.5,3.5s1.6,3.5,3.5,3.5c1.9,0,3.5-1.6,3.5-3.5S77.7,72.6,75.8,72.6z"/>
	<path class="st1" d="M88.6,29.9l-0.7,0.2c-0.9,0.2-1.2,0.9-1.3,1.2l-0.1,0.1c-0.2,0.5-0.5,1.1-0.7,1.7c-0.5,1.4-1.2,3.3-1.8,5.2
		c-1.7,5.1-4,11.9-6.5,18.5c-0.9,2.3-1.7,4.6-2.4,6.9c-0.4,1.2-0.6,2.3-0.5,3.4l0,0.2c0,0.5,0,0.9,0,1.3l0,0.3
		c-0.1,0.8-0.2,1.6-0.4,2.2c0.5-0.2,1.1-0.3,1.7-0.3c1,0,1.9,0.3,2.7,0.7c0.1-0.3,0.2-0.5,0.3-0.8c1-2.5,1.8-5.1,2.7-8.6
		c0.3-1.3,0.7-2.6,1-3.9c0.5-1.8,0.9-3.6,1.4-5.5c0.9-3.4,1.9-6.8,2.8-10.2c0.7-2.4,1.3-4.8,2-7.2c0.2-0.8,0.4-1.6,0.6-2.4l0.1-0.6
		c0.1-0.3,0.2-1-0.3-1.7L88.6,29.9z"/>
	<path class="st1" d="M67.3,73.5c-2.7,0.7-5.2,1.5-7.5,2.3c-4,1.3-8.2,2.6-13.6,4.2c-2.5,0.7-5,1.4-7.5,2.2
		c-1.5,0.4-2.9,0.8-4.4,1.3c-0.6,0.2-1.2,0.4-1.7,0.5c-0.3,0.1-0.5,0.3-0.7,0.4c0,0-0.1,0.1-0.1,0.1l-1.7,1.4l2,0.7c0,0,0.1,0,0.1,0
		c0.2,0.1,0.4,0.2,0.7,0.2l0.2,0c0.4,0,0.8,0,1.3-0.1c1.2-0.2,2.4-0.4,3.6-0.7c1.7-0.4,3.4-0.8,5.2-1.2c2.4-0.6,5-1.1,7.5-1.7
		c1.9-0.4,3.9-0.8,5.8-1.2c1.1-0.2,2.2-0.4,3.4-0.7c1.1-0.2,2.1-0.5,3.2-0.7c1.1-0.2,2.2-0.5,3.3-0.7c1.5-0.3,2.9-0.9,4.2-1.8
		c-0.2-0.6-0.4-1.2-0.4-1.9c0-1.4,0.6-2.7,1.5-3.7c-1,0.2-1.9,0.4-2.9,0.6C68.4,73.2,67.9,73.3,67.3,73.5z"/>
	<path class="st1" d="M79.4,81.2c0.7,0.8,1.4,1.6,2.2,2.3c0.6,0.6,1.2,1.2,1.8,1.8l0.9,0.8c0.5,0.4,0.9,0.9,1.4,1.3c1,1,2.1,2,3.1,3
		c2,2,4.1,4.1,6.1,6.1l1.6,1.6c0.6,0.6,1.2,1.2,1.8,1.9c0.7,0.7,1.4,1.5,2.1,2.2c1.1,1.1,2.1,2.1,3.2,3.2l0.1,0.1
		c0.3,0.3,0.7,0.7,1.5,0.9l1.6,0.3l-0.1-1.6l0-0.1c0-0.2,0-0.5-0.2-0.8c-0.2-0.4-0.4-0.8-0.7-1.2c-0.5-0.7-0.9-1.2-1.4-1.7
		c-2.7-3-5.3-6.1-8-9.1c-2.6-2.9-5.2-6-8-9.4c-0.9-1.1-1.9-2.3-2.8-3.3l-0.9-1.1c-1-1.2-2.2-2.2-3.6-2.9c0,0-0.1,0-0.1-0.1
		c0,0.2,0.1,0.4,0.1,0.6c0,1.6-0.7,3.1-1.8,4l0,0c-0.6,0.5-1.4,1-2.2,1.2c0.2,4.6-0.2,46-0.2,46.1l-0.4,5.4c0.8,0,1.5,0,2.3-0.1
		l0.3-5.7C80.5,108.8,79.6,85.6,79.4,81.2z"/>
	<path class="st1" d="M72.7,80.6c-0.7-0.5-1.3-1.1-1.7-1.9c-0.7,1.8-11.3,30.3-14.2,44.4c-0.1,0.4-0.2,0.9-0.3,1.3
		c0,0-0.5,2.1-1,4.4c0.7,0.3,1.5,0.6,2.2,0.8l1.2-6.1C61.6,111,70.7,86.2,72.7,80.6z"/>
</g>
</svg>
