<?xml version="1.0" encoding="utf-8"?>
<!-- Generator: Adobe Illustrator 25.3.0, SVG Export Plug-In . SVG Version: 6.00 Build 0)  -->
<svg version="1.1" id="Calque_1" xmlns="http://www.w3.org/2000/svg" xmlns:xlink="http://www.w3.org/1999/xlink" x="0px" y="0px"
	 viewBox="0 0 33 33" style="enable-background:new 0 0 33 33;" xml:space="preserve">
<style type="text/css">
	.st0{fill:#FFFFFF;}
</style>
<g>
	<path class="st0" d="M32.8,13.7c0-0.1,0-0.2,0-0.2c-1.2-6.7-6.5-12-13.2-13.2c-0.7-0.1-1.4-0.2-2.1-0.2c-0.3,0-0.6,0-0.8,0
		c-0.1,0-0.3,0-0.4,0c0,0-0.1,0-0.1,0c-0.1,0-0.2,0-0.4,0c0,0-0.1,0-0.1,0c-0.1,0-0.2,0-0.3,0c0,0-0.1,0-0.1,0c-0.1,0-0.2,0-0.3,0
		c-0.1,0-0.1,0-0.2,0c-0.1,0-0.1,0-0.2,0C6.3,1.1,0,8.1,0,16.5c0,8.4,6.3,15.4,14.5,16.4c0.1,0,0.1,0,0.2,0c0.1,0,0.1,0,0.2,0
		c0.1,0,0.2,0,0.3,0c0,0,0.1,0,0.1,0c0.1,0,0.2,0,0.3,0c0,0,0.1,0,0.1,0c0.1,0,0.2,0,0.4,0c0,0,0.1,0,0.1,0c0.1,0,0.2,0,0.4,0
		c0.3,0,0.6,0,0.8,0c0.7,0,1.4-0.1,2.1-0.2c6.7-1.2,12-6.5,13.2-13.2c0-0.1,0-0.2,0.1-0.3c0.1-0.9,0.2-1.8,0.2-2.7
		C33,15.6,32.9,14.6,32.8,13.7z M26.8,22.6l0,0.2l-0.2,0.1c-2.3,1.8-5.3,2.7-7.2,2.9l-0.2,0c-0.1,0-0.2,0-0.2-0.1l-1.2-3.3
		c0-0.1,0-0.2,0.1-0.2l0.4-0.1c1.3-0.2,3.2-0.8,4.8-2.2c0,0,0-0.1,0-0.1c-0.1,0-0.3,0.1-0.4,0.2c-0.4,0.1-0.7,0.3-1,0.3
		c-1.7,0.4-3.4,0.6-5.1,0.6l0,0h0v0c-1.7,0-3.4-0.2-5.1-0.6c-0.2-0.1-0.6-0.2-1-0.3c-0.1-0.1-0.3-0.1-0.4-0.2c0,0-0.1,0,0,0.1
		c1.6,1.4,3.5,2,4.8,2.2l0.4,0.1c0.1,0,0.2,0.1,0.1,0.2L14,25.7c0,0.1-0.1,0.1-0.2,0.1l-0.2,0c-1.9-0.2-4.9-1.1-7.2-2.9l-0.2-0.1
		l0-0.2c-0.4-3.9,0-10.1,1.4-13.8l0.1-0.2c0,0,0,0,0,0l0.2-0.1c1.4-0.6,3.4-0.8,5.2-0.9h2.1c0,0,0,0,0,0l-4.2,2c0,0,0,0,0,0
		c1.8-0.5,3.7-0.7,5.5-0.7c1.8,0,3.7,0.2,5.5,0.7c0,0,0,0,0,0l-4.1-2c0,0,0,0,0,0h2c1.8,0.1,3.8,0.2,5.2,0.9l0.2,0.1c0,0,0,0,0,0
		l0.1,0.2C26.8,12.4,27.2,18.7,26.8,22.6z"/>
	<path class="st0" d="M12,12.9c-1.2,0.1-2.1,1.1-2.2,2.2c-0.1,1.5,1.1,2.8,2.7,2.7c1.2-0.1,2.1-1.1,2.2-2.2
		C14.8,14,13.5,12.7,12,12.9z"/>
	<path class="st0" d="M20.5,12.9c-1.2,0.1-2.1,1.1-2.2,2.2c-0.1,1.5,1.1,2.8,2.7,2.7c1.2-0.1,2.1-1.1,2.2-2.2
		C23.3,14,22.1,12.7,20.5,12.9z"/>
</g>
</svg>
