<?xml version="1.0" encoding="utf-8"?>
<!-- Generator: Adobe Illustrator 25.1.0, SVG Export Plug-In . SVG Version: 6.00 Build 0)  -->
<svg version="1.1" id="Calque_1" xmlns="http://www.w3.org/2000/svg" xmlns:xlink="http://www.w3.org/1999/xlink" x="0px" y="0px"
	 viewBox="0 0 150.5 153.8" style="enable-background:new 0 0 150.5 153.8;" xml:space="preserve">
<style type="text/css">
	.st0{fill:#62B22F;}
	.st1{fill:#FFFFFF;}
</style>
<g>
	<circle class="st0" cx="74.1" cy="77.1" r="57"/>
	<path class="st1" d="M30.2,67.8c-0.7,2.4,1.4,4.8,3.8,5.4c2.4,0.6,4.9,0,7.2-0.7c6.4-1.8,12.8-3.8,19.4-4.8
		c6.6-1,13.5-0.9,19.7,1.4c5,1.8,9.6,4.9,15,4.8c0.2-1.4,0.4-2.8,0.9-4c0-0.1,0.1-0.2,0.1-0.2c-0.5,0-1,0-1.6-0.1
		c-1.2-0.3-2.2-1.2-3-2.2c-0.8-1-1.4-2.2-2.2-3.1c3.3-0.3,6.6,0.7,9.3,2.5c0,0,0,0,0,0c0.3-0.1,0.5-0.2,0.8-0.3
		c-0.5-0.4-0.8-0.8-1.1-1.3c-0.6-1.1-0.7-2.5-1.6-3.4c2.7,0.7,5,2.4,6.5,4.7c0.3,0.1,0.7,0.1,1,0.2c1.2,0.2,2.3,0.5,3.4,1
		c1,0.6,1.9,1.5,2.1,2.7c0.1,0.9-0.2,1.7-0.6,2.4c-0.4,0.7-0.9,1.3-1.4,1.9c-0.2,0.2-0.4,0.5-0.6,0.7c-0.5,0.5-0.9,1-1.4,1.5
		c3.1,2.3,2.9,2.8,6.5,3.9c0.3,0.1,0.7,0.2,1,0.3c0.5,0.1,1.2,0.3,1.3,1c0.1,0.4-0.2,0.9-0.5,1.1c-0.7,0.4-1.5,0.2-2.2,0
		c-0.2,0-0.4-0.1-0.5-0.1c-0.8-0.2-1.5-0.4-2.3-0.6c-0.8-0.2-2.1-0.6-2.3-0.7c-1.4-0.6-2.7-1.3-4.1-1.8c-0.3,0.2-0.5,0.5-0.8,0.7
		c3.6,2.8,7.8,4.9,12.2,6.1c0.2,0.1,0.4,0.1,0.6,0.2c0.6,0.2,1.3,0.4,1.5,1.1c0.1,0.5-0.2,1-0.6,1.2c-0.8,0.5-1.7,0.3-2.5,0.1
		c-0.2,0-0.3-0.1-0.5-0.1c-0.9-0.2-1.8-0.5-2.7-0.7c-2.3-0.6-4.6-1.3-6.7-2.3c-2-0.9-4-1.9-6-2.5c-3.3,1.4-7,1.9-10.6,1.7
		c-0.5,0-0.9-0.1-1.4-0.1c0.5,0.7,1.1,1.5,1.6,2.2c0.3,0.4,0.5,0.7,0.7,1.1c0.2,0.4,0.4,0.9,0.5,1.4c0.1,0.9-0.6,2-1.5,2
		c-0.5-0.9-1.1-1.7-1.7-2.5c-1.2-1.7-2.6-3.3-4-4.8c-0.4,0.3-0.9,0.5-1.3,0.8c-2.6,1.3-5.6,2-8.6,1.9c2.1,1.9,3.8,4.5,4.8,7.2
		c0.1,0.2,0.1,0.4,0.2,0.6c0.2,0.6,0.3,1.3,0.2,1.9c-0.2,0.8-0.9,1.6-1.8,1.5c-0.2-1-0.5-2-0.9-2.9c-0.4-0.9-0.9-1.8-1.3-2.7
		c-1.3-2.4-3.1-4.6-5.4-6.2c-0.5-0.4-1.2-0.9-1.1-1.6c0.1-0.7,1-0.9,1.7-0.9c0.7,0,1.5,0.1,2-0.3c-0.9-1.5-1.1-3.6-1-5.3
		c0.2-1.6,0.8-3.1,1.8-4.4c0.2-0.5,0.3-0.9,0.5-1.3c-3.2-0.1-6.1,0.9-8.8,2.7c-2.6,1.8-5,3.9-7.6,5.7c-3.7,2.4-8,4.1-12.4,4.1
		c-4.4,0-8.9-1.9-11.6-5.4c-0.4-0.5-0.7-1-1-1.6C27.8,75.2,28.1,71,30.2,67.8z"/>
</g>
</svg>
