<?xml version="1.0" encoding="utf-8"?>
<!-- Generator: Adobe Illustrator 25.3.0, SVG Export Plug-In . SVG Version: 6.00 Build 0)  -->
<svg version="1.1" id="Calque_1" xmlns="http://www.w3.org/2000/svg" xmlns:xlink="http://www.w3.org/1999/xlink" x="0px" y="0px"
	 viewBox="0 0 197 237" style="enable-background:new 0 0 197 237;" xml:space="preserve">
<style type="text/css">
	.st0{fill:#E6358A;}
	.st1{fill:#00B8E8;}
	.st2{fill:#62B131;}
	.st3{fill:#FAB906;}
</style>
<g>
	<path d="M602.7,259.8L602.7,259.8C602.6,259.8,602.6,259.8,602.7,259.8L602.7,259.8L602.7,259.8z"/>
</g>
<g>
	<path class="st0" d="M181.8,175.9c0.4-0.2,0.8-0.5,1.1-0.8c2.6-2.4,3.3-15.8,2.6-19.5c-0.2-6.4-3.2-8.9-3.2-8.9
		c-2-1.2-2.6-1.6-4.6-2.2l-1.1-2.9l0,0c0.4-0.8,0.8-1.5,1-2.4c0.3-0.2,0.6-0.3,0.8-0.5c0.3-0.5,0.5-1,0.7-1.6c0.1,0,0.1,0.1,0.2,0.1
		c0.1-0.2,0.2-0.2,0.3-0.5c0.5,0,0.4-1.1,1-1.5c0-0.2-0.1-0.5-0.2-0.8c0-0.1,0-0.2,0-0.3c0,0,0,0,0-0.1c0-0.2,0-0.4,0-0.5
		c0,0.1,0.1,0.2,0.1,0.2c0.1-0.5-0.1-0.9-0.2-1.3c0,0,0,0,0-0.1c-0.1-0.2-0.2-0.3-0.3-0.5c-1.4-4.6-8.5-2.5-9.3-4.9
		c-0.2,0.5,0.2,1.5-0.2,0.5c0.1,0.7,0.8,1.4-0.2,0.5c-0.5-1.3-0.1,0.1-0.3-0.6c0.2,0.7-0.2-0.4,0.1,0.4c-0.4-1.1,0.2,1.4-0.2,2.3
		c-0.2,0.2-0.1,0.4-0.2,0.7c0,0.2,0.1,0.3,0,0.5c-0.2,0.4-0.2,0.7-0.5,1.2c0,0.2,0.1,0.3,0.1,0.5c-0.1,0.1-0.1,0.2-0.2,0.3
		c0,0.2,0,0.3-0.1,0.4c0,0,0,0.1,0.1,0.1c0,0.2-0.2,0.4-0.2,0.7c-0.1,0.3,0.1,0.5,0.1,0.6c-0.2,0.5-0.5,0.9-0.5,1.6
		c0,0.5,0,0.8,0.1,1.2c0,0.5-0.1,0.7-0.1,1c0.1,0.5,0.1,1,0.2,1.5c-0.1,0.5-0.1,0.8,0.1,1.1c0.2,0.2,0.5,0.4,0.9,0.4
		c-0.1,0.1,0.5,0.2,1.1,0.2l0.2,1.3c-2-0.2-3.2-0.1-3.2-0.1l-0.1,0.1c0,0-2.8,5.9-11,9.9c-2.9,1.3-5.9,2.3-8.9,2.4
		c0,0-0.6-2.2-1.6-2c-0.9,0.2-2,0.8-2,0.8l-1.7,1.9c0,0,4.1,1.9,5.6,1.2c0,0,4.2,1.1,9.7,0.6c3.3-0.3,4.6-0.4,7.2-2.1
		c0.1,0.5,0.1,1.2,0.2,1.7c1,10.9,1.4,14.6,1.2,19.9h-0.1c0,0.2,0,0.3,0,0.5c-1.4,3.5-2.2,7.3-2.8,11.2c-1.7,12.7-1.4,5.6-1.7,14.8
		c6.2-0.8,12-2.9,17.1-6c0.2-2.5,0.5-4.9,0.6-7.3C182.4,179.3,182.9,180.8,181.8,175.9z"/>
	<path class="st0" d="M145,188.5c0.1,0-1.6-4.9-2.5-12.1c3.9,0.4,9.2,0.1,13.6-3.5c0.5-0.4,1.1-0.5,1.7-0.5l3.1,0.4
		c1.3,0.2,2.5-0.7,2.7-1.9c0.2-0.7,0.2-1.5,0-2.2l-5.8-0.2l0.2-0.8c0,0-2.5,0.7-2.5,2.7c0,0-3.6,3.3-13.7-1.5
		c-0.5-3.3-1.5-5.9-5.7-7.3c-0.4-0.2-0.7-0.2-1.1-0.3l0.3-3.3c0.5-0.1,0.8-0.3,1.2-0.7c0.8-0.8,1.3-2.1,0.5-3.9
		c-0.2-0.5,0.2-0.6,0-1c-0.2-0.4-1.2-1-1.5-1.3c-0.5-0.6-1.1-1.2-1.5-1.9c0.3-0.2,0.8-0.2,1.2-0.3c-0.2-0.1-0.5-0.2-0.7-0.3
		c0.2-0.3,0.4-0.6,0.5-0.9c0.3-1.6-0.6-1.9-1.9-1.9c-0.1,0-0.2,0.1-0.2,0.2v0.2c0,0.2-0.2,0.2-0.3,0.1c-0.1-0.1-0.2-0.1-0.3,0.1
		c-0.1,0.3-0.4,0.3-1,0.5c-0.2,0-0.4,0-0.5,0.1c-3.3,0.5-6.2,3.1-7,6.3c0.2-0.2,0.5-0.5,0.7-0.6c-1.2,2.3-0.8,5.2,0.8,7.3
		c0.2-0.4,0.3-0.8,0.5-1.2c0.1,1.2,0.8,2.3,1.9,2.9c0.4-0.9,0.8-1.9,1.2-2.7c0.1-0.2,0.2-0.4,0.2-0.5c0-0.1-0.1-0.2-0.1-0.3
		c0.5,0.1,1,0,1.4,0c-0.5,2-1,3.9-1,3.9c-7.6,12.9-0.3,21.8,0.8,25.5c0.1,0.5,0.1,0.8,0.2,1.1c0-0.2,0-0.5,0.1-0.4
		c0.5,2.9,0.8,5.3,1.5,7.7c0.2,0.5,0.2,1.1,0.4,1.6c4.7,3,10,5.2,15.7,6.2C145.8,196.2,145.7,190.7,145,188.5z"/>
</g>
<g>
	<g>
		<path class="st1" d="M195.1,39.6c-1.1-0.4-2-0.8-2.8-1c-0.4-0.1-0.7,0-0.9,0c-1.2,0.5-2.2,0.9-3.1,1.2c-0.5-0.6-1.1-1-1.1-1.2
			c0.3-2.8,0.2-5.6,1.1-8.2c1.2-3.5,3.2-6.6,5.1-10.6c-1.5,1.1-3,1.6-3.6,2.7c-2.3,3.9-6,7.2-6.3,12.3c-0.1,1.5-1.3,2.9-2.4,5.1
			c-1.6-3-2.8-5.1-4.1-7.5c-6.1-1.1-12.3-2.2-19.5-3.5c2.3,2.8,5.1,3,7.4,4.1c1.9,1,4.2,1.8,5.4,3.5c2.1,3,3.5,6.4,5.2,9.6
			c-4.4,6.3-9.8,8.5-15.1,5.7c-1,0.9-1.9,1.7-2.9,2.7c2.1,0.4,4,0.6,5.8,1.2c8.1,2.6,15.5,1.6,21.7-4.3c3.6-3.4,6.7-7.3,10-11
			c0.1-0.1,0.3-0.3,0.3-0.4C195.3,39.8,195.2,39.7,195.1,39.6z"/>
	</g>
</g>
<path class="st1" d="M130.6,67.7c1.2,1.9,2.1,3.5,3.2,5.2c-0.5,1.1-1.1,2.2-1.7,3.6c-1,0.2-2,0.6-3.2,0.7c-1.2,0.1-2.2,0-3.4-0.1
	c-0.6,1.1-1,2-1.6,3.4c3.4-0.7,6.3-1.4,9.3-1.8c7-0.9,10.8-5.3,13.5-12.2c-1.9,0.7-3.3,1.1-4.6,1.5c-1.1-4.9-0.9-9.6,3.4-13.5
	c-4.2,3.7-6.8,8-7.3,14c-1.4-1.5-2.4-2.6-3.5-3.7c-3.9-0.8-7.8-1.5-11.6-2.2c-0.1,0.2-0.2,0.4-0.3,0.7
	C125.4,64.7,128,66.2,130.6,67.7z"/>
<g>
	<path class="st2" d="M7.4,159.2c-0.6,2,1.2,4,3.1,4.5c2,0.5,4.1,0,6-0.6c5.3-1.5,10.6-3.1,16.1-4s11.2-0.7,16.3,1.2
		c4.1,1.5,8,4.1,12.4,4c0.2-1.2,0.3-2.3,0.7-3.3c0-0.1,0.1-0.2,0.1-0.2c-0.4,0-0.8,0-1.3-0.1c-1-0.2-1.8-1-2.5-1.8
		c-0.7-0.8-1.2-1.8-1.8-2.6c2.7-0.2,5.5,0.6,7.7,2.1l0,0c0.2-0.1,0.4-0.2,0.7-0.2c-0.4-0.3-0.7-0.7-0.9-1.1
		c-0.5-0.9-0.6-2.1-1.3-2.8c2.2,0.6,4.1,2,5.4,3.9c0.2,0.1,0.6,0.1,0.8,0.2c1,0.2,1.9,0.4,2.8,0.8c0.8,0.5,1.6,1.2,1.7,2.2
		c0.1,0.7-0.2,1.4-0.5,2c-0.3,0.6-0.7,1.1-1.2,1.6c-0.2,0.2-0.3,0.4-0.5,0.6c-0.4,0.4-0.7,0.8-1.2,1.2c2.6,1.9,2.4,2.3,5.4,3.2
		c0.2,0.1,0.6,0.2,0.8,0.2c0.4,0.1,1,0.2,1.1,0.8c0.1,0.3-0.2,0.7-0.4,0.9c-0.6,0.3-1.2,0.2-1.8,0c-0.2,0-0.3-0.1-0.4-0.1
		c-0.7-0.2-1.2-0.3-1.9-0.5c-0.7-0.2-1.7-0.5-1.9-0.6c-1.2-0.5-2.2-1.1-3.4-1.5c-0.2,0.2-0.4,0.4-0.7,0.6c3,2.3,6.5,4.1,10.1,5.1
		c0.2,0.1,0.3,0.1,0.5,0.2c0.5,0.2,1.1,0.3,1.2,0.9c0.1,0.4-0.2,0.8-0.5,1c-0.7,0.4-1.4,0.2-2.1,0.1c-0.2,0-0.2-0.1-0.4-0.1
		c-0.7-0.2-1.5-0.4-2.2-0.6c-1.9-0.5-3.8-1.1-5.6-1.9c-1.7-0.7-3.3-1.6-5-2.1c-2.7,1.2-5.8,1.6-8.8,1.4c-0.4,0-0.7-0.1-1.2-0.1
		c0.4,0.6,0.9,1.2,1.3,1.8c0.2,0.3,0.4,0.6,0.6,0.9c0.2,0.3,0.3,0.7,0.4,1.2c0.1,0.7-0.5,1.7-1.2,1.7c-0.4-0.7-0.9-1.4-1.4-2.1
		c-1-1.4-2.2-2.7-3.3-4c-0.3,0.2-0.7,0.4-1.1,0.7c-2.2,1.1-4.6,1.7-7.1,1.6c1.7,1.6,3.1,3.7,4,6c0.1,0.2,0.1,0.3,0.2,0.5
		c0.2,0.5,0.2,1.1,0.2,1.6c-0.2,0.7-0.7,1.3-1.5,1.2c-0.2-0.8-0.4-1.7-0.7-2.4c-0.3-0.7-0.7-1.5-1.1-2.2c-1.1-2-2.6-3.8-4.5-5.1
		c-0.4-0.3-1-0.7-0.9-1.3c0.1-0.6,0.8-0.7,1.4-0.7s1.2,0.1,1.7-0.2c-0.7-1.2-0.9-3-0.8-4.4c0.2-1.3,0.7-2.6,1.5-3.6
		c0.2-0.4,0.2-0.7,0.4-1.1c-2.7-0.1-5.1,0.7-7.3,2.2c-2.2,1.5-4.1,3.2-6.3,4.7c-3.1,2-6.6,3.4-10.3,3.4s-7.4-1.6-9.6-4.5
		c-0.3-0.4-0.6-0.8-0.8-1.3C5.4,165.3,5.7,161.8,7.4,159.2z"/>
</g>
<g>
	<path class="st3" d="M50.8,92.4l0.4-4.8c0-0.1,0.4-36.6,0.2-40.6c0.7-0.2,1.4-0.5,1.9-1.1l0,0c1-0.9,1.6-2.1,1.6-3.5
		c0-0.2,0-0.4-0.1-0.5c0,0,0.1,0,0.1,0.1c1.1,0.6,2.2,1.4,3.2,2.6l0.8,1c0.8,1,1.7,1.9,2.5,2.9c2.5,3,4.8,5.7,7.1,8.3
		c2.4,2.6,4.7,5.3,7.1,8c0.4,0.4,0.8,0.9,1.2,1.5c0.3,0.4,0.4,0.7,0.6,1.1c0.2,0.3,0.2,0.6,0.2,0.7V68l0.1,1.4l-1.4-0.3
		c-0.7-0.2-1.1-0.5-1.3-0.8l-0.1-0.1c-1-1-1.9-1.9-2.8-2.8c-0.6-0.6-1.2-1.2-1.9-1.9c-0.5-0.5-1.1-1.1-1.6-1.7L67,60.4
		c-1.8-1.8-3.5-3.6-5.4-5.4c-0.9-0.9-1.9-1.8-2.7-2.6c-0.4-0.4-0.8-0.8-1.2-1.1l-0.8-0.7c-0.5-0.5-1.1-1.1-1.6-1.6
		c-0.7-0.6-1.3-1.3-1.9-2c0.2,4,1,24.3-0.2,40.6l-0.3,5L50.8,92.4z M32.3,88.9c0.4-2,0.9-3.9,0.9-3.9c0.1-0.4,0.2-0.8,0.3-1.1
		c2.5-12.6,11.9-37.6,12.4-39.2c0.4,0.6,0.9,1.2,1.5,1.7c-1.9,4.9-9.8,26.8-12.1,37.9l-1.1,5.4L32.3,88.9z M45.4,42.4
		c0,0.6,0.1,1.1,0.4,1.7c-1.2,0.8-2.5,1.3-3.7,1.6c-1,0.2-1.9,0.4-2.9,0.6c-1,0.2-1.9,0.4-2.8,0.6c-1,0.2-1.9,0.4-3,0.6
		c-1.7,0.4-3.4,0.7-5.1,1.1c-2.2,0.4-4.4,1-6.6,1.5c-1.5,0.4-3,0.7-4.6,1.1c-1.1,0.3-2.1,0.4-3.2,0.6c-0.4,0.1-0.8,0.1-1.1,0.1h-0.2
		c-0.3,0-0.5-0.1-0.6-0.2h-0.1L10,51l1.5-1.2l0.1-0.1c0.1-0.1,0.3-0.3,0.6-0.4c0.4-0.2,1-0.4,1.5-0.4c1.3-0.4,2.6-0.7,3.9-1.1
		c2.2-0.6,4.4-1.2,6.6-1.9c4.8-1.4,8.6-2.6,12-3.7c2-0.7,4.3-1.4,6.6-2c0.5-0.1,1-0.3,1.5-0.4c0.8-0.2,1.7-0.4,2.6-0.5
		C45.8,39.9,45.4,41,45.4,42.4z M50.1,45.5c-1.7,0-3.1-1.4-3.1-3.1s1.4-3.1,3.1-3.1c1.7,0,3.1,1.4,3.1,3.1S51.8,45.5,50.1,45.5z
		 M62.1,3.6L62,4.1c-0.2,0.7-0.4,1.4-0.5,2.1c-0.6,2.1-1.1,4.2-1.8,6.3c-0.8,3-1.7,6-2.5,9c-0.4,1.6-0.9,3.2-1.2,4.8
		c-0.3,1.1-0.6,2.3-0.9,3.4c-0.8,3.1-1.6,5.5-2.4,7.6c-0.1,0.2-0.2,0.4-0.3,0.7c-0.7-0.4-1.5-0.6-2.4-0.6c-0.5,0-1.1,0.1-1.5,0.3
		c0.3-0.5,0.3-1.2,0.4-1.9v-0.3c0-0.4,0-0.7,0-1.1v-0.2c0-1,0.1-1.9,0.4-3c0.6-2,1.3-4.1,2.1-6.1c2.2-5.9,4.2-11.8,5.7-16.3
		c0.5-1.7,1.1-3.4,1.6-4.6c0.2-0.5,0.4-1,0.6-1.5l0.1-0.1c0.1-0.3,0.4-0.9,1.1-1.1l0.6-0.2L61.8,2C62.3,2.7,62.2,3.3,62.1,3.6z"/>
</g>
<g>
	<g>
		<path class="st0" d="M132.1,221c-1.8,0-3.2-0.9-3.2-2.6h1.9c0,0.7,0.5,1.2,1.3,1.2c0.8,0,1.3-0.4,1.3-1.1c0-1.9-4.5-0.7-4.5-3.9
			c0-1.6,1.3-2.5,3.1-2.5c1.8,0,3,0.9,3.1,2.5h-1.9c0-0.6-0.5-1-1.2-1c-0.7,0-1.2,0.3-1.2,1c0,1.7,4.5,0.8,4.5,3.8
			C135.2,219.8,134.1,221,132.1,221z"/>
		<path class="st0" d="M140.8,221c-2.5,0-4.5-1.8-4.5-4.5c0-2.6,2-4.5,4.5-4.5c2.5,0,4.5,1.9,4.5,4.5
			C145.2,219.2,143.2,221,140.8,221z M140.8,219.5c1.6,0,2.7-1.1,2.7-2.9c0-1.8-1.1-2.9-2.7-2.9c-1.6,0-2.7,1.1-2.7,2.9
			C138.1,218.3,139.2,219.5,140.8,219.5z"/>
		<path class="st0" d="M150.5,212.1c1.9,0,3.5,1,4.1,2.8h-2c-0.4-0.8-1.2-1.2-2.1-1.2c-1.5,0-2.6,1.1-2.6,2.9c0,1.8,1.1,2.9,2.6,2.9
			c0.9,0,1.7-0.4,2.1-1.3h2c-0.6,1.8-2.2,2.8-4.1,2.8c-2.5,0-4.4-1.8-4.4-4.4C146.1,214,148,212.1,150.5,212.1z"/>
		<path class="st0" d="M156.1,212.2h1.7v8.7h-1.7V212.2z"/>
		<path class="st0" d="M164.9,219.3h-3.5l-0.6,1.7h-1.8l3.1-8.7h2l3.1,8.7h-1.8L164.9,219.3z M163.2,214.3l-1.3,3.6h2.5L163.2,214.3
			z"/>
		<path class="st0" d="M170.3,212.2v7.3h2.9v1.4h-4.6v-8.7H170.3z"/>
		<path class="st0" d="M181.4,214.3c0-0.6-0.3-0.8-0.8-0.8c-0.5,0-0.8,0.3-0.8,0.7c0,0.4,0.3,0.8,0.8,1.4l2.2,2.2c0,0,0-0.1,0.1-0.1
			l0.7-1.2h1.8l-0.9,1.5c-0.2,0.3-0.4,0.6-0.5,0.9l2.1,2.1H184L183,220c-0.8,0.7-1.8,1.1-3,1.1c-1.9,0-3.2-1-3.2-2.7
			c0-1.1,0.6-2.1,1.9-2.7c-0.5-0.6-0.6-1-0.6-1.6c0-1.2,1-2.1,2.6-2.1c1.6,0,2.5,1,2.4,2.2H181.4z M181.9,218.9l-2.1-2.1
			c-0.8,0.4-1.2,0.9-1.2,1.5c0,0.7,0.6,1.3,1.5,1.3C180.8,219.7,181.4,219.4,181.9,218.9z"/>
		<path class="st0" d="M126.1,236c-1.8,0-3.2-0.9-3.2-2.6h1.9c0,0.7,0.5,1.2,1.3,1.2c0.8,0,1.3-0.4,1.3-1.1c0-1.9-4.5-0.7-4.5-3.9
			c0-1.6,1.3-2.5,3.1-2.5c1.8,0,3,0.9,3.1,2.5h-1.9c0-0.6-0.5-1-1.2-1c-0.7,0-1.2,0.3-1.2,1c0,1.7,4.5,0.8,4.5,3.8
			C129.2,234.8,128.1,236,126.1,236z"/>
		<path class="st0" d="M134.8,236c-2.5,0-4.5-1.8-4.5-4.5c0-2.6,2-4.5,4.5-4.5c2.5,0,4.5,1.8,4.5,4.5
			C139.2,234.2,137.2,236,134.8,236z M134.8,234.5c1.6,0,2.7-1.1,2.7-2.9c0-1.8-1.1-2.9-2.7-2.9c-1.6,0-2.7,1.1-2.7,2.9
			C132.1,233.3,133.2,234.5,134.8,234.5z"/>
		<path class="st0" d="M142.3,227.2v7.3h2.9v1.4h-4.6v-8.7H142.3z"/>
		<path class="st0" d="M146.3,227.2h1.7v8.7h-1.7V227.2z"/>
		<path class="st0" d="M157.4,231.6c0,2.6-1.8,4.3-4.6,4.3h-3v-8.7h3C155.6,227.2,157.4,229,157.4,231.6z M152.7,234.5
			c1.8,0,2.9-1,2.9-2.9c0-1.8-1-2.9-2.9-2.9h-1.2v5.8H152.7z"/>
		<path class="st0" d="M164,234.3h-3.5L160,236h-1.8l3.1-8.7h2l3.1,8.7h-1.8L164,234.3z M162.3,229.2l-1.3,3.6h2.5L162.3,229.2z"/>
		<path class="st0" d="M170.9,227.2c2.1,0,3.1,1.2,3.1,2.7c0,1.1-0.6,2.1-2,2.5l2.1,3.5h-2l-1.9-3.4h-0.8v3.4h-1.7v-8.7H170.9z
			 M170.8,228.7h-1.5v2.6h1.5c1,0,1.4-0.5,1.4-1.3C172.3,229.2,171.8,228.7,170.8,228.7z"/>
		<path class="st0" d="M175.6,227.2h1.7v8.7h-1.7V227.2z"/>
		<path class="st0" d="M178.7,227.2h6.4v1.4h-2.3v7.3H181v-7.3h-2.3V227.2z"/>
		<path class="st0" d="M191.4,228.6h-3.3v2.2h2.9v1.4h-2.9v2.3h3.3v1.4h-5.1v-8.7h5.1V228.6z M190.2,224v1.4l-2.9,1.3v-1.3
			L190.2,224z"/>
	</g>
</g>
<g>
	<g>
		<path class="st1" d="M133.3,107.6h-3.5l-0.6,1.7h-1.8l3.1-8.7h2l3.1,8.7h-1.8L133.3,107.6z M131.6,102.6l-1.3,3.6h2.5L131.6,102.6
			z"/>
		<path class="st1" d="M136.9,100.5h1.7v8.7h-1.7V100.5z"/>
		<path class="st1" d="M143.7,100.5c2.1,0,3.1,1.2,3.1,2.7c0,1.1-0.6,2.1-2,2.5l2.1,3.5h-2l-1.9-3.4h-0.8v3.4h-1.7v-8.7H143.7z
			 M143.6,102h-1.5v2.6h1.5c1,0,1.4-0.5,1.4-1.3C145,102.5,144.6,102,143.6,102z"/>
		<path class="st1" d="M155.5,102.6c0-0.6-0.3-0.8-0.8-0.8c-0.5,0-0.8,0.3-0.8,0.7c0,0.4,0.3,0.8,0.8,1.4l2.2,2.2c0,0,0-0.1,0.1-0.1
			l0.7-1.2h1.8l-0.9,1.5c-0.2,0.3-0.3,0.6-0.5,0.9l2.1,2.1h-2.1l-0.9-0.9c-0.8,0.7-1.8,1.1-3,1.1c-1.9,0-3.2-1-3.2-2.7
			c0-1.1,0.6-2.1,1.9-2.7c-0.5-0.6-0.6-1-0.6-1.6c0-1.2,1-2.1,2.6-2.1c1.6,0,2.5,1,2.4,2.2H155.5z M156,107.2l-2.1-2.1
			c-0.8,0.4-1.2,0.9-1.2,1.5c0,0.7,0.6,1.3,1.5,1.3C154.9,108,155.5,107.7,156,107.2z"/>
		<path class="st1" d="M169.1,102h-3.3v2.2h2.9v1.4h-2.9v2.3h3.3v1.4h-5.1v-8.7h5.1V102z"/>
		<path class="st1" d="M176.1,107.6h-3.5l-0.6,1.7h-1.8l3.1-8.7h2l3.1,8.7h-1.8L176.1,107.6z M174.3,102.6l-1.3,3.6h2.5L174.3,102.6
			z"/>
		<path class="st1" d="M179.6,100.5h1.7v5.4c0,1.2,0.6,1.8,1.8,1.8c1.1,0,1.8-0.6,1.8-1.8v-5.4h1.8v5.4c0,2.3-1.6,3.4-3.6,3.4
			c-1.9,0-3.5-1.1-3.5-3.4V100.5z"/>
	</g>
</g>
<g>
	<g>
		<path class="st2" d="M5.6,221H1.8v-8.7h3.6c1.8,0,2.8,0.9,2.8,2.2c0,1.1-0.6,1.7-1.5,2c1,0.2,1.7,1.1,1.7,2.1
			C8.5,220,7.4,221,5.6,221z M5.2,213.7H3.6v2.2h1.6c0.8,0,1.3-0.4,1.3-1.1C6.5,214.1,6,213.7,5.2,213.7z M5.3,217.2H3.6v2.3h1.8
			c0.8,0,1.3-0.4,1.3-1.1C6.7,217.6,6.2,217.2,5.3,217.2z"/>
		<path class="st2" d="M9.9,212.2h1.7v8.7H9.9V212.2z"/>
		<path class="st2" d="M17.4,221c-2.5,0-4.5-1.8-4.5-4.5c0-2.6,2-4.5,4.5-4.5c2.5,0,4.5,1.9,4.5,4.5C21.8,219.2,19.9,221,17.4,221z
			 M17.4,219.5c1.6,0,2.7-1.1,2.7-2.9c0-1.8-1.1-2.9-2.7-2.9c-1.6,0-2.7,1.1-2.7,2.9C14.7,218.3,15.8,219.5,17.4,219.5z"/>
		<path class="st2" d="M30.8,216.6c0,2.6-1.8,4.3-4.6,4.3h-3v-8.7h3C29,212.2,30.8,214,30.8,216.6z M26.1,219.5
			c1.8,0,2.9-1.1,2.9-2.9s-1-2.9-2.9-2.9h-1.2v5.8H26.1z"/>
		<path class="st2" d="M32.1,212.2h1.7v8.7h-1.7V212.2z"/>
		<path class="st2" d="M41.6,212.2h1.9l-3.2,8.7h-2.1l-3.2-8.7h1.9l2.4,6.9L41.6,212.2z"/>
		<path class="st2" d="M49.5,213.7h-3.3v2.2h2.9v1.4h-2.9v2.3h3.3v1.4h-5.1v-8.7h5.1V213.7z"/>
		<path class="st2" d="M54.4,212.2c2.1,0,3.1,1.2,3.1,2.7c0,1.1-0.6,2.1-2,2.5l2.1,3.5h-2l-1.9-3.4h-0.8v3.4h-1.7v-8.7H54.4z
			 M54.3,213.7h-1.5v2.6h1.5c1,0,1.4-0.5,1.4-1.3C55.7,214.2,55.3,213.7,54.3,213.7z"/>
		<path class="st2" d="M62.1,221c-1.8,0-3.2-0.9-3.2-2.6h1.9c0,0.7,0.5,1.2,1.3,1.2c0.8,0,1.3-0.4,1.3-1.1c0-1.9-4.5-0.7-4.5-3.9
			c0-1.6,1.3-2.5,3.1-2.5c1.8,0,3,0.9,3.1,2.5h-1.9c0-0.6-0.5-1-1.2-1c-0.7,0-1.2,0.3-1.2,1c0,1.7,4.5,0.8,4.5,3.8
			C65.2,219.8,64.1,221,62.1,221z"/>
		<path class="st2" d="M66.7,212.2h1.7v8.7h-1.7V212.2z"/>
		<path class="st2" d="M69.7,212.2h6.4v1.4h-2.3v7.3h-1.7v-7.3h-2.3V212.2z"/>
		<path class="st2" d="M82.5,213.7h-3.3v2.2h2.9v1.4h-2.9v2.3h3.3v1.4h-5.1v-8.7h5.1V213.7z M81.2,209v1.4l-2.9,1.3v-1.2L81.2,209z"
			/>
		<path class="st2" d="M16.4,229.3c0-0.6-0.3-0.9-0.8-0.9c-0.5,0-0.8,0.3-0.8,0.7s0.3,0.8,0.8,1.4l2.2,2.2c0,0,0-0.1,0.1-0.1
			l0.7-1.2h1.8l-0.9,1.5c-0.2,0.3-0.3,0.6-0.5,0.9l2.1,2.1H19L18,235c-0.8,0.7-1.8,1.1-3,1.1c-1.9,0-3.2-1-3.2-2.7
			c0-1.1,0.6-2.1,1.9-2.7c-0.5-0.6-0.6-1-0.6-1.6c0-1.2,1-2.1,2.6-2.1c1.6,0,2.5,1,2.4,2.2H16.4z M16.9,233.9l-2.1-2.1
			c-0.8,0.4-1.2,0.9-1.2,1.5c0,0.7,0.6,1.3,1.5,1.3C15.8,234.7,16.4,234.4,16.9,233.9z"/>
		<path class="st2" d="M32.4,227.2v8.7h-1.7l-4-6v6h-1.7v-8.7h1.7l4,6v-6H32.4z"/>
		<path class="st2" d="M39.5,234.3H36l-0.6,1.7h-1.8l3.1-8.7h2l3.1,8.7H40L39.5,234.3z M37.7,229.2l-1.3,3.6H39L37.7,229.2z"/>
		<path class="st2" d="M42.6,227.2H49v1.4h-2.3v7.3h-1.7v-7.3h-2.3V227.2z"/>
		<path class="st2" d="M50.3,227.2H52v5.4c0,1.2,0.6,1.8,1.8,1.8c1.1,0,1.8-0.6,1.8-1.8v-5.4h1.8v5.4c0,2.3-1.6,3.4-3.6,3.4
			c-1.9,0-3.5-1.1-3.5-3.4V227.2z"/>
		<path class="st2" d="M62.3,227.2c2.1,0,3.1,1.2,3.1,2.7c0,1.1-0.6,2.1-2,2.5l2.1,3.5h-2l-1.9-3.4h-0.8v3.4H59v-8.7H62.3z
			 M62.2,228.7h-1.5v2.6h1.5c1,0,1.4-0.5,1.4-1.3C63.6,229.2,63.2,228.7,62.2,228.7z"/>
		<path class="st2" d="M72.1,228.6h-3.3v2.2h2.9v1.4h-2.9v2.3h3.3v1.4H67v-8.7h5.1V228.6z"/>
	</g>
</g>
<g>
	<g>
		<path class="st3" d="M24.4,102h-3.3v2.2H24v1.4h-2.9v2.3h3.3v1.4h-5.1v-8.7h5.1V102z M23.1,97.3v1.4l-2.9,1.3v-1.2L23.1,97.3z"/>
		<path class="st3" d="M33.4,100.5v8.7h-1.7l-4-6v6h-1.7v-8.7h1.7l4,6v-6H33.4z"/>
		<path class="st3" d="M40.2,102h-3.3v2.2h2.9v1.4h-2.9v2.3h3.3v1.4h-5.1v-8.7h5.1V102z"/>
		<path class="st3" d="M45.1,100.5c2.1,0,3.1,1.2,3.1,2.7c0,1.1-0.6,2.1-2,2.5l2.1,3.5h-2l-1.9-3.4h-0.8v3.4h-1.7v-8.7H45.1z
			 M45,102h-1.5v2.6H45c1,0,1.4-0.5,1.4-1.3C46.4,102.5,46,102,45,102z"/>
		<path class="st3" d="M57.9,103.2h-2c-0.4-0.7-1.1-1.1-2-1.1c-1.6,0-2.6,1.1-2.6,2.8c0,1.8,1.1,2.9,2.7,2.9c1.3,0,2.2-0.8,2.5-2h-3
			v-1.3h4.7v1.5c-0.3,1.8-1.9,3.4-4.3,3.4c-2.5,0-4.5-1.8-4.5-4.4c0-2.6,1.9-4.5,4.4-4.5C55.8,100.4,57.3,101.4,57.9,103.2z"/>
		<path class="st3" d="M59.4,100.5h1.7v8.7h-1.7V100.5z"/>
		<path class="st3" d="M67.9,102h-3.3v2.2h2.9v1.4h-2.9v2.3h3.3v1.4h-5.1v-8.7h5.1V102z"/>
	</g>
</g>
</svg>
