<?xml version="1.0" encoding="utf-8"?>
<!-- Generator: Adobe Illustrator 25.3.0, SVG Export Plug-In . SVG Version: 6.00 Build 0)  -->
<svg version="1.1" id="Calque_1" xmlns="http://www.w3.org/2000/svg" xmlns:xlink="http://www.w3.org/1999/xlink" x="0px" y="0px"
	 viewBox="0 0 33 33" style="enable-background:new 0 0 33 33;" xml:space="preserve">
<style type="text/css">
	.st0{fill:#FFFFFF;}
</style>
<path class="st0" d="M16.5,0.1C7.4,0.1,0,7.4,0,16.5c0,7.8,5.5,14.4,12.9,16.1V20.2h-2.7v-4h2.7v-1.4c0-1.5,0.2-2.8,0.5-3.5
	c0.3-0.8,0.9-1.4,1.8-1.9c0.9-0.5,2-0.7,3.4-0.7c1.4,0,2.8,0.1,4.1,0.6l-0.6,3.5c-0.8-0.2-1.6-0.3-2.2-0.3c-0.7,0-1.2,0.2-1.5,0.5
	C18,13.4,17.9,14,17.9,15v1.3h3.6v4h-3.6v12.7c8.4-0.7,15-7.8,15-16.4C32.9,7.4,25.6,0.1,16.5,0.1z"/>
</svg>
