<?xml version="1.0" encoding="utf-8"?>
<!-- Generator: Adobe Illustrator 25.1.0, SVG Export Plug-In . SVG Version: 6.00 Build 0)  -->
<svg version="1.1" id="Calque_1" xmlns="http://www.w3.org/2000/svg" xmlns:xlink="http://www.w3.org/1999/xlink" x="0px" y="0px"
	 viewBox="0 0 150.5 153.8" style="enable-background:new 0 0 150.5 153.8;" xml:space="preserve">
<style type="text/css">
	.st0{fill:#00B9E9;}
	.st1{fill:#FFFFFF;}
</style>
<path class="st0" d="M74.9,21c-31.4,0-57,25.6-57,57s25.6,57,57,57s57-25.6,57-57S106.3,21,74.9,21z"/>
<g>
	<path class="st1" d="M113.3,67.7c-1.1-0.4-2.1-0.8-2.9-1c-0.4-0.1-0.7,0-0.9,0c-1.2,0.5-2.3,0.9-3.2,1.3c-0.5-0.6-1.1-1-1.1-1.3
		c0.3-2.9,0.2-5.8,1.1-8.5c1.2-3.6,3.3-6.9,5.3-11c-1.6,1.1-3.1,1.7-3.7,2.8c-2.4,4.1-6.2,7.5-6.6,12.8c-0.1,1.6-1.4,3-2.5,5.3
		c-1.7-3.1-2.9-5.3-4.3-7.8c-6.3-1.1-12.8-2.3-20.3-3.6c2.4,2.9,5.3,3.1,7.7,4.3c2,1,4.4,1.9,5.6,3.6c2.2,3.1,3.6,6.7,5.4,10
		c-4.6,6.6-10.2,8.8-15.7,5.9c-1,0.9-2,1.8-3,2.8c2.2,0.4,4.2,0.6,6,1.2c8.4,2.7,16.1,1.7,22.6-4.5c3.7-3.5,7-7.6,10.4-11.4
		c0.1-0.1,0.3-0.3,0.3-0.4C113.5,67.9,113.4,67.8,113.3,67.7z"/>
</g>
<path class="st1" d="M46.2,96.9c1.2,2,2.2,3.6,3.3,5.4c-0.5,1.1-1.1,2.3-1.8,3.7c-1,0.2-2.1,0.6-3.3,0.7c-1.2,0.1-2.3,0-3.5-0.1
	c-0.6,1.1-1,2.1-1.7,3.5c3.5-0.7,6.6-1.5,9.7-1.9c7.3-0.9,11.2-5.5,14-12.7c-2,0.7-3.4,1.1-4.8,1.6C57,92,57.2,87.1,61.6,83.1
	c-4.4,3.8-7.1,8.3-7.6,14.6c-1.5-1.6-2.5-2.7-3.6-3.8c-4.1-0.8-8.1-1.6-12.1-2.3c-0.1,0.2-0.2,0.4-0.3,0.7
	C40.8,93.8,43.5,95.3,46.2,96.9z"/>
</svg>
