<?xml version="1.0" encoding="utf-8"?>
<!-- Generator: Adobe Illustrator 25.1.0, SVG Export Plug-In . SVG Version: 6.00 Build 0)  -->
<svg version="1.1" id="Calque_1" xmlns="http://www.w3.org/2000/svg" xmlns:xlink="http://www.w3.org/1999/xlink" x="0px" y="0px"
	 viewBox="0 0 184.7 187.4" style="enable-background:new 0 0 184.7 187.4;" xml:space="preserve">
<style type="text/css">
	.st0{fill:#FFFFFF;}
	.st1{fill:#008397;}
</style>
<g>
	<polygon class="st0" points="149.7,52.5 152,50.6 150.7,47.3 149.3,46.3 146.7,45.2 145.1,44.2 144.7,43.4 145.1,43.1 148.3,43.4 
		153.7,44.7 154.7,47 155.5,45.8 155.6,44 157.9,40.9 158.4,40.2 160,39.4 160.2,40 159.2,42 158,44.4 157.7,45.7 157.9,47.3 
		159.2,46.9 160.3,47.3 161,47.9 160.2,49 156.1,53.5 153.4,55.1 151.2,55.5 	"/>
	<circle class="st0" cx="91.8" cy="94.2" r="72.2"/>
	<g>
		<path d="M65.1,69.7C65.1,69.7,65.1,69.7,65.1,69.7C65.1,69.7,65.1,69.7,65.1,69.7C65.1,69.7,65.1,69.7,65.1,69.7L65.1,69.7z"/>
	</g>
	<path class="st1" d="M137.3,84.9c-0.1,0-0.2,0.2-0.2,0.3c0,0.1,0.1,0.2,0.2,0.3c0.3,0.2,0.6-0.3,0.3-0.5
		C137.6,84.9,137.5,84.8,137.3,84.9z"/>
	<circle class="st1" cx="102.6" cy="46.8" r="1.4"/>
	<g>
		<path class="st1" d="M102.6,44.6c0.4,0,0.8,0.1,1.1,0.3c0-0.1,0.1-0.2,0.1-0.3c0.4-1,0.7-2.1,1.1-3.5c0.1-0.5,0.3-1.1,0.4-1.6
			c0.2-0.7,0.4-1.5,0.6-2.2c0.4-1.4,0.7-2.7,1.1-4.1c0.3-1,0.5-1.9,0.8-2.9c0.1-0.3,0.2-0.6,0.2-1l0.1-0.3c0-0.1,0.1-0.4-0.1-0.7
			l-0.2-0.2l-0.3,0.1c-0.4,0.1-0.5,0.4-0.5,0.5l0,0c-0.1,0.2-0.2,0.4-0.3,0.7c-0.2,0.6-0.5,1.3-0.7,2.1c-0.7,2.1-1.6,4.8-2.6,7.4
			c-0.4,0.9-0.7,1.9-1,2.8c-0.2,0.5-0.2,0.9-0.2,1.3l0,0.1c0,0.2,0,0.4,0,0.5l0,0.1c0,0.3-0.1,0.6-0.2,0.9
			C102.2,44.7,102.4,44.6,102.6,44.6z"/>
		<path class="st1" d="M100.5,46.8c0-0.6,0.2-1.1,0.6-1.5c-0.4,0.1-0.8,0.2-1.2,0.2c-0.2,0-0.5,0.1-0.7,0.2c-1.1,0.3-2.1,0.6-3,0.9
			c-1.6,0.5-3.3,1.1-5.5,1.7c-1,0.3-2,0.6-3,0.9c-0.6,0.2-1.2,0.3-1.8,0.5c-0.2,0.1-0.5,0.1-0.7,0.2c-0.1,0-0.2,0.1-0.3,0.2
			c0,0,0,0,0,0l-0.7,0.6l0.8,0.3c0,0,0,0,0,0c0.1,0,0.2,0.1,0.3,0.1l0.1,0c0.2,0,0.3,0,0.5,0c0.5-0.1,1-0.2,1.4-0.3
			c0.7-0.2,1.4-0.3,2.1-0.5c1-0.2,2-0.5,3-0.7c0.8-0.2,1.6-0.3,2.3-0.5c0.4-0.1,0.9-0.2,1.3-0.3c0.4-0.1,0.9-0.2,1.3-0.3
			c0.4-0.1,0.9-0.2,1.3-0.3c0.6-0.1,1.2-0.4,1.7-0.7C100.5,47.3,100.5,47.1,100.5,46.8z"/>
		<path class="st1" d="M115.1,58.4L115.1,58.4c0-0.1,0-0.2-0.1-0.4c-0.1-0.2-0.2-0.3-0.3-0.5c-0.2-0.3-0.4-0.5-0.6-0.7
			c-1.1-1.2-2.1-2.4-3.2-3.6c-1-1.2-2.1-2.4-3.2-3.8c-0.4-0.5-0.8-0.9-1.1-1.3l-0.4-0.4c-0.4-0.5-0.9-0.9-1.4-1.1c0,0,0,0,0,0
			c0,0.1,0,0.2,0,0.3c0,0.7-0.4,1.4-0.9,1.8c0.3,0.4,0.7,0.8,1.1,1.2c0.2,0.2,0.5,0.5,0.7,0.7l0.4,0.3c0.2,0.2,0.4,0.4,0.6,0.5
			c0.4,0.4,0.8,0.8,1.2,1.2c0.8,0.8,1.6,1.6,2.4,2.5l0.7,0.7c0.2,0.2,0.5,0.5,0.7,0.8c0.3,0.3,0.6,0.6,0.9,0.9
			c0.4,0.4,0.9,0.9,1.3,1.3l0,0c0.1,0.1,0.3,0.3,0.6,0.4l0.6,0.1L115.1,58.4z"/>
	</g>
	<path class="st1" d="M152.9,55.5c1.5-0.4,2.9-1.1,4.1-2.3c1.1-1,2-2.1,3-3.2c0.4-0.4,0.8-0.9,1.2-1.3c0.1-0.1,0.3-0.4,0.3-0.7
		c0-0.2,0-0.6-0.4-0.9c-0.1-0.1-0.2-0.1-0.2-0.1c-0.1,0-0.3-0.1-0.4-0.1c-0.3-0.1-0.5-0.2-0.8-0.3c-0.1,0-0.2,0-0.4,0
		c-0.2,0-0.4,0.1-0.5,0.1l-0.4,0.2c0-0.1,0-0.1,0-0.2c0.1-0.8,0.1-1.6,0.3-2.2c0.3-0.9,0.8-1.8,1.3-2.8c0.2-0.5,0.5-0.9,0.7-1.4
		c0.2-0.4,0.1-0.8-0.2-1.1c-0.2-0.1-0.4-0.2-0.6-0.2c-0.2,0-0.4,0.1-0.5,0.2c-0.2,0.1-0.4,0.2-0.5,0.4c-0.4,0.3-0.9,0.5-1.1,1
		c-0.2,0.4-0.5,0.8-0.9,1.3c-0.8,1.1-1.7,2.4-1.8,4.1c0,0.1,0,0.2-0.1,0.3l-0.9-1.6c-0.1-0.2-0.4-0.4-0.6-0.5l-4.4-0.8l-3.5-0.6
		c-0.1,0-0.1,0-0.2,0c-0.3,0-0.6,0.2-0.8,0.4c-0.2,0.3-0.2,0.7,0.1,1c0.8,1,1.8,1.3,2.5,1.6c0.3,0.1,0.5,0.2,0.8,0.3
		c0.1,0.1,0.3,0.1,0.4,0.2c0.6,0.3,1.2,0.6,1.4,0.9c0.6,0.8,1,1.7,1.4,2.6c0.1,0.2,0.2,0.5,0.3,0.7c-0.3,0.4-0.8,0.9-1.2,1.2
		c-2.2-3-4.6-5.9-7.3-8.6c-13.6-13.6-31.8-21.1-51.1-21.1s-37.4,7.5-51.1,21.1C27.2,56.7,19.7,74.9,19.7,94.1s7.5,37.4,21.1,51.1
		c9.4,9.4,20.9,15.9,33.4,19c0.3-0.9,0.5-2,0.7-2.6c0.1-1,0.5-2.2,0.4-3.2c-0.1-1.3-0.4-3-0.7-4.3c-0.3-1.2-0.4-2.2-0.7-3.3
		c-0.2-0.9-0.7-1.5-1-2.4c-0.1-0.4-3.1-4.9-3.1-5.1c-1.2-2.8-1.3-3.5-2.3-6.1c-1.3-3.3-3.2-9.6-4.2-13.5c-0.9-3.3-1-7.2-1.9-10.5
		c-0.9-3.4-2.6-6.2-5-8.7c-3.1-3.1-6-6.4-9-9.7c-0.9-1-1.7-2-2.7-3.1c0,0,0,0.1,0.1,0.2c-0.1-0.1-0.2-0.3-0.3-0.5
		c-1.5-1.3-7.1-3.5-7-11.4c0,0-0.3-1-0.5-2c-0.2,0.1-0.4,0.3-0.6,0.4c0,0,0.1,0.1,0.1,0.1c0.1,0.1,0.1,0.2,0.1,0.3
		c0,0.5,0.1,1,0.1,1.6c-0.6,0-1.2-0.3-1.6-0.8c0,0.2,0.1,0.5,0.1,0.7c-1.3-0.5-2.2-1.7-2.2-3.1c-0.1,0.2-0.1,0.3-0.2,0.5
		C32.4,76,33,74.1,34.4,73c0.1-0.1,0.1-0.1,0.2-0.2c0.2-0.2,0.4-0.3,0.3-0.5c0-0.1,0-0.1,0.1-0.1c0.1,0,0.1,0,0.1-0.1l0-0.1
		c0,0,0-0.1,0-0.1c0.6-0.3,1.1-0.4,1.4,0.4c0.1,0.2,0,0.3,0,0.6c0.1,0,0.3,0,0.4,0c-0.1,0.1-0.4,0.3-0.4,0.4
		c0.4,0.2,0.8,0.3,1.2,0.5c0.2,0.1,0.8,0.1,1,0.2c0.2,0.1,0.1,0.3,0.3,0.4c0.8,0.6,0.9,1.4,0.8,1.9c-0.1,0.3-0.2,0.5-0.4,0.6
		l0.7,1.6c0.2,0,0.4-0.1,0.6-0.1c2.3-0.5,3.4,0.4,4.5,1.9c5.8-0.4,6.6-2.9,6.6-2.9c-0.5-0.9,0.5-1.9,0.5-1.9l0.1,0.4l2.7-1.4
		c0.3,0.3,0.4,0.6,0.6,1c0.2,0.6-0.1,1.4-0.7,1.6l-1.5,0.6c-0.3,0.1-0.5,0.4-0.7,0.7c-1.1,2.7-3.4,4.3-5.3,5.1
		c2.3,3,4.3,4.8,4.3,4.8c0.9,0.9,2.4,3.4,5.3,6.2c1.3,1.2,2.4,2.5,3.8,3.7c0.8,0.7,1.7,1.3,2.6,1.8c0.9,0.4,1.9,0.6,3.1-0.1
		c0-0.5,0.1-1.2,0-1.9c-0.4-1.5-0.7-3-1.4-4.3c-3.5-6.5-2.2-3.3-4.9-10.1c-0.8-1.9-1.3-3.8-1.6-5.8c0-0.1-0.1-0.1-0.1-0.2
		c0,0,0,0,0.1,0c-1.3-2.5-2.4-4.1-5.7-8.8c-0.2-0.2-0.3-0.5-0.5-0.7c-0.7,1.5-1.3,1.8-2.7,2.8c-2.4,1.6-4.6,2.3-4.6,2.3
		c-0.5,0.8-2.8,0.9-2.8,0.9l0.3-1.3c0,0,0.3-0.6,0.7-0.9c0.4-0.3,1.2,0.5,1.2,0.5c1.3-0.8,2.5-2,3.4-3.4c2.7-3.9,2.4-7.4,2.4-7.3
		l0-0.1c0,0,0.6-0.4,1.5-0.8l-0.4-0.5c-0.3,0.1-0.6,0.2-0.6,0.2c-0.2,0.1-0.4,0.1-0.5,0c-0.1-0.1-0.3-0.2-0.3-0.5
		c-0.2-0.2-0.3-0.4-0.4-0.6c-0.1-0.1-0.1-0.3-0.2-0.4c-0.1-0.1-0.3-0.3-0.4-0.5c-0.2-0.3-0.1-0.6-0.2-0.9c0-0.1-0.1-0.1-0.2-0.3
		c-0.1-0.1,0-0.2-0.1-0.4c0,0,0,0,0,0c0-0.1,0-0.1-0.1-0.2c0-0.1,0-0.1,0-0.2c0-0.1-0.1-0.1-0.2-0.2c0-0.2-0.1-0.4-0.1-0.6
		c0-0.1-0.1-0.1-0.1-0.2c0-0.2-0.1-0.2-0.1-0.4c-0.1-0.5-1-1.5-0.5-1.1c-0.3-0.3,0.1,0.1-0.1-0.2c0.3,0.3-0.3-0.3,0.3,0.2
		c0.7,0.1,0.1,0-0.1-0.3c0.5,0.3,0,0,0-0.3c1,0.9,3.7-1.9,5.5-0.1c0.1,0,0.2,0.1,0.3,0.1c0,0,0,0,0,0c0.2,0.1,0.4,0.3,0.5,0.5
		c0,0-0.1-0.1-0.1-0.1c0.1,0.1,0.1,0.2,0.2,0.2c0,0,0,0,0,0c0,0,0.1,0.1,0.1,0.1c0.1,0.1,0.2,0.2,0.3,0.3c-0.2,0.4,0.2,0.8-0.1,1
		c0,0.1,0,0.2,0,0.3c0,0-0.1,0-0.1,0C54,56.4,54,56.7,54,57c-0.1,0.2-0.2,0.3-0.2,0.5c0.1,0.5,0.1,0.9,0.2,1.4l0,0l1.2,1
		c1-0.2,1.4-0.2,2.6-0.2c0,0,2.1,0.4,3.8,3.2c1.3,1.5,4.4,7.8,3.9,9.5c-0.1,0.2-0.2,0.4-0.3,0.6c1.8,1.9,1.1,1.4,2.7,7.2
		c1.4,3.2,2.9,6.3,4.3,9.4c0.6,1.2,1.5,2.3,2.2,3.3c1.4,0,2.6,0.2,3.4-1.2c-0.1-0.7,0-1.6-0.2-2.4c-0.5-2.5-1.1-5-1.8-7.5
		c-2-7.5-4-14.9-6.1-22.3c-0.5-1.7-1.8-6.5-2.4-8.1c-1-2.6-0.8-5,0.6-5.6c1-0.4,2.1-0.5,3.2-0.3c0,0-0.1,0-0.1-0.1
		c-0.3-0.1-0.5-0.2-0.8-0.3c-0.8-0.2-1.6-0.3-2.4-0.2c-0.2,0-0.4,0.1-0.5-0.1c-0.1-0.2,0-0.4,0.2-0.5c0.1-0.1,0.3-0.3,0.3-0.5
		c-0.5-0.1-1-0.5-1.3-0.9c-0.3-0.4-0.5-0.8-0.5-1.3c-0.1-0.1-0.1-0.3-0.2-0.4c-0.7,0.6-1.1,1.4-1.3,2.3c-0.2,0.9-0.2,1.8-0.4,2.7
		c-0.3,1.3-0.8,2.5-1.7,3.4c-0.9,0.9-2.2,1.4-3.5,1.2c-0.2,0-0.4-0.1-0.5-0.1c-1-0.4-1.8-1.3-2-2.4c0.3,0.6,1.3,0.7,1.9,0.4
		c0.6-0.3,1-1,1.4-1.6c1-1.7,1.9-3.4,3.1-4.9c1.2-1.5,2.6-2.9,4.4-3.7c1.4-0.6,3-0.9,4.1-2c-0.2-0.3-0.5-0.7-0.6-1c0,0,0,0,0-0.1
		c-0.1,0.1-0.2,0.2-0.3,0.3C69.8,36,69.4,36,69,35.9c-0.4-0.1-0.7-0.2-1.1-0.2c0.6-0.7,1.5-1.2,2.4-1.4c0,0,0,0,0,0
		c0-0.1,0.1-0.2,0.1-0.2c-0.2,0-0.3,0-0.5,0c-0.3-0.1-0.7-0.4-1-0.4c0.7-0.4,1.5-0.5,2.3-0.4c0.1-0.1,0.2-0.1,0.2-0.2
		c0.3-0.2,0.6-0.4,0.9-0.5c0.3-0.1,0.7-0.1,1,0.1c0.2,0.2,0.3,0.4,0.4,0.6c0.1,0.2,0.1,0.5,0.1,0.7c0,0.1,0,0.2,0,0.3
		c0,0.2,0,0.4,0,0.6c1.1-0.1,1.2,0,2.1-0.5c0.1,0,0.2-0.1,0.3-0.1c0.1-0.1,0.3-0.2,0.5-0.1c0.1,0.1,0.1,0.2,0.1,0.3
		c-0.1,0.2-0.3,0.3-0.4,0.5c0,0-0.1,0.1-0.1,0.1c-0.2,0.1-0.4,0.2-0.6,0.3c-0.2,0.1-0.6,0.3-0.6,0.3c-0.4,0.1-0.8,0.3-1.2,0.5
		c0,0.1,0,0.2,0,0.3c1.3-0.2,2.6-0.6,3.8-1.2c0,0,0.1-0.1,0.1-0.1c0.2-0.1,0.4-0.2,0.5-0.1c0.1,0.1,0.2,0.2,0.1,0.4
		c-0.1,0.3-0.3,0.4-0.5,0.5c0,0-0.1,0-0.1,0.1c-0.2,0.1-0.5,0.3-0.7,0.4c-0.6,0.3-1.2,0.6-1.9,0.9c-0.6,0.2-1.2,0.4-1.8,0.7
		c-0.4,1-1.1,1.8-1.8,2.5c-0.1,0.1-0.2,0.2-0.3,0.3c0.3,0,0.5,0.1,0.8,0.1c0.1,0,0.3,0,0.4,0.1c0.1,0,0.3,0.1,0.4,0.2
		c0.2,0.2,0.3,0.5,0.1,0.7c-0.3-0.1-0.6-0.1-0.9-0.2c-0.6-0.1-1.2-0.2-1.8-0.2c0,0.1-0.1,0.3-0.1,0.4c-0.3,0.8-0.8,1.5-1.4,2.1
		c0.8,0,1.7,0.2,2.5,0.5c0.1,0,0.1,0,0.2,0.1c0.2,0.1,0.3,0.2,0.4,0.4c0.1,0.2,0.1,0.4,0,0.6c0.2,0.1,0.4,0.2,0.5,0.3
		c0.9,0.7,4.4,9.5,4.8,11.1c0.5,2.4,1.4,4.8,2.2,7.2c0.1,0.4,0.3,0.8,0.5,1.2c2.5,5.9,4,12.2,5.5,18.4c0.2,1,0.6,1.9,0.9,2.9
		c0.4,1.1,1,2,2,2.6c2,0,2.9-0.5,3.2-2.2c0.4-2.1,1.3-4,1.6-6.4c0,0,1.4-8.6,2.8-15.1c1-5.1,4.7-15,5.5-17.3
		c-0.3-0.2-0.5-0.4-0.7-0.7c-0.3,0.7-4.5,12.1-5.7,17.8c0,0.2-0.1,0.4-0.1,0.5c0,0,0,0,0,0c-4,0-7.3-3.1-7.6-7
		c-4-2.1-6.6-6.3-6.6-11.2c0-3,1.1-5.8,2.8-8c-0.1-0.5-0.2-0.9-0.2-1.4c0-2.7,2-4.9,4.6-5.3c3-4.8,8.4-7.9,14.4-7.9
		c3.6,0,6.9,1.1,9.6,3c0.5-0.1,1.1-0.2,1.7-0.2c4.2,0,7.6,3.4,7.6,7.6c0,0.2,0,0.4,0,0.5c2.7,2.6,4.3,6.3,4.3,10.3
		c0,5.6-3.1,10.4-7.7,12.9c-1.5,4.7-5.9,8.1-11,8.1c-1,0-1.9-0.1-2.8-0.3c0.6-8.1,0.1-18.6,0-18.8l0-0.1c-0.2,0.2-0.5,0.4-0.9,0.5
		c0.1,1.9,0.5,11.2-0.1,18.5c-0.3,4.1-0.4,8.8-0.6,10.3c-0.1,1.2-0.2,2.4-0.4,3.6c0,0.2,0,0.2,0,0.2c-0.1,0.8-0.2,1.7-0.3,2.5
		c-0.4,6,0.9,11.7,3.9,17c0.4,0.8,1,1.4,1.6,2.1c1.4,1.4,3.3,1.5,4.7,0.1c0.6-0.6,1.1-1.2,1.5-1.9c1.1-1.8,2.3-3.6,3.3-5.5
		c1.4-2.7,4.6-5.6,7.1-7.3c0.3-0.2,0.5-0.5,0.6-0.6c-0.8-1.7-1.5-3.2-2.5-5.2c-1.9-2.2-5.3-3.4-7.5-6.1c0.1-0.1,0.1-0.3,0.2-0.4
		c1.4,0.5,2.8,1.1,4.3,1.6c1.4,0.5,2.7,0.9,4.1,1.4c0.7,0.2,1.3,0.4,2,0.6c1.8,0.5,3.1,1.5,3.8,3.4c0.2,0.4,0.5,0.8,1,1.6
		c1.5-6.1,5.6-9.5,10.5-12.2c-1.4,2.3-4.2,3.2-5.5,5.5c-0.1,1.3-0.3,2.6-0.2,3.8c0.1,1.2-1.2,2.2-0.2,3.5c0.9-0.4,1.8-1.1,2.7-1.1
		c0.9,0,1.8,0.6,2.8,1.2c-1.5,0.7-2.6,1.6-3.2,3c-0.2,0.4-0.5,0.7-0.9,1c-2.9,2.2-5,5-6.8,8c-2.5,4.2-4.3,6.8-6.7,10.8
		c-1.9,3.1-3.3,6.5-5,9.7c-2.2,4.2-3.5,8.7-6.1,12.7c-0.6,0.9-1.2,2-2,2.8c-1.6,1.7-1.7,3.7-1.5,5.8c0.1,1.4-2.2,6.8-3.5,11
		c-0.4,1.3-0.7,3.1-0.8,4.4c-0.2,1.5-0.2,3.3,0.1,4.8c0.2,0.9,1.3,2.1,1.8,3c0.7,0.6,1.7,1.3,2.6,2c13.2-3,25.2-9.6,35-19.4
		c13.6-13.6,21.1-31.8,21.1-51.1C164.1,80.3,160.2,67,152.9,55.5z M132.8,66.7c-1.4,0.2-2.8,0.5-4.4,0.8c0.3-0.6,0.5-1.1,0.8-1.6
		c0.5,0,1,0.1,1.5,0c0.5,0,1-0.2,1.5-0.3c0.3-0.6,0.6-1.1,0.8-1.6c-0.5-0.8-0.9-1.6-1.5-2.4c-1.2-0.7-2.4-1.4-3.6-2.1
		c0-0.1,0.1-0.2,0.1-0.3c1.8,0.3,3.6,0.7,5.4,1c0.5,0.5,0.9,1,1.6,1.7c0.2-2.8,1.5-4.8,3.4-6.5c-2,1.8-2.1,4-1.6,6.3
		c0.7-0.2,1.3-0.4,2.2-0.7C137.8,64.2,136,66.3,132.8,66.7z M147.5,54.3c-0.7-0.2-1.5-0.3-2.3-0.5c0.4-0.4,0.8-0.7,1.2-1.1
		c1.5,0.8,3,0.6,4.4-0.4c0,0,0,0,0,0c0.3-0.2,0.6-0.5,0.9-0.8c0,0,0,0,0,0c0.1-0.1,0.3-0.3,0.4-0.4c0,0,0,0,0.1-0.1
		c0.1-0.2,0.3-0.3,0.4-0.5c0,0,0,0,0,0c-0.2-0.3-0.3-0.7-0.5-1c-0.5-1-1-2-1.6-2.9c-0.5-0.7-1.4-1-2.2-1.4c-0.9-0.5-2.1-0.6-3-1.7
		c1.1,0.2,2.1,0.4,3.1,0.6c1.3,0.2,2.6,0.5,3.9,0.7c0.3,0.1,0.6,0.1,0.9,0.2c0.5,1,1,1.8,1.7,3.1c0.2-0.3,0.3-0.6,0.5-0.9
		c0.3-0.4,0.5-0.8,0.5-1.2c0.2-2,1.6-3.4,2.6-5c0.2-0.4,0.8-0.6,1.4-1.1c-0.5,1-1,1.9-1.4,2.8c-0.3,0.5-0.5,1-0.7,1.5
		c-0.1,0.3-0.2,0.5-0.2,0.8c-0.2,0.8-0.2,1.7-0.2,2.5c0,0.1,0.2,0.3,0.4,0.5c0.1,0,0.2-0.1,0.3-0.1c0.2-0.1,0.4-0.2,0.6-0.2
		c0.1,0,0.2-0.1,0.3-0.1c0,0,0,0,0.1,0c0,0,0,0,0,0c0,0,0,0,0.1,0c0,0,0,0,0,0c0,0,0,0,0,0c0,0,0.1,0,0.1,0c0,0,0,0,0,0
		c0.2,0,0.4,0.1,0.5,0.2c0.2,0.1,0.4,0.1,0.6,0.2c0.1,0,0.1,0.1,0.1,0.1c0,0.1-0.1,0.1-0.1,0.2c-1.3,1.5-2.6,3.1-4.1,4.5
		c-0.2,0.1-0.3,0.3-0.5,0.4c-0.1,0.1-0.2,0.1-0.3,0.2c-0.1,0.1-0.1,0.1-0.2,0.2c-0.1,0.1-0.2,0.2-0.4,0.3c0,0-0.1,0.1-0.1,0.1
		c-0.1,0.1-0.3,0.2-0.4,0.3c0,0,0,0,0,0c-0.2,0.1-0.3,0.2-0.5,0.2c0,0,0,0,0,0C152,55.1,149.8,55.1,147.5,54.3z"/>
</g>
</svg>
