<?xml version="1.0" encoding="utf-8"?>
<!-- Generator: Adobe Illustrator 25.1.0, SVG Export Plug-In . SVG Version: 6.00 Build 0)  -->
<svg version="1.1" id="Calque_1" xmlns="http://www.w3.org/2000/svg" xmlns:xlink="http://www.w3.org/1999/xlink" x="0px" y="0px"
	 viewBox="0 0 453.3 229.6" style="enable-background:new 0 0 453.3 229.6;" xml:space="preserve">
<style type="text/css">
	.st0{fill:#FFFFFF;}
	.st1{fill:#008397;}
	.st2{fill:#008296;}
</style>
<g>
	<path class="st0" d="M178.5,139.7c2.6-7.4,4-15.4,4-23.8c0-14.4-4.2-27.8-11.5-39l0.6-0.2l2.4-0.9l4.7-4.8l0.6-1l-0.7-1l-1.4-0.2
		l-1,0.2v-1.4l0.7-2.4l1.9-3l-0.2-0.9l-1.4,0.6l-1.2,1.2l-1.9,3l-0.4,1.8l-0.6,0.9l-1.2-2.5l-1.1-0.3l-5.1-0.9l-2.4-0.4l-0.2,0.7
		l1,1l2.9,1.2l1.4,0.9l2,3.8l-1.5,1.5c-13.1-18.2-34.5-30.1-58.7-30.1c-39.9,0-72.2,32.3-72.2,72.2s32.3,72.2,72.2,72.2
		c21.5,0,40.8-9.4,54-24.3h238.7v-24.1H178.5z"/>
	<g>
		<path d="M83.7,91.4C83.7,91.4,83.7,91.4,83.7,91.4C83.7,91.4,83.7,91.4,83.7,91.4C83.7,91.4,83.7,91.4,83.7,91.4L83.7,91.4z"/>
	</g>
	<path class="st1" d="M155.8,106.6c-0.1,0-0.2,0.2-0.2,0.3c0,0.1,0.1,0.2,0.2,0.3c0.3,0.2,0.6-0.3,0.3-0.5
		C156.2,106.6,156,106.5,155.8,106.6z"/>
	<circle class="st1" cx="121.2" cy="68.5" r="1.4"/>
	<g>
		<path class="st1" d="M121.2,66.4c0.4,0,0.8,0.1,1.1,0.3c0-0.1,0.1-0.2,0.1-0.3c0.4-1,0.7-2.1,1.1-3.5c0.1-0.5,0.3-1.1,0.4-1.6
			c0.2-0.7,0.4-1.5,0.6-2.2c0.4-1.4,0.7-2.7,1.1-4.1c0.3-1,0.5-1.9,0.8-2.9c0.1-0.3,0.2-0.6,0.2-1l0.1-0.3c0-0.1,0.1-0.4-0.1-0.7
			l-0.2-0.2L126,50c-0.4,0.1-0.5,0.4-0.5,0.5l0,0c-0.1,0.2-0.2,0.4-0.3,0.7c-0.2,0.6-0.5,1.3-0.7,2.1c-0.7,2.1-1.6,4.8-2.6,7.4
			c-0.4,0.9-0.7,1.9-1,2.8c-0.2,0.5-0.2,0.9-0.2,1.3l0,0.1c0,0.2,0,0.4,0,0.5l0,0.1c0,0.3-0.1,0.6-0.2,0.9
			C120.7,66.4,120.9,66.4,121.2,66.4z"/>
		<path class="st1" d="M119,68.5c0-0.6,0.2-1.1,0.6-1.5c-0.4,0.1-0.8,0.2-1.2,0.2c-0.2,0-0.5,0.1-0.7,0.2c-1.1,0.3-2.1,0.6-3,0.9
			c-1.6,0.5-3.3,1.1-5.5,1.7c-1,0.3-2,0.6-3,0.9c-0.6,0.2-1.2,0.3-1.8,0.5c-0.2,0.1-0.5,0.1-0.7,0.2c-0.1,0-0.2,0.1-0.3,0.2
			c0,0,0,0,0,0l-0.7,0.6l0.8,0.3c0,0,0,0,0,0c0.1,0,0.2,0.1,0.3,0.1l0.1,0c0.2,0,0.3,0,0.5,0c0.5-0.1,1-0.2,1.4-0.3
			c0.7-0.2,1.4-0.3,2.1-0.5c1-0.2,2-0.5,3-0.7c0.8-0.2,1.6-0.3,2.3-0.5c0.4-0.1,0.9-0.2,1.3-0.3c0.4-0.1,0.9-0.2,1.3-0.3
			c0.4-0.1,0.9-0.2,1.3-0.3c0.6-0.1,1.2-0.4,1.7-0.7C119.1,69,119,68.8,119,68.5z"/>
		<path class="st1" d="M133.6,80.1L133.6,80.1c0-0.1,0-0.2-0.1-0.4c-0.1-0.2-0.2-0.3-0.3-0.5c-0.2-0.3-0.4-0.5-0.6-0.7
			c-1.1-1.2-2.1-2.4-3.2-3.6c-1-1.2-2.1-2.4-3.2-3.8c-0.4-0.5-0.8-0.9-1.1-1.3l-0.4-0.4c-0.4-0.5-0.9-0.9-1.4-1.1c0,0,0,0,0,0
			c0,0.1,0,0.2,0,0.3c0,0.7-0.4,1.4-0.9,1.8c0.3,0.4,0.7,0.8,1.1,1.2c0.2,0.2,0.5,0.5,0.7,0.7l0.4,0.3c0.2,0.2,0.4,0.4,0.6,0.5
			c0.4,0.4,0.8,0.8,1.2,1.2c0.8,0.8,1.6,1.6,2.4,2.5l0.7,0.7c0.2,0.2,0.5,0.5,0.7,0.8c0.3,0.3,0.6,0.6,0.9,0.9
			c0.4,0.4,0.9,0.9,1.3,1.3l0,0c0.1,0.1,0.3,0.3,0.6,0.4l0.6,0.1L133.6,80.1z"/>
	</g>
	<g>
		<path class="st2" d="M273.8,143.3c-3.7,0-6.4,2.6-6.4,6.9s2.7,6.9,6.4,6.9c3.7,0,6.4-2.7,6.4-6.9S277.5,143.3,273.8,143.3z"/>
		<path class="st2" d="M255.7,143.4h-3.4v6.1h3.4c2.4,0,3.5-1.2,3.5-3C259.2,144.5,258.1,143.4,255.7,143.4z"/>
		<path class="st2" d="M189.4,145.1c-2.7,0-4.4,1.9-4.4,4.9c0,2.9,1.6,4.8,4.4,4.8c2.7,0,4.4-1.9,4.4-4.8
			C193.8,147,192.1,145.1,189.4,145.1z"/>
		<path class="st2" d="M211.9,146.4c0-1.9-1.1-3.1-3.5-3.1H205v6.3h3.4C210.8,149.6,211.9,148.3,211.9,146.4z"/>
		<polygon class="st2" points="326.2,153.2 332.3,153.2 329.3,144.5 		"/>
		<path class="st2" d="M404.2,117.1c0.5-1.7,0.8-3.5,0.8-5.5c0-17.9-27-16.7-27-24c0-2,1.2-3,2.6-3c2,0,3.9,1.1,4,4.6h19.6
			c-0.5-12.1-9.5-18.8-23.6-18.8c-12.4,0-22.3,6.1-22.3,17.8c-0.3,19.9,27.1,17,27.2,24.9c0,2.1-1.7,2.9-3.5,2.9
			c-1.8,0-4.1-0.7-4.4-5h-19.4c0.2,3.3,1,6.1,2.3,8.5l-8.7,0.5c2.8-4.1,4.4-9.3,4.4-15.7V71.5H338v32.8c0,5-2.2,8.7-7.7,8.7
			c-5.5,0-7.5-3.7-7.5-8.7V71.5h-18.2v32.8c0,7.7,2.1,13.6,5.8,17.9l-18.1,1c6.3-5.3,10.2-13.3,10.2-22.9
			c0-17.5-13.2-29.8-29.8-29.8c-16.5,0-30,12.3-30,29.8c0,10.8,5.1,19.7,12.9,24.9l-27.6,1.5V85.9h15.5V71.5h-49v14.5h15.3v41.7
			l-28.5,1.5c0.8-4.4,1.2-8.8,1.2-13.4c0-13.9-3.9-27.2-11.2-38.6c1.5-0.4,2.9-1.1,4.1-2.3c1.1-1,2-2.1,3-3.2
			c0.4-0.4,0.8-0.9,1.2-1.3c0.1-0.1,0.3-0.4,0.3-0.7c0-0.2,0-0.6-0.4-0.9c-0.1-0.1-0.2-0.1-0.2-0.1c-0.1,0-0.3-0.1-0.4-0.1
			c-0.3-0.1-0.5-0.2-0.8-0.3c-0.1,0-0.2,0-0.4,0c-0.2,0-0.4,0.1-0.5,0.1l-0.4,0.2c0-0.1,0-0.1,0-0.2c0.1-0.8,0.1-1.6,0.3-2.2
			c0.3-0.9,0.8-1.8,1.3-2.8c0.2-0.5,0.5-0.9,0.7-1.4c0.2-0.4,0.1-0.8-0.2-1.1c-0.2-0.1-0.4-0.2-0.6-0.2c-0.2,0-0.4,0.1-0.5,0.2
			c-0.2,0.1-0.4,0.2-0.5,0.4c-0.4,0.3-0.9,0.5-1.1,1c-0.2,0.4-0.5,0.8-0.9,1.3c-0.8,1.1-1.7,2.4-1.8,4.1c0,0.1,0,0.2-0.1,0.3
			l-0.9-1.6c-0.1-0.2-0.4-0.4-0.6-0.5l-4.4-0.8l-3.5-0.6c-0.1,0-0.1,0-0.2,0c-0.3,0-0.6,0.2-0.8,0.4c-0.2,0.3-0.2,0.7,0.1,1
			c0.8,1,1.8,1.3,2.5,1.6c0.3,0.1,0.5,0.2,0.8,0.3c0.1,0.1,0.3,0.1,0.4,0.2c0.6,0.3,1.2,0.6,1.4,0.9c0.6,0.8,1,1.7,1.4,2.6
			c0.1,0.2,0.2,0.5,0.3,0.7c-0.3,0.4-0.8,0.9-1.2,1.2c-2.2-3-4.6-5.9-7.3-8.6c-13.6-13.6-31.8-21.1-51.1-21.1S73,51.2,59.4,64.8
			c-13.6,13.6-21.1,31.8-21.1,51.1s7.5,37.4,21.1,51.1c9.4,9.4,20.9,15.9,33.4,19c0.3-0.9,0.5-2,0.7-2.6c0.1-1,0.5-2.2,0.4-3.2
			c-0.1-1.3-0.4-3-0.7-4.3c-0.3-1.2-0.4-2.2-0.7-3.3c-0.2-0.9-0.7-1.5-1-2.4c-0.1-0.4-3.1-4.9-3.1-5.1c-1.2-2.8-1.3-3.5-2.3-6.1
			c-1.3-3.3-3.2-9.6-4.2-13.5c-0.9-3.3-1-7.2-1.9-10.5c-0.9-3.4-2.6-6.2-5-8.7c-3.1-3.1-6-6.4-9-9.7c-0.9-1-1.7-2-2.7-3.1
			c0,0,0,0.1,0.1,0.2c-0.1-0.1-0.2-0.3-0.3-0.5c-1.5-1.3-7.1-3.5-7-11.4c0,0-0.3-1-0.5-2c-0.2,0.1-0.4,0.3-0.6,0.4
			c0,0,0.1,0.1,0.1,0.1c0.1,0.1,0.1,0.2,0.1,0.3c0,0.5,0.1,1,0.1,1.6c-0.6,0-1.2-0.3-1.6-0.8c0,0.2,0.1,0.5,0.1,0.7
			c-1.3-0.5-2.2-1.7-2.2-3.1c-0.1,0.2-0.1,0.3-0.2,0.5c-0.4-1.7,0.2-3.6,1.6-4.7c0.1-0.1,0.1-0.1,0.2-0.2c0.2-0.2,0.4-0.3,0.3-0.5
			c0-0.1,0-0.1,0.1-0.1c0.1,0,0.1,0,0.1-0.1l0-0.1c0,0,0-0.1,0-0.1c0.6-0.3,1.1-0.4,1.4,0.4c0.1,0.2,0,0.3,0,0.6c0.1,0,0.3,0,0.4,0
			c-0.1,0.1-0.4,0.3-0.4,0.4c0.4,0.2,0.8,0.3,1.2,0.5c0.2,0.1,0.8,0.1,1,0.2c0.2,0.1,0.1,0.3,0.3,0.4c0.8,0.6,0.9,1.4,0.8,1.9
			c-0.1,0.3-0.2,0.5-0.4,0.6l0.7,1.6c0.2,0,0.4-0.1,0.6-0.1c2.3-0.5,3.4,0.4,4.5,1.9c5.8-0.4,6.6-2.9,6.6-2.9
			c-0.5-0.9,0.5-1.9,0.5-1.9l0.1,0.4l2.7-1.4c0.3,0.3,0.4,0.6,0.6,1c0.2,0.6-0.1,1.4-0.7,1.6l-1.5,0.6c-0.3,0.1-0.5,0.4-0.7,0.7
			c-1.1,2.7-3.4,4.3-5.3,5.1c2.3,3,4.3,4.8,4.3,4.8c0.9,0.9,2.4,3.4,5.3,6.2c1.3,1.2,2.4,2.5,3.8,3.7c0.8,0.7,1.7,1.3,2.6,1.8
			c0.9,0.4,1.9,0.6,3.1-0.1c0-0.5,0.1-1.2,0-1.9c-0.4-1.5-0.7-3-1.4-4.3c-3.5-6.5-2.2-3.3-4.9-10.1c-0.8-1.9-1.3-3.8-1.6-5.8
			c0-0.1-0.1-0.1-0.1-0.2c0,0,0,0,0.1,0c-1.3-2.5-2.4-4.1-5.7-8.8c-0.2-0.2-0.3-0.5-0.5-0.7c-0.7,1.5-1.3,1.8-2.7,2.8
			c-2.4,1.6-4.6,2.3-4.6,2.3c-0.5,0.8-2.8,0.9-2.8,0.9l0.3-1.3c0,0,0.3-0.6,0.7-0.9c0.4-0.3,1.2,0.5,1.2,0.5c1.3-0.8,2.5-2,3.4-3.4
			c2.7-3.9,2.4-7.4,2.4-7.3l0-0.1c0,0,0.6-0.4,1.5-0.8l-0.4-0.5c-0.3,0.1-0.6,0.2-0.6,0.2c-0.2,0.1-0.4,0.1-0.5,0
			c-0.1-0.1-0.3-0.2-0.3-0.5c-0.2-0.2-0.3-0.4-0.4-0.6c-0.1-0.1-0.1-0.3-0.2-0.4c-0.1-0.1-0.3-0.3-0.4-0.5c-0.2-0.3-0.1-0.6-0.2-0.9
			c0-0.1-0.1-0.1-0.2-0.3c-0.1-0.1,0-0.2-0.1-0.4c0,0,0,0,0,0c0-0.1,0-0.1-0.1-0.2c0-0.1,0-0.1,0-0.2c0-0.1-0.1-0.1-0.2-0.2
			c0-0.2-0.1-0.4-0.1-0.6c0-0.1-0.1-0.1-0.1-0.2c0-0.2-0.1-0.2-0.1-0.4c-0.1-0.5-1-1.5-0.5-1.1c-0.3-0.3,0.1,0.1-0.1-0.2
			c0.3,0.3-0.3-0.3,0.3,0.2c0.7,0.1,0.1,0-0.1-0.3c0.5,0.3,0,0,0-0.3c1,0.9,3.7-1.9,5.5-0.1c0.1,0,0.2,0.1,0.3,0.1c0,0,0,0,0,0
			c0.2,0.1,0.4,0.3,0.5,0.5c0,0-0.1-0.1-0.1-0.1c0.1,0.1,0.1,0.2,0.2,0.2c0,0,0,0,0,0c0,0,0.1,0.1,0.1,0.1c0.1,0.1,0.2,0.2,0.3,0.3
			c-0.2,0.4,0.2,0.8-0.1,1c0,0.1,0,0.2,0,0.3c0,0-0.1,0-0.1,0c0.1,0.3,0.1,0.6,0.1,0.9c-0.1,0.2-0.2,0.3-0.2,0.5
			c0.1,0.5,0.1,0.9,0.2,1.4l0,0l1.2,1c1-0.2,1.4-0.2,2.6-0.2c0,0,2.1,0.4,3.8,3.2c1.3,1.5,4.4,7.8,3.9,9.5c-0.1,0.2-0.2,0.4-0.3,0.6
			c1.8,1.9,1.1,1.4,2.7,7.2c1.4,3.2,2.9,6.3,4.3,9.4c0.6,1.2,1.5,2.3,2.2,3.3c1.4,0,2.6,0.2,3.4-1.2c-0.1-0.7,0-1.6-0.2-2.4
			c-0.5-2.5-1.1-5-1.8-7.5c-2-7.5-4-14.9-6.1-22.3c-0.5-1.7-1.8-6.5-2.4-8.1c-1-2.6-0.8-5,0.6-5.6c1-0.4,2.1-0.5,3.2-0.3
			c0,0-0.1,0-0.1-0.1c-0.3-0.1-0.5-0.2-0.8-0.3c-0.8-0.2-1.6-0.3-2.4-0.2c-0.2,0-0.4,0.1-0.5-0.1c-0.1-0.2,0-0.4,0.2-0.5
			c0.1-0.1,0.3-0.3,0.3-0.5c-0.5-0.1-1-0.5-1.3-0.9c-0.3-0.4-0.5-0.8-0.5-1.3c-0.1-0.1-0.1-0.3-0.2-0.4c-0.7,0.6-1.1,1.4-1.3,2.3
			c-0.2,0.9-0.2,1.8-0.4,2.7c-0.3,1.3-0.8,2.5-1.7,3.4c-0.9,0.9-2.2,1.4-3.5,1.2c-0.2,0-0.4-0.1-0.5-0.1c-1-0.4-1.8-1.3-2-2.4
			c0.3,0.6,1.3,0.7,1.9,0.4c0.6-0.3,1-1,1.4-1.6c1-1.7,1.9-3.4,3.1-4.9c1.2-1.5,2.6-2.9,4.4-3.7c1.4-0.6,3-0.9,4.1-2
			c-0.2-0.3-0.5-0.7-0.6-1c0,0,0,0,0-0.1c-0.1,0.1-0.2,0.2-0.3,0.3c-0.3,0.2-0.7,0.2-1.1,0.1c-0.4-0.1-0.7-0.2-1.1-0.2
			c0.6-0.7,1.5-1.2,2.4-1.4c0,0,0,0,0,0c0-0.1,0.1-0.2,0.1-0.2c-0.2,0-0.3,0-0.5,0c-0.3-0.1-0.7-0.4-1-0.4c0.7-0.4,1.5-0.5,2.3-0.4
			c0.1-0.1,0.2-0.1,0.2-0.2c0.3-0.2,0.6-0.4,0.9-0.5c0.3-0.1,0.7-0.1,1,0.1c0.2,0.2,0.3,0.4,0.4,0.6c0.1,0.2,0.1,0.5,0.1,0.7
			c0,0.1,0,0.2,0,0.3c0,0.2,0,0.4,0,0.6c1.1-0.1,1.2,0,2.1-0.5c0.1,0,0.2-0.1,0.3-0.1c0.1-0.1,0.3-0.2,0.5-0.1
			c0.1,0.1,0.1,0.2,0.1,0.3c-0.1,0.2-0.3,0.3-0.4,0.5c0,0-0.1,0.1-0.1,0.1c-0.2,0.1-0.4,0.2-0.6,0.3c-0.2,0.1-0.6,0.3-0.6,0.3
			c-0.4,0.1-0.8,0.3-1.2,0.5c0,0.1,0,0.2,0,0.3c1.3-0.2,2.6-0.6,3.8-1.2c0,0,0.1-0.1,0.1-0.1c0.2-0.1,0.4-0.2,0.5-0.1
			c0.1,0.1,0.2,0.2,0.1,0.4c-0.1,0.3-0.3,0.4-0.5,0.5c0,0-0.1,0-0.1,0.1c-0.2,0.1-0.5,0.3-0.7,0.4c-0.6,0.3-1.2,0.6-1.9,0.9
			c-0.6,0.2-1.2,0.4-1.8,0.7c-0.4,1-1.1,1.8-1.8,2.5c-0.1,0.1-0.2,0.2-0.3,0.3c0.3,0,0.5,0.1,0.8,0.1c0.1,0,0.3,0,0.4,0.1
			c0.1,0,0.3,0.1,0.4,0.2c0.2,0.2,0.3,0.5,0.1,0.7c-0.3-0.1-0.6-0.1-0.9-0.2c-0.6-0.1-1.2-0.2-1.8-0.2c0,0.1-0.1,0.3-0.1,0.4
			c-0.3,0.8-0.8,1.5-1.4,2.1c0.8,0,1.7,0.2,2.5,0.5c0.1,0,0.1,0,0.2,0.1c0.2,0.1,0.3,0.2,0.4,0.4c0.1,0.2,0.1,0.4,0,0.6
			c0.2,0.1,0.4,0.2,0.5,0.3c0.9,0.7,4.4,9.5,4.8,11.1c0.5,2.4,1.4,4.8,2.2,7.2c0.1,0.4,0.3,0.8,0.5,1.2c2.5,5.9,4,12.2,5.5,18.4
			c0.2,1,0.6,1.9,0.9,2.9c0.4,1.1,1,2,2,2.6c2,0,2.9-0.5,3.2-2.2c0.4-2.1,1.3-4,1.6-6.4c0,0,1.4-8.6,2.8-15.1c1-5.1,4.7-15,5.5-17.3
			c-0.3-0.2-0.5-0.4-0.7-0.7c-0.3,0.7-4.5,12.1-5.7,17.8c0,0.2-0.1,0.4-0.1,0.5c0,0,0,0,0,0c-4,0-7.3-3.1-7.6-7
			c-4-2.1-6.6-6.3-6.6-11.2c0-3,1.1-5.8,2.8-8c-0.1-0.5-0.2-0.9-0.2-1.4c0-2.7,2-4.9,4.6-5.3c3-4.8,8.4-7.9,14.4-7.9
			c3.6,0,6.9,1.1,9.6,3c0.5-0.1,1.1-0.2,1.7-0.2c4.2,0,7.6,3.4,7.6,7.6c0,0.2,0,0.4,0,0.5c2.7,2.6,4.3,6.3,4.3,10.3
			c0,5.6-3.1,10.4-7.7,12.9c-1.5,4.7-5.9,8.1-11,8.1c-1,0-1.9-0.1-2.8-0.3c0.6-8.1,0.1-18.6,0-18.8l0-0.1c-0.2,0.2-0.5,0.4-0.9,0.5
			c0.1,1.9,0.5,11.2-0.1,18.5c-0.3,4.1-0.4,8.8-0.6,10.3c-0.1,1.2-0.2,2.4-0.4,3.6c0,0.2,0,0.2,0,0.2c-0.1,0.8-0.2,1.7-0.3,2.5
			c-0.4,6,0.9,11.7,3.9,17c0.4,0.8,1,1.4,1.6,2.1c1.4,1.4,3.3,1.5,4.7,0.1c0.6-0.6,1.1-1.2,1.5-1.9c1.1-1.8,2.3-3.6,3.3-5.5
			c1.4-2.7,4.6-5.6,7.1-7.3c0.3-0.2,0.5-0.5,0.6-0.6c-0.8-1.7-1.5-3.2-2.5-5.2c-1.9-2.2-5.3-3.4-7.5-6.1c0.1-0.1,0.1-0.3,0.2-0.4
			c1.4,0.5,2.8,1.1,4.3,1.6c1.4,0.5,2.7,0.9,4.1,1.4c0.7,0.2,1.3,0.4,2,0.6c1.8,0.5,3.1,1.5,3.8,3.4c0.2,0.4,0.5,0.8,1,1.6
			c1.5-6.1,5.6-9.5,10.5-12.2c-1.4,2.3-4.2,3.2-5.5,5.5c-0.1,1.3-0.3,2.6-0.2,3.8c0.1,1.2-1.2,2.2-0.2,3.5c0.9-0.4,1.8-1.1,2.7-1.1
			c0.9,0,1.8,0.6,2.8,1.2c-1.5,0.7-2.6,1.6-3.2,3c-0.2,0.4-0.5,0.7-0.9,1c-2.9,2.2-5,5-6.8,8c-2.5,4.2-4.3,6.8-6.7,10.8
			c-1.9,3.1-3.3,6.5-5,9.7c-2.2,4.2-3.5,8.7-6.1,12.7c-0.6,0.9-1.2,2-2,2.8c-1.6,1.7-1.7,3.7-1.5,5.8c0.1,1.4-2.2,6.8-3.5,11
			c-0.4,1.3-0.7,3.1-0.8,4.4c-0.2,1.5-0.2,3.3,0.1,4.8c0.2,0.9,1.3,2.1,1.8,3c0.7,0.6,1.7,1.3,2.6,2c12.7-2.9,24.4-9.2,34-18.4
			l251.2,2.6l5.5-54.1L404.2,117.1z M151.3,88.4c-1.4,0.2-2.8,0.5-4.4,0.8c0.3-0.6,0.5-1.1,0.8-1.6c0.5,0,1,0.1,1.5,0
			c0.5,0,1-0.2,1.5-0.3c0.3-0.6,0.6-1.1,0.8-1.6c-0.5-0.8-0.9-1.6-1.5-2.4c-1.2-0.7-2.4-1.4-3.6-2.1c0-0.1,0.1-0.2,0.1-0.3
			c1.8,0.3,3.6,0.7,5.4,1c0.5,0.5,0.9,1,1.6,1.7c0.2-2.8,1.5-4.8,3.4-6.5c-2,1.8-2.1,4-1.6,6.3c0.7-0.2,1.3-0.4,2.2-0.7
			C156.3,85.9,154.6,88,151.3,88.4z M157.3,144.8h-6.9v3.1h6v4h-6v3.4h6.9v4.2h-12.1v-18.9h12.1V144.8z M164.9,74.5
			c1.5,0.8,3,0.6,4.4-0.4c0,0,0,0,0,0c0.3-0.2,0.6-0.5,0.9-0.8c0,0,0,0,0,0c0.1-0.1,0.3-0.3,0.4-0.4c0,0,0,0,0.1-0.1
			c0.1-0.2,0.3-0.3,0.4-0.5c0,0,0,0,0,0c-0.2-0.3-0.3-0.7-0.5-1c-0.5-1-1-2-1.6-2.9c-0.5-0.7-1.4-1-2.2-1.4c-0.9-0.5-2.1-0.6-3-1.7
			c1.1,0.2,2.1,0.4,3.1,0.6c1.3,0.2,2.6,0.5,3.9,0.7c0.3,0.1,0.6,0.1,0.9,0.2c0.5,1,1,1.8,1.7,3.1c0.2-0.3,0.3-0.6,0.5-0.9
			c0.3-0.4,0.5-0.8,0.5-1.2c0.2-2,1.6-3.4,2.6-5c0.2-0.4,0.8-0.6,1.4-1.1c-0.5,1-1,1.9-1.4,2.8c-0.3,0.5-0.5,1-0.7,1.5
			c-0.1,0.3-0.2,0.5-0.2,0.8c-0.2,0.8-0.2,1.7-0.2,2.5c0,0.1,0.2,0.3,0.4,0.5c0.1,0,0.2-0.1,0.3-0.1c0.2-0.1,0.4-0.2,0.6-0.2
			c0.1,0,0.2-0.1,0.3-0.1c0,0,0,0,0.1,0c0,0,0,0,0,0c0,0,0,0,0.1,0c0,0,0,0,0,0c0,0,0,0,0,0c0,0,0.1,0,0.1,0c0,0,0,0,0,0
			c0.2,0,0.4,0.1,0.5,0.2c0.2,0.1,0.4,0.1,0.6,0.2c0.1,0,0.1,0.1,0.1,0.1c0,0.1-0.1,0.1-0.1,0.2c-1.3,1.5-2.6,3.1-4.1,4.5
			c-0.2,0.1-0.3,0.3-0.5,0.4c-0.1,0.1-0.2,0.1-0.3,0.2c-0.1,0.1-0.1,0.1-0.2,0.2c-0.1,0.1-0.2,0.2-0.4,0.3c0,0-0.1,0.1-0.1,0.1
			c-0.1,0.1-0.3,0.2-0.4,0.3c0,0,0,0,0,0c-0.2,0.1-0.3,0.2-0.5,0.2c0,0,0,0,0,0c-2,0.9-4.1,0.9-6.4,0.1c-0.7-0.2-1.5-0.3-2.3-0.5
			C164.2,75.2,164.6,74.9,164.9,74.5z M168.6,154.8c1.6,0,2.8-0.8,3.5-2.2h5.7c-0.9,4.3-4.3,7-9.1,7c-5.7,0-9.4-4-9.4-9.6
			c0-5.6,3.7-9.6,9.4-9.6c4.8,0,8.1,2.7,9.1,7h-5.7c-0.7-1.4-1.9-2.2-3.5-2.2c-2.4,0-4,1.9-4,4.8
			C164.6,152.9,166.2,154.8,168.6,154.8z M189.4,159.7c-5.4,0-9.7-4-9.7-9.7s4.4-9.7,9.7-9.7c5.4,0,9.7,4,9.7,9.7
			S194.8,159.7,189.4,159.7z M211.7,159.5l-4.3-7.5H205v7.5H202v-18.7h6.5c4.4,0,6.6,2.6,6.6,5.6c0,2.2-1.2,4.6-4.3,5.3l4.6,7.7
			H211.7z M229.3,143.3H222v5.5h6.4v2.5H222v5.7h7.3v2.5H219v-18.7h10.3V143.3z M239.2,159.7c-3.7,0-6.6-2-6.6-5.3h3.3
			c0.1,1.5,1.2,2.8,3.3,2.8c2.1,0,3.4-1.2,3.4-2.7c0-4.5-9.9-1.6-9.9-8.5c0-3.3,2.6-5.3,6.4-5.3c3.6,0,6.1,1.9,6.4,5.1H242
			c-0.1-1.3-1.2-2.4-3.1-2.5c-1.8-0.1-3.1,0.8-3.1,2.6c0,4.2,9.9,1.6,9.9,8.4C245.6,157,243.4,159.7,239.2,159.7z M255.7,152h-3.4
			v7.6h-3.1v-18.7h6.5c4.4,0,6.6,2.5,6.6,5.6C262.3,149.1,260.6,152,255.7,152z M273.8,159.7c-5.3,0-9.5-4-9.5-9.6
			c0-5.6,4.3-9.5,9.5-9.5c5.3,0,9.5,4,9.5,9.5C283.3,155.8,279.1,159.7,273.8,159.7z M301.7,159.5h-3.1l-9.2-13.9v13.9h-3.1v-18.7
			h3.1l9.2,13.9v-13.9h3.1V159.5z M311.9,159.7c-3.7,0-6.6-2-6.6-5.3h3.3c0.1,1.5,1.2,2.8,3.3,2.8c2.1,0,3.4-1.2,3.4-2.7
			c0-4.5-9.9-1.6-9.9-8.5c0-3.3,2.6-5.3,6.4-5.3c3.6,0,6.1,1.9,6.4,5.1h-3.4c-0.1-1.3-1.2-2.4-3.1-2.5c-1.8-0.1-3.1,0.8-3.1,2.6
			c0,4.2,9.9,1.6,9.9,8.4C318.3,157,316,159.7,311.9,159.7z M334.6,159.5l-1.3-3.8h-7.8l-1.3,3.8h-3.2l6.7-18.7h3.5l6.7,18.7H334.6z
			 M348.2,159.5h-7.5v-18.7h7.1c4,0,6,2.2,6,4.8c0,2.3-1.4,3.6-3.2,4.3c2,0.3,3.6,2.3,3.6,4.6C354.3,157.4,352,159.5,348.2,159.5z
			 M367,159.5h-9.4v-18.7h3.1v16.2h6.3V159.5z M379.9,143.3h-7.3v5.5h6.4v2.5h-6.4v5.7h7.3v2.5h-10.3v-18.7h10.3V143.3z
			 M389.8,159.7c-3.7,0-6.6-2-6.6-5.3h3.3c0.1,1.5,1.2,2.8,3.3,2.8c2.1,0,3.4-1.2,3.4-2.7c0-4.5-9.9-1.6-9.9-8.5
			c0-3.3,2.6-5.3,6.4-5.3c3.6,0,6.1,1.9,6.4,5.1h-3.4c-0.1-1.3-1.2-2.4-3.1-2.5c-1.8-0.1-3.1,0.8-3.1,2.6c0,4.2,9.9,1.6,9.9,8.4
			C396.2,157,393.9,159.7,389.8,159.7z"/>
		<path class="st2" d="M350.7,146c0-1.7-1.2-2.7-3.2-2.7h-3.8v5.3h3.8C349.5,148.7,350.7,147.8,350.7,146z"/>
		<path class="st2" d="M347.8,151.2h-4v5.8h4.1c2.1,0,3.3-1,3.3-2.8C351.2,152.3,349.8,151.2,347.8,151.2z"/>
	</g>
</g>
</svg>
