<?xml version="1.0" encoding="UTF-8" standalone="no"?>
<svg
   version="1.1"
   id="Calque_1"
   x="0px"
   y="0px"
   viewBox="0 0 563.82332 211.41515"
   xml:space="preserve"
   sodipodi:docname="logo-baseline-white.svg"
   inkscape:version="1.1.1 (3bf5ae0d25, 2021-09-20)"
   width="563.8233"
   height="211.41516"
   xmlns:inkscape="http://www.inkscape.org/namespaces/inkscape"
   xmlns:sodipodi="http://sodipodi.sourceforge.net/DTD/sodipodi-0.dtd"
   xmlns="http://www.w3.org/2000/svg"
   xmlns:svg="http://www.w3.org/2000/svg"
   xmlns:rdf="http://www.w3.org/1999/02/22-rdf-syntax-ns#"
   xmlns:cc="http://creativecommons.org/ns#"
   xmlns:dc="http://purl.org/dc/elements/1.1/"><metadata
   id="metadata45"><rdf:RDF><cc:Work
       rdf:about=""><dc:format>image/svg+xml</dc:format><dc:type
         rdf:resource="http://purl.org/dc/dcmitype/StillImage" /></cc:Work></rdf:RDF></metadata><defs
   id="defs43" /><sodipodi:namedview
   pagecolor="#ffffff"
   bordercolor="#666666"
   borderopacity="1"
   objecttolerance="10"
   gridtolerance="10"
   guidetolerance="10"
   inkscape:pageopacity="0"
   inkscape:pageshadow="2"
   inkscape:window-width="941"
   inkscape:window-height="1025"
   id="namedview41"
   showgrid="false"
   inkscape:pagecheckerboard="true"
   inkscape:zoom="0.45254834"
   inkscape:cx="123.74369"
   inkscape:cy="-170.14757"
   inkscape:window-x="4805"
   inkscape:window-y="41"
   inkscape:window-maximized="0"
   inkscape:current-layer="Calque_1"
   inkscape:document-rotation="0"
   fit-margin-top="0"
   fit-margin-left="0"
   fit-margin-right="0"
   fit-margin-bottom="0" />
<style
   type="text/css"
   id="style2">
	.st0{fill:#FFFFFF;}
</style>
<g
   id="g38"
   transform="matrix(1.4857004,0,0,1.4857004,-56.902325,-64.925107)">
	<g
   id="g6">
		<path
   class="st0"
   d="M 83.7,91.4 Z"
   id="path4" />
	</g>
	<path
   class="st0"
   d="m 155.8,106.6 c -0.1,0 -0.2,0.2 -0.2,0.3 0,0.1 0.1,0.2 0.2,0.3 0.3,0.2 0.6,-0.3 0.3,-0.5 0.1,-0.1 -0.1,-0.2 -0.3,-0.1 z"
   id="path8" />
	<circle
   class="st0"
   cx="121.2"
   cy="68.5"
   r="1.4"
   id="circle10" />
	<g
   id="g18">
		<path
   class="st0"
   d="m 121.2,66.4 c 0.4,0 0.8,0.1 1.1,0.3 0,-0.1 0.1,-0.2 0.1,-0.3 0.4,-1 0.7,-2.1 1.1,-3.5 0.1,-0.5 0.3,-1.1 0.4,-1.6 0.2,-0.7 0.4,-1.5 0.6,-2.2 0.4,-1.4 0.7,-2.7 1.1,-4.1 0.3,-1 0.5,-1.9 0.8,-2.9 0.1,-0.3 0.2,-0.6 0.2,-1 l 0.1,-0.3 c 0,-0.1 0.1,-0.4 -0.1,-0.7 L 126.4,49.9 126,50 c -0.4,0.1 -0.5,0.4 -0.5,0.5 v 0 c -0.1,0.2 -0.2,0.4 -0.3,0.7 -0.2,0.6 -0.5,1.3 -0.7,2.1 -0.7,2.1 -1.6,4.8 -2.6,7.4 -0.4,0.9 -0.7,1.9 -1,2.8 -0.2,0.5 -0.2,0.9 -0.2,1.3 v 0.1 c 0,0.2 0,0.4 0,0.5 v 0.1 c 0,0.3 -0.1,0.6 -0.2,0.9 0.2,0 0.4,0 0.7,0 z"
   id="path12" />
		<path
   class="st0"
   d="m 119,68.5 c 0,-0.6 0.2,-1.1 0.6,-1.5 -0.4,0.1 -0.8,0.2 -1.2,0.2 -0.2,0 -0.5,0.1 -0.7,0.2 -1.1,0.3 -2.1,0.6 -3,0.9 -1.6,0.5 -3.3,1.1 -5.5,1.7 -1,0.3 -2,0.6 -3,0.9 -0.6,0.2 -1.2,0.3 -1.8,0.5 -0.2,0.1 -0.5,0.1 -0.7,0.2 -0.1,0 -0.2,0.1 -0.3,0.2 v 0 l -0.7,0.6 0.8,0.3 v 0 c 0.1,0 0.2,0.1 0.3,0.1 h 0.1 c 0.2,0 0.3,0 0.5,0 0.5,-0.1 1,-0.2 1.4,-0.3 0.7,-0.2 1.4,-0.3 2.1,-0.5 1,-0.2 2,-0.5 3,-0.7 0.8,-0.2 1.6,-0.3 2.3,-0.5 0.4,-0.1 0.9,-0.2 1.3,-0.3 0.4,-0.1 0.9,-0.2 1.3,-0.3 0.4,-0.1 0.9,-0.2 1.3,-0.3 0.6,-0.1 1.2,-0.4 1.7,-0.7 0.3,-0.2 0.2,-0.4 0.2,-0.7 z"
   id="path14" />
		<path
   class="st0"
   d="m 133.6,80.1 v 0 c 0,-0.1 0,-0.2 -0.1,-0.4 -0.1,-0.2 -0.2,-0.3 -0.3,-0.5 -0.2,-0.3 -0.4,-0.5 -0.6,-0.7 -1.1,-1.2 -2.1,-2.4 -3.2,-3.6 -1,-1.2 -2.1,-2.4 -3.2,-3.8 -0.4,-0.5 -0.8,-0.9 -1.1,-1.3 l -0.4,-0.4 c -0.4,-0.5 -0.9,-0.9 -1.4,-1.1 v 0 c 0,0.1 0,0.2 0,0.3 0,0.7 -0.4,1.4 -0.9,1.8 0.3,0.4 0.7,0.8 1.1,1.2 0.2,0.2 0.5,0.5 0.7,0.7 l 0.4,0.3 c 0.2,0.2 0.4,0.4 0.6,0.5 0.4,0.4 0.8,0.8 1.2,1.2 0.8,0.8 1.6,1.6 2.4,2.5 l 0.7,0.7 c 0.2,0.2 0.5,0.5 0.7,0.8 0.3,0.3 0.6,0.6 0.9,0.9 0.4,0.4 0.9,0.9 1.3,1.3 v 0 c 0.1,0.1 0.3,0.3 0.6,0.4 l 0.6,0.1 z"
   id="path16" />
	</g>
	<g
   id="g36">
		<path
   class="st0"
   d="m 273.8,143.3 c -3.7,0 -6.4,2.6 -6.4,6.9 0,4.3 2.7,6.9 6.4,6.9 3.7,0 6.4,-2.7 6.4,-6.9 0,-4.2 -2.7,-6.9 -6.4,-6.9 z"
   id="path20" />
		<path
   class="st0"
   d="m 255.7,143.4 h -3.4 v 6.1 h 3.4 c 2.4,0 3.5,-1.2 3.5,-3 0,-2 -1.1,-3.1 -3.5,-3.1 z"
   id="path22" />
		<path
   class="st0"
   d="m 189.4,145.1 c -2.7,0 -4.4,1.9 -4.4,4.9 0,2.9 1.6,4.8 4.4,4.8 2.7,0 4.4,-1.9 4.4,-4.8 0,-3 -1.7,-4.9 -4.4,-4.9 z"
   id="path24" />
		<path
   class="st0"
   d="m 211.9,146.4 c 0,-1.9 -1.1,-3.1 -3.5,-3.1 H 205 v 6.3 h 3.4 c 2.4,0 3.5,-1.3 3.5,-3.2 z"
   id="path26" />
		<polygon
   class="st0"
   points="332.3,153.2 329.3,144.5 326.2,153.2 "
   id="polygon28" />
		<path
   class="st0"
   d="m 404.2,117.1 c 0.5,-1.7 0.8,-3.5 0.8,-5.5 0,-17.9 -27,-16.7 -27,-24 0,-2 1.2,-3 2.6,-3 2,0 3.9,1.1 4,4.6 h 19.6 c -0.5,-12.1 -9.5,-18.8 -23.6,-18.8 -12.4,0 -22.3,6.1 -22.3,17.8 -0.3,19.9 27.1,17 27.2,24.9 0,2.1 -1.7,2.9 -3.5,2.9 -1.8,0 -4.1,-0.7 -4.4,-5 h -19.4 c 0.2,3.3 1,6.1 2.3,8.5 l -8.7,0.5 c 2.8,-4.1 4.4,-9.3 4.4,-15.7 V 71.5 H 338 v 32.8 c 0,5 -2.2,8.7 -7.7,8.7 -5.5,0 -7.5,-3.7 -7.5,-8.7 V 71.5 h -18.2 v 32.8 c 0,7.7 2.1,13.6 5.8,17.9 l -18.1,1 c 6.3,-5.3 10.2,-13.3 10.2,-22.9 0,-17.5 -13.2,-29.8 -29.8,-29.8 -16.5,0 -30,12.3 -30,29.8 0,10.8 5.1,19.7 12.9,24.9 L 228,126.7 V 85.9 h 15.5 V 71.5 h -49 V 86 h 15.3 v 41.7 l -28.5,1.5 c 0.8,-4.4 1.2,-8.8 1.2,-13.4 0,-13.9 -3.9,-27.2 -11.2,-38.6 1.5,-0.4 2.9,-1.1 4.1,-2.3 1.1,-1 2,-2.1 3,-3.2 0.4,-0.4 0.8,-0.9 1.2,-1.3 0.1,-0.1 0.3,-0.4 0.3,-0.7 0,-0.2 0,-0.6 -0.4,-0.9 -0.1,-0.1 -0.2,-0.1 -0.2,-0.1 -0.1,0 -0.3,-0.1 -0.4,-0.1 -0.3,-0.1 -0.5,-0.2 -0.8,-0.3 -0.1,0 -0.2,0 -0.4,0 -0.2,0 -0.4,0.1 -0.5,0.1 l -0.4,0.2 c 0,-0.1 0,-0.1 0,-0.2 0.1,-0.8 0.1,-1.6 0.3,-2.2 0.3,-0.9 0.8,-1.8 1.3,-2.8 0.2,-0.5 0.5,-0.9 0.7,-1.4 0.2,-0.4 0.1,-0.8 -0.2,-1.1 -0.2,-0.1 -0.4,-0.2 -0.6,-0.2 -0.2,0 -0.4,0.1 -0.5,0.2 -0.2,0.1 -0.4,0.2 -0.5,0.4 -0.4,0.3 -0.9,0.5 -1.1,1 -0.2,0.4 -0.5,0.8 -0.9,1.3 -0.8,1.1 -1.7,2.4 -1.8,4.1 0,0.1 0,0.2 -0.1,0.3 l -0.9,-1.6 c -0.1,-0.2 -0.4,-0.4 -0.6,-0.5 l -4.4,-0.8 -3.5,-0.6 c -0.1,0 -0.1,0 -0.2,0 -0.3,0 -0.6,0.2 -0.8,0.4 -0.2,0.3 -0.2,0.7 0.1,1 0.8,1 1.8,1.3 2.5,1.6 0.3,0.1 0.5,0.2 0.8,0.3 0.1,0.1 0.3,0.1 0.4,0.2 0.6,0.3 1.2,0.6 1.4,0.9 0.6,0.8 1,1.7 1.4,2.6 0.1,0.2 0.2,0.5 0.3,0.7 -0.3,0.4 -0.8,0.9 -1.2,1.2 -2.2,-3 -4.6,-5.9 -7.3,-8.6 C 147.8,51.2 129.6,43.7 110.3,43.7 91,43.7 73,51.2 59.4,64.8 45.8,78.4 38.3,96.6 38.3,115.9 c 0,19.3 7.5,37.4 21.1,51.1 9.4,9.4 20.9,15.9 33.4,19 0.3,-0.9 0.5,-2 0.7,-2.6 0.1,-1 0.5,-2.2 0.4,-3.2 -0.1,-1.3 -0.4,-3 -0.7,-4.3 -0.3,-1.2 -0.4,-2.2 -0.7,-3.3 -0.2,-0.9 -0.7,-1.5 -1,-2.4 -0.1,-0.4 -3.1,-4.9 -3.1,-5.1 -1.2,-2.8 -1.3,-3.5 -2.3,-6.1 -1.3,-3.3 -3.2,-9.6 -4.2,-13.5 -0.9,-3.3 -1,-7.2 -1.9,-10.5 -0.9,-3.4 -2.6,-6.2 -5,-8.7 -3.1,-3.1 -6,-6.4 -9,-9.7 -0.9,-1 -1.7,-2 -2.7,-3.1 0,0 0,0.1 0.1,0.2 -0.1,-0.1 -0.2,-0.3 -0.3,-0.5 -1.5,-1.3 -7.1,-3.5 -7,-11.4 0,0 -0.3,-1 -0.5,-2 -0.2,0.1 -0.4,0.3 -0.6,0.4 l 0.1,0.1 c 0.1,0.1 0.1,0.2 0.1,0.3 0,0.5 0.1,1 0.1,1.6 -0.6,0 -1.2,-0.3 -1.6,-0.8 0,0.2 0.1,0.5 0.1,0.7 -1.3,-0.5 -2.2,-1.7 -2.2,-3.1 -0.1,0.2 -0.1,0.3 -0.2,0.5 -0.4,-1.7 0.2,-3.6 1.6,-4.7 0.1,-0.1 0.1,-0.1 0.2,-0.2 0.2,-0.2 0.4,-0.3 0.3,-0.5 0,-0.1 0,-0.1 0.1,-0.1 0.1,0 0.1,0 0.1,-0.1 v -0.1 -0.1 c 0.6,-0.3 1.1,-0.4 1.4,0.4 0.1,0.2 0,0.3 0,0.6 0.1,0 0.3,0 0.4,0 -0.1,0.1 -0.4,0.3 -0.4,0.4 0.4,0.2 0.8,0.3 1.2,0.5 0.2,0.1 0.8,0.1 1,0.2 0.2,0.1 0.1,0.3 0.3,0.4 0.8,0.6 0.9,1.4 0.8,1.9 -0.1,0.3 -0.2,0.5 -0.4,0.6 l 0.7,1.6 c 0.2,0 0.4,-0.1 0.6,-0.1 2.3,-0.5 3.4,0.4 4.5,1.9 5.8,-0.4 6.6,-2.9 6.6,-2.9 -0.5,-0.9 0.5,-1.9 0.5,-1.9 l 0.1,0.4 2.7,-1.4 c 0.3,0.3 0.4,0.6 0.6,1 0.2,0.6 -0.1,1.4 -0.7,1.6 l -1.5,0.6 c -0.3,0.1 -0.5,0.4 -0.7,0.7 -1.1,2.7 -3.4,4.3 -5.3,5.1 2.3,3 4.3,4.8 4.3,4.8 0.9,0.9 2.4,3.4 5.3,6.2 1.3,1.2 2.4,2.5 3.8,3.7 0.8,0.7 1.7,1.3 2.6,1.8 0.9,0.4 1.9,0.6 3.1,-0.1 0,-0.5 0.1,-1.2 0,-1.9 -0.4,-1.5 -0.7,-3 -1.4,-4.3 -3.5,-6.5 -2.2,-3.3 -4.9,-10.1 -0.8,-1.9 -1.3,-3.8 -1.6,-5.8 0,-0.1 -0.1,-0.1 -0.1,-0.2 0,0 0,0 0.1,0 -1.3,-2.5 -2.4,-4.1 -5.7,-8.8 -0.2,-0.2 -0.3,-0.5 -0.5,-0.7 -0.7,1.5 -1.3,1.8 -2.7,2.8 C 66,94.3 63.8,95 63.8,95 63.3,95.8 61,95.9 61,95.9 l 0.3,-1.3 c 0,0 0.3,-0.6 0.7,-0.9 0.4,-0.3 1.2,0.5 1.2,0.5 1.3,-0.8 2.5,-2 3.4,-3.4 2.7,-3.9 2.4,-7.4 2.4,-7.3 v -0.1 c 0,0 0.6,-0.4 1.5,-0.8 l -0.4,-0.5 c -0.3,0.1 -0.6,0.2 -0.6,0.2 -0.2,0.1 -0.4,0.1 -0.5,0 -0.1,-0.1 -0.3,-0.2 -0.3,-0.5 -0.2,-0.2 -0.3,-0.4 -0.4,-0.6 -0.1,-0.1 -0.1,-0.3 -0.2,-0.4 -0.1,-0.1 -0.3,-0.3 -0.4,-0.5 -0.2,-0.3 -0.1,-0.6 -0.2,-0.9 0,-0.1 -0.1,-0.1 -0.2,-0.3 -0.1,-0.1 0,-0.2 -0.1,-0.4 v 0 c 0,-0.1 0,-0.1 -0.1,-0.2 0,-0.1 0,-0.1 0,-0.2 0,-0.1 -0.1,-0.1 -0.2,-0.2 0,-0.2 -0.1,-0.4 -0.1,-0.6 0,-0.1 -0.1,-0.1 -0.1,-0.2 0,-0.2 -0.1,-0.2 -0.1,-0.4 -0.1,-0.5 -1,-1.5 -0.5,-1.1 -0.3,-0.3 0.1,0.1 -0.1,-0.2 0.3,0.3 -0.3,-0.3 0.3,0.2 0.7,0.1 0.1,0 -0.1,-0.3 0.5,0.3 0,0 0,-0.3 1,0.9 3.7,-1.9 5.5,-0.1 0.1,0 0.2,0.1 0.3,0.1 v 0 c 0.2,0.1 0.4,0.3 0.5,0.5 l -0.1,-0.1 c 0.1,0.1 0.1,0.2 0.2,0.2 v 0 l 0.1,0.1 c 0.1,0.1 0.2,0.2 0.3,0.3 -0.2,0.4 0.2,0.8 -0.1,1 0,0.1 0,0.2 0,0.3 h -0.1 c 0.1,0.3 0.1,0.6 0.1,0.9 -0.1,0.2 -0.2,0.3 -0.2,0.5 0.1,0.5 0.1,0.9 0.2,1.4 v 0 l 1.2,1 c 1,-0.2 1.4,-0.2 2.6,-0.2 0,0 2.1,0.4 3.8,3.2 1.3,1.5 4.4,7.8 3.9,9.5 -0.1,0.2 -0.2,0.4 -0.3,0.6 1.8,1.9 1.1,1.4 2.7,7.2 1.4,3.2 2.9,6.3 4.3,9.4 0.6,1.2 1.5,2.3 2.2,3.3 1.4,0 2.6,0.2 3.4,-1.2 -0.1,-0.7 0,-1.6 -0.2,-2.4 -0.5,-2.5 -1.1,-5 -1.8,-7.5 -2,-7.5 -4,-14.9 -6.1,-22.3 -0.5,-1.7 -1.8,-6.5 -2.4,-8.1 -1,-2.6 -0.8,-5 0.6,-5.6 1,-0.4 2.1,-0.5 3.2,-0.3 0,0 -0.1,0 -0.1,-0.1 -0.3,-0.1 -0.5,-0.2 -0.8,-0.3 -0.8,-0.2 -1.6,-0.3 -2.4,-0.2 -0.2,0 -0.4,0.1 -0.5,-0.1 -0.1,-0.2 0,-0.4 0.2,-0.5 0.1,-0.1 0.3,-0.3 0.3,-0.5 -0.5,-0.1 -1,-0.5 -1.3,-0.9 -0.3,-0.4 -0.5,-0.8 -0.5,-1.3 -0.1,-0.1 -0.1,-0.3 -0.2,-0.4 -0.7,0.6 -1.1,1.4 -1.3,2.3 -0.2,0.9 -0.2,1.8 -0.4,2.7 -0.3,1.3 -0.8,2.5 -1.7,3.4 -0.9,0.9 -2.2,1.4 -3.5,1.2 -0.2,0 -0.4,-0.1 -0.5,-0.1 -1,-0.4 -1.8,-1.3 -2,-2.4 0.3,0.6 1.3,0.7 1.9,0.4 0.6,-0.3 1,-1 1.4,-1.6 1,-1.7 1.9,-3.4 3.1,-4.9 1.2,-1.5 2.6,-2.9 4.4,-3.7 1.4,-0.6 3,-0.9 4.1,-2 -0.2,-0.3 -0.5,-0.7 -0.6,-1 0,0 0,0 0,-0.1 -0.1,0.1 -0.2,0.2 -0.3,0.3 -0.3,0.2 -0.7,0.2 -1.1,0.1 -0.4,-0.1 -0.7,-0.2 -1.1,-0.2 0.6,-0.7 1.5,-1.2 2.4,-1.4 v 0 c 0,-0.1 0.1,-0.2 0.1,-0.2 -0.2,0 -0.3,0 -0.5,0 -0.3,-0.1 -0.7,-0.4 -1,-0.4 0.7,-0.4 1.5,-0.5 2.3,-0.4 0.1,-0.1 0.2,-0.1 0.2,-0.2 0.3,-0.2 0.6,-0.4 0.9,-0.5 0.3,-0.1 0.7,-0.1 1,0.1 0.2,0.2 0.3,0.4 0.4,0.6 0.1,0.2 0.1,0.5 0.1,0.7 0,0.1 0,0.2 0,0.3 0,0.2 0,0.4 0,0.6 1.1,-0.1 1.2,0 2.1,-0.5 0.1,0 0.2,-0.1 0.3,-0.1 0.1,-0.1 0.3,-0.2 0.5,-0.1 0.1,0.1 0.1,0.2 0.1,0.3 -0.1,0.2 -0.3,0.3 -0.4,0.5 l -0.1,0.1 c -0.2,0.1 -0.4,0.2 -0.6,0.3 -0.2,0.1 -0.6,0.3 -0.6,0.3 -0.4,0.1 -0.8,0.3 -1.2,0.5 0,0.1 0,0.2 0,0.3 1.3,-0.2 2.6,-0.6 3.8,-1.2 L 97,56.5 c 0.2,-0.1 0.4,-0.2 0.5,-0.1 0.1,0.1 0.2,0.2 0.1,0.4 -0.1,0.3 -0.3,0.4 -0.5,0.5 0,0 -0.1,0 -0.1,0.1 -0.2,0.1 -0.5,0.3 -0.7,0.4 -0.6,0.3 -1.2,0.6 -1.9,0.9 -0.6,0.2 -1.2,0.4 -1.8,0.7 -0.4,1 -1.1,1.8 -1.8,2.5 -0.1,0.1 -0.2,0.2 -0.3,0.3 0.3,0 0.5,0.1 0.8,0.1 0.1,0 0.3,0 0.4,0.1 0.1,0 0.3,0.1 0.4,0.2 0.2,0.2 0.3,0.5 0.1,0.7 -0.3,-0.1 -0.6,-0.1 -0.9,-0.2 -0.6,-0.1 -1.2,-0.2 -1.8,-0.2 0,0.1 -0.1,0.3 -0.1,0.4 -0.3,0.8 -0.8,1.5 -1.4,2.1 0.8,0 1.7,0.2 2.5,0.5 0.1,0 0.1,0 0.2,0.1 0.2,0.1 0.3,0.2 0.4,0.4 0.1,0.2 0.1,0.4 0,0.6 0.2,0.1 0.4,0.2 0.5,0.3 0.9,0.7 4.4,9.5 4.8,11.1 0.5,2.4 1.4,4.8 2.2,7.2 0.1,0.4 0.3,0.8 0.5,1.2 2.5,5.9 4,12.2 5.5,18.4 0.2,1 0.6,1.9 0.9,2.9 0.4,1.1 1,2 2,2.6 2,0 2.9,-0.5 3.2,-2.2 0.4,-2.1 1.3,-4 1.6,-6.4 0,0 1.4,-8.6 2.8,-15.1 1,-5.1 4.7,-15 5.5,-17.3 -0.3,-0.2 -0.5,-0.4 -0.7,-0.7 -0.3,0.7 -4.5,12.1 -5.7,17.8 0,0.2 -0.1,0.4 -0.1,0.5 v 0 c -4,0 -7.3,-3.1 -7.6,-7 -4,-2.1 -6.6,-6.3 -6.6,-11.2 0,-3 1.1,-5.8 2.8,-8 -0.1,-0.5 -0.2,-0.9 -0.2,-1.4 0,-2.7 2,-4.9 4.6,-5.3 3,-4.8 8.4,-7.9 14.4,-7.9 3.6,0 6.9,1.1 9.6,3 0.5,-0.1 1.1,-0.2 1.7,-0.2 4.2,0 7.6,3.4 7.6,7.6 0,0.2 0,0.4 0,0.5 2.7,2.6 4.3,6.3 4.3,10.3 0,5.6 -3.1,10.4 -7.7,12.9 -1.5,4.7 -5.9,8.1 -11,8.1 -1,0 -1.9,-0.1 -2.8,-0.3 0.6,-8.1 0.1,-18.6 0,-18.8 v -0.1 c -0.2,0.2 -0.5,0.4 -0.9,0.5 0.1,1.9 0.5,11.2 -0.1,18.5 -0.3,4.1 -0.4,8.8 -0.6,10.3 -0.1,1.2 -0.2,2.4 -0.4,3.6 0,0.2 0,0.2 0,0.2 -0.1,0.8 -0.2,1.7 -0.3,2.5 -0.4,6 0.9,11.7 3.9,17 0.4,0.8 1,1.4 1.6,2.1 1.4,1.4 3.3,1.5 4.7,0.1 0.6,-0.6 1.1,-1.2 1.5,-1.9 1.1,-1.8 2.3,-3.6 3.3,-5.5 1.4,-2.7 4.6,-5.6 7.1,-7.3 0.3,-0.2 0.5,-0.5 0.6,-0.6 -0.8,-1.7 -1.5,-3.2 -2.5,-5.2 -1.9,-2.2 -5.3,-3.4 -7.5,-6.1 0.1,-0.1 0.1,-0.3 0.2,-0.4 1.4,0.5 2.8,1.1 4.3,1.6 1.4,0.5 2.7,0.9 4.1,1.4 0.7,0.2 1.3,0.4 2,0.6 1.8,0.5 3.1,1.5 3.8,3.4 0.2,0.4 0.5,0.8 1,1.6 1.5,-6.1 5.6,-9.5 10.5,-12.2 -1.4,2.3 -4.2,3.2 -5.5,5.5 -0.1,1.3 -0.3,2.6 -0.2,3.8 0.1,1.2 -1.2,2.2 -0.2,3.5 0.9,-0.4 1.8,-1.1 2.7,-1.1 0.9,0 1.8,0.6 2.8,1.2 -1.5,0.7 -2.6,1.6 -3.2,3 -0.2,0.4 -0.5,0.7 -0.9,1 -2.9,2.2 -5,5 -6.8,8 -2.5,4.2 -4.3,6.8 -6.7,10.8 -1.9,3.1 -3.3,6.5 -5,9.7 -2.2,4.2 -3.5,8.7 -6.1,12.7 -0.6,0.9 -1.2,2 -2,2.8 -1.6,1.7 -1.7,3.7 -1.5,5.8 0.1,1.4 -2.2,6.8 -3.5,11 -0.4,1.3 -0.7,3.1 -0.8,4.4 -0.2,1.5 -0.2,3.3 0.1,4.8 0.2,0.9 1.3,2.1 1.8,3 0.7,0.6 1.7,1.3 2.6,2 12.7,-2.9 24.4,-9.2 34,-18.4 l 251.2,2.6 5.5,-54.1 z M 151.3,88.4 c -1.4,0.2 -2.8,0.5 -4.4,0.8 0.3,-0.6 0.5,-1.1 0.8,-1.6 0.5,0 1,0.1 1.5,0 0.5,0 1,-0.2 1.5,-0.3 0.3,-0.6 0.6,-1.1 0.8,-1.6 -0.5,-0.8 -0.9,-1.6 -1.5,-2.4 -1.2,-0.7 -2.4,-1.4 -3.6,-2.1 0,-0.1 0.1,-0.2 0.1,-0.3 1.8,0.3 3.6,0.7 5.4,1 0.5,0.5 0.9,1 1.6,1.7 0.2,-2.8 1.5,-4.8 3.4,-6.5 -2,1.8 -2.1,4 -1.6,6.3 0.7,-0.2 1.3,-0.4 2.2,-0.7 -1.2,3.2 -2.9,5.3 -6.2,5.7 z m 6,56.4 h -6.9 v 3.1 h 6 v 4 h -6 v 3.4 h 6.9 v 4.2 h -12.1 v -18.9 h 12.1 z m 7.6,-70.3 c 1.5,0.8 3,0.6 4.4,-0.4 v 0 c 0.3,-0.2 0.6,-0.5 0.9,-0.8 v 0 c 0.1,-0.1 0.3,-0.3 0.4,-0.4 0,0 0,0 0.1,-0.1 0.1,-0.2 0.3,-0.3 0.4,-0.5 v 0 c -0.2,-0.3 -0.3,-0.7 -0.5,-1 -0.5,-1 -1,-2 -1.6,-2.9 -0.5,-0.7 -1.4,-1 -2.2,-1.4 -0.9,-0.5 -2.1,-0.6 -3,-1.7 1.1,0.2 2.1,0.4 3.1,0.6 1.3,0.2 2.6,0.5 3.9,0.7 0.3,0.1 0.6,0.1 0.9,0.2 0.5,1 1,1.8 1.7,3.1 0.2,-0.3 0.3,-0.6 0.5,-0.9 0.3,-0.4 0.5,-0.8 0.5,-1.2 0.2,-2 1.6,-3.4 2.6,-5 0.2,-0.4 0.8,-0.6 1.4,-1.1 -0.5,1 -1,1.9 -1.4,2.8 -0.3,0.5 -0.5,1 -0.7,1.5 -0.1,0.3 -0.2,0.5 -0.2,0.8 -0.2,0.8 -0.2,1.7 -0.2,2.5 0,0.1 0.2,0.3 0.4,0.5 0.1,0 0.2,-0.1 0.3,-0.1 0.2,-0.1 0.4,-0.2 0.6,-0.2 0.1,0 0.2,-0.1 0.3,-0.1 0,0 0,0 0.1,0 v 0 c 0,0 0,0 0.1,0 v 0 0 h 0.1 v 0 c 0.2,0 0.4,0.1 0.5,0.2 0.2,0.1 0.4,0.1 0.6,0.2 0.1,0 0.1,0.1 0.1,0.1 0,0.1 -0.1,0.1 -0.1,0.2 -1.3,1.5 -2.6,3.1 -4.1,4.5 -0.2,0.1 -0.3,0.3 -0.5,0.4 -0.1,0.1 -0.2,0.1 -0.3,0.2 -0.1,0.1 -0.1,0.1 -0.2,0.2 -0.1,0.1 -0.2,0.2 -0.4,0.3 l -0.1,0.1 c -0.1,0.1 -0.3,0.2 -0.4,0.3 v 0 c -0.2,0.1 -0.3,0.2 -0.5,0.2 v 0 c -2,0.9 -4.1,0.9 -6.4,0.1 -0.7,-0.2 -1.5,-0.3 -2.3,-0.5 0.5,-0.7 0.9,-1 1.2,-1.4 z m 3.7,80.3 c 1.6,0 2.8,-0.8 3.5,-2.2 h 5.7 c -0.9,4.3 -4.3,7 -9.1,7 -5.7,0 -9.4,-4 -9.4,-9.6 0,-5.6 3.7,-9.6 9.4,-9.6 4.8,0 8.1,2.7 9.1,7 h -5.7 c -0.7,-1.4 -1.9,-2.2 -3.5,-2.2 -2.4,0 -4,1.9 -4,4.8 0,2.9 1.6,4.8 4,4.8 z m 20.8,4.9 c -5.4,0 -9.7,-4 -9.7,-9.7 0,-5.7 4.4,-9.7 9.7,-9.7 5.4,0 9.7,4 9.7,9.7 0,5.7 -4.3,9.7 -9.7,9.7 z m 22.3,-0.2 -4.3,-7.5 H 205 v 7.5 h -3 v -18.7 h 6.5 c 4.4,0 6.6,2.6 6.6,5.6 0,2.2 -1.2,4.6 -4.3,5.3 l 4.6,7.7 z m 17.6,-16.2 H 222 v 5.5 h 6.4 v 2.5 H 222 v 5.7 h 7.3 v 2.5 H 219 v -18.7 h 10.3 z m 9.9,16.4 c -3.7,0 -6.6,-2 -6.6,-5.3 h 3.3 c 0.1,1.5 1.2,2.8 3.3,2.8 2.1,0 3.4,-1.2 3.4,-2.7 0,-4.5 -9.9,-1.6 -9.9,-8.5 0,-3.3 2.6,-5.3 6.4,-5.3 3.6,0 6.1,1.9 6.4,5.1 H 242 c -0.1,-1.3 -1.2,-2.4 -3.1,-2.5 -1.8,-0.1 -3.1,0.8 -3.1,2.6 0,4.2 9.9,1.6 9.9,8.4 -0.1,2.7 -2.3,5.4 -6.5,5.4 z m 16.5,-7.7 h -3.4 v 7.6 h -3.1 v -18.7 h 6.5 c 4.4,0 6.6,2.5 6.6,5.6 0,2.6 -1.7,5.5 -6.6,5.5 z m 18.1,7.7 c -5.3,0 -9.5,-4 -9.5,-9.6 0,-5.6 4.3,-9.5 9.5,-9.5 5.3,0 9.5,4 9.5,9.5 0,5.7 -4.2,9.6 -9.5,9.6 z m 27.9,-0.2 h -3.1 l -9.2,-13.9 v 13.9 h -3.1 v -18.7 h 3.1 l 9.2,13.9 v -13.9 h 3.1 z m 10.2,0.2 c -3.7,0 -6.6,-2 -6.6,-5.3 h 3.3 c 0.1,1.5 1.2,2.8 3.3,2.8 2.1,0 3.4,-1.2 3.4,-2.7 0,-4.5 -9.9,-1.6 -9.9,-8.5 0,-3.3 2.6,-5.3 6.4,-5.3 3.6,0 6.1,1.9 6.4,5.1 h -3.4 c -0.1,-1.3 -1.2,-2.4 -3.1,-2.5 -1.8,-0.1 -3.1,0.8 -3.1,2.6 0,4.2 9.9,1.6 9.9,8.4 -0.2,2.7 -2.5,5.4 -6.6,5.4 z m 22.7,-0.2 -1.3,-3.8 h -7.8 l -1.3,3.8 H 321 l 6.7,-18.7 h 3.5 l 6.7,18.7 z m 13.6,0 h -7.5 v -18.7 h 7.1 c 4,0 6,2.2 6,4.8 0,2.3 -1.4,3.6 -3.2,4.3 2,0.3 3.6,2.3 3.6,4.6 0.1,2.9 -2.2,5 -6,5 z m 18.8,0 h -9.4 v -18.7 h 3.1 V 157 h 6.3 z m 12.9,-16.2 h -7.3 v 5.5 h 6.4 v 2.5 h -6.4 v 5.7 h 7.3 v 2.5 h -10.3 v -18.7 h 10.3 z m 9.9,16.4 c -3.7,0 -6.6,-2 -6.6,-5.3 h 3.3 c 0.1,1.5 1.2,2.8 3.3,2.8 2.1,0 3.4,-1.2 3.4,-2.7 0,-4.5 -9.9,-1.6 -9.9,-8.5 0,-3.3 2.6,-5.3 6.4,-5.3 3.6,0 6.1,1.9 6.4,5.1 h -3.4 c -0.1,-1.3 -1.2,-2.4 -3.1,-2.5 -1.8,-0.1 -3.1,0.8 -3.1,2.6 0,4.2 9.9,1.6 9.9,8.4 -0.2,2.7 -2.5,5.4 -6.6,5.4 z"
   id="path30" />
		<path
   class="st0"
   d="m 350.7,146 c 0,-1.7 -1.2,-2.7 -3.2,-2.7 h -3.8 v 5.3 h 3.8 c 2,0.1 3.2,-0.8 3.2,-2.6 z"
   id="path32" />
		<path
   class="st0"
   d="m 347.8,151.2 h -4 v 5.8 h 4.1 c 2.1,0 3.3,-1 3.3,-2.8 0,-1.9 -1.4,-3 -3.4,-3 z"
   id="path34" />
	</g>
</g>
</svg>
