<svg xmlns="http://www.w3.org/2000/svg" width="272.804" height="111.745" viewBox="0 0 272.804 111.745">
  <g id="LOGO_AV_" data-name="LOGO AV " transform="translate(-208.347 -210.557)">
    <g id="Groupe_229" data-name="Groupe 229" transform="translate(208.347 309.858)">
      <path id="Tracé_525" data-name="Tracé 525" d="M285.835,365.328q-38.765.873-77.488,2.9v9.548q38.718-2.437,77.488-3.488Z" transform="translate(-208.347 -365.328)" fill="#3da786"/>
      <path id="Tracé_526" data-name="Tracé 526" d="M512.768,365.328v8.957q38.764,1.052,77.489,3.488v-9.548Q551.537,366.2,512.768,365.328Z" transform="translate(-317.453 -365.328)" fill="#3da786"/>
    </g>
    <path id="Tracé_527" data-name="Tracé 527" d="M232.587,236.906q5.322.207,10.644.394v26.221q5.372.06,10.745.113v8.657q-10.7-.029-21.389-.062Q232.586,254.567,232.587,236.906Z" transform="translate(-8.687 -9.444)" fill="#d8af00"/>
    <g id="Groupe_230" data-name="Groupe 230" transform="translate(247.512 227.462)">
      <path id="Tracé_528" data-name="Tracé 528" d="M291.961,238.894q2.394,14.942,4.788,29.793V272.9l-10.7-.021q-.318-3.438-.635-6.879l-4.691-.033q-.341,3.447-.683,6.9-5.325-.012-10.65-.026v-4.3q2.393-15.12,4.786-30.125Q283.067,238.681,291.961,238.894Zm-7.33,18.558q-.489-5.081-.977-10.172l-1.172-.024q-.488,5.075-.977,10.155Z" transform="translate(-269.39 -237.448)" fill="#e44327"/>
      <path id="Tracé_529" data-name="Tracé 529" d="M311.27,242.076v-2.761q5.326.12,10.652.222,1.1,12.659,2.2,25.289l1.221.007q1.1-12.611,2.2-25.194,5.327.092,10.654.167v2.724q-2.712,15.33-5.424,30.724-8.04-.012-16.079-.024Q313.982,257.7,311.27,242.076Z" transform="translate(-284.4 -237.769)" fill="#e44327"/>
      <path id="Tracé_530" data-name="Tracé 530" d="M357.047,273.556V240.131q11.437.15,22.875.217v4.129q-.856,2.109-1.711,4.217-5.255-.026-10.51-.065v3.712q5.255.034,10.51.056v8.309q-5.255-.014-10.51-.037v4.569q6.11.017,12.221.03v8.306Q368.484,273.568,357.047,273.556Z" transform="translate(-300.807 -238.062)" fill="#e44327"/>
      <path id="Tracé_531" data-name="Tracé 531" d="M414.477,255.885q-.708-5.617-1.418-11.232v-4.124q4.937,0,9.874-.017v33.194H411.592L406.557,258.4h-.83q.683,5.594,1.367,11.188v4.124l-9.824,0V240.492q5.669.028,11.339.035,2.494,7.681,4.987,15.358Z" transform="translate(-315.223 -238.191)" fill="#e44327"/>
      <path id="Tracé_532" data-name="Tracé 532" d="M441.078,248.75V240.4q11.975-.049,23.951-.191v4.149q-.856,2.131-1.711,4.259-2.568.022-5.133.041v24.935l-10.705.007V248.724Q444.279,248.74,441.078,248.75Z" transform="translate(-330.924 -238.091)" fill="#e44327"/>
      <path id="Tracé_533" data-name="Tracé 533" d="M507.874,239.5v33.8q-10.679.017-21.357.031a4.041,4.041,0,0,1-4.3-4.147V239.926q5.351-.067,10.7-.153v25.16l4.253-.022V239.7Q502.522,239.609,507.874,239.5Z" transform="translate(-345.667 -237.835)" fill="#e44327"/>
      <path id="Tracé_534" data-name="Tracé 534" d="M549.7,238.517a3.954,3.954,0,0,1,4.249,4.16v13.55a4.3,4.3,0,0,1-2.832,3.928q1.684,4.207,3.37,8.436v4.288l-10.455.025q-1.44-5.326-2.882-10.631l-2.15.02v10.622l-10.7.021V239.061Q539,238.826,549.7,238.517ZM539,247.384v6.383l4.252-.066v-6.4Z" transform="translate(-362.183 -237.482)" fill="#e44327"/>
      <path id="Tracé_535" data-name="Tracé 535" d="M573.68,272.3V237.707q11.43-.358,22.856-.8v4.39q-.856,2.275-1.709,4.543-5.25.154-10.5.294v3.89q5.252-.122,10.5-.256v8.816q-5.25.088-10.5.168v4.788q6.105-.066,12.21-.141v8.831Q585.111,272.265,573.68,272.3Z" transform="translate(-378.449 -236.906)" fill="#e44327"/>
    </g>
    <g id="Groupe_231" data-name="Groupe 231" transform="translate(208.745 269.046)">
      <path id="Tracé_536" data-name="Tracé 536" d="M208.967,337.82V301.925q10.665-.039,21.335-.072a4.112,4.112,0,0,1,4.248,4.333v26.277a4.308,4.308,0,0,1-4.248,4.5Q219.632,337.355,208.967,337.82Zm10.642-9.317,4.3-.131V310.756q-2.149.027-4.3.055Z" transform="translate(-208.967 -301.766)" fill="#d8af00"/>
      <path id="Tracé_537" data-name="Tracé 537" d="M280.575,301.718v34.139q-10.676.276-21.347.625a3.97,3.97,0,0,1-4.3-4.187V301.781l10.7-.028v25.895l4.251-.1V301.742Q275.226,301.729,280.575,301.718Z" transform="translate(-225.44 -301.718)" fill="#d8af00"/>
    </g>
    <g id="Groupe_232" data-name="Groupe 232" transform="translate(268.555 268.959)">
      <path id="Tracé_538" data-name="Tracé 538" d="M302.188,304.449v-2.771q5.325-.012,10.651-.02,1.1,12.677,2.2,25.321l1.222-.019q1.1-12.671,2.2-25.312l10.654-.015v2.731q-2.713,15.409-5.425,30.894-8.04.141-16.077.323Q304.9,320.067,302.188,304.449Z" transform="translate(-302.188 -301.601)" fill="#006e70"/>
      <path id="Tracé_539" data-name="Tracé 539" d="M347.961,335.122v-33.5l10.655-.012V334.98Q353.288,335.041,347.961,335.122Z" transform="translate(-318.593 -301.592)" fill="#006e70"/>
      <path id="Tracé_540" data-name="Tracé 540" d="M368.377,304.313V301.6l10.655-.008q1.1,12.471,2.2,24.931l1.221-.006q1.1-12.469,2.2-24.927,5.329,0,10.657,0v2.7q-2.713,15.243-5.427,30.5-8.041.031-16.081.1Q371.09,319.622,368.377,304.313Z" transform="translate(-325.91 -301.583)" fill="#006e70"/>
      <path id="Tracé_541" data-name="Tracé 541" d="M432.177,301.586q2.394,14.543,4.791,29.109v4.132q-5.354-.036-10.707-.051-.316-3.343-.634-6.687-2.346-.006-4.694-.008-.343,3.341-.685,6.683-5.328-.006-10.656.007v-4.125q2.4-14.537,4.791-29.062Q423.281,301.582,432.177,301.586Zm-7.332,18.2q-.489-4.932-.978-9.863h-1.173l-.978,9.859Z" transform="translate(-340.682 -301.583)" fill="#006e70"/>
      <path id="Tracé_542" data-name="Tracé 542" d="M474.033,317.075q-.708-5.662-1.416-11.317v-4.152l9.872.012v33.527q-5.668-.089-11.34-.156-2.517-7.733-5.035-15.436l-.83-.005q.684,5.621,1.369,11.247v4.144q-4.914-.052-9.826-.088V301.594l11.34.008q2.494,7.72,4.986,15.467Z" transform="translate(-357.612 -301.587)" fill="#006e70"/>
      <path id="Tracé_543" data-name="Tracé 543" d="M500.631,310.075v-8.438q11.973.015,23.944.04V305.9q-.856,2.158-1.711,4.312l-5.13-.037v25.348q-5.352-.116-10.7-.216v-25.2Q503.833,310.091,500.631,310.075Z" transform="translate(-373.311 -301.602)" fill="#006e70"/>
    </g>
    <path id="Tracé_544" data-name="Tracé 544" d="M474.286,219.949q-120.756,5.589-241.7,0,0-4.7,0-9.392a2172.072,2172.072,0,0,0,241.7,0Z" transform="translate(-8.687)" fill="#3da786"/>
    <g id="Groupe_233" data-name="Groupe 233" transform="translate(288.839 307.612)">
      <path id="Tracé_545" data-name="Tracé 545" d="M375.133,363.576l-1.21,1.19q-.908-.873-1.815-1.746l1.209-1.191Z" transform="translate(-347.532 -361.828)" fill="#e44327"/>
      <path id="Tracé_546" data-name="Tracé 546" d="M350.261,365.1l-1.209-1.163q.908-.9,1.815-1.807l1.209,1.163Z" transform="translate(-339.268 -361.937)" fill="#e44327"/>
      <path id="Tracé_547" data-name="Tracé 547" d="M339.494,365.045a1.051,1.051,0,0,1,1.13,1.087v3.5a1.132,1.132,0,0,1-.755,1.022l.9,2.171v1.107l-2.781.065-.766-2.762-.571.013v2.781l-2.846.071v-8.943Q336.649,365.1,339.494,365.045Zm-2.845,2.3v1.671l1.129-.024v-1.671Z" transform="translate(-333.803 -362.981)" fill="#e44327"/>
      <path id="Tracé_548" data-name="Tracé 548" d="M346.67,373.822v-8.909q3.041-.056,6.081-.1v1.1l-.455,1.138q-1.4.023-2.794.049v.991l2.794-.049v2.221q-1.4.026-2.794.053v1.222l3.248-.062V373.7Q349.711,373.756,346.67,373.822Z" transform="translate(-338.415 -362.896)" fill="#e44327"/>
      <path id="Tracé_549" data-name="Tracé 549" d="M357.155,365.46v-.724l2.833-.042q.292,3.325.584,6.649l.325-.005q.292-3.334.585-6.666,1.417-.02,2.833-.038v.722q-.722,4.082-1.443,8.166-2.137.035-4.274.074Q357.876,369.53,357.155,365.46Z" transform="translate(-342.172 -362.834)" fill="#e44327"/>
      <path id="Tracé_550" data-name="Tracé 550" d="M369.726,373.44v-8.864q3.04-.038,6.082-.069v1.1l-.456,1.129-2.794.033v.987l2.794-.033v2.212q-1.4.015-2.794.035v1.215l3.25-.04v2.212Q372.766,373.394,369.726,373.44Z" transform="translate(-346.678 -362.789)" fill="#e44327"/>
      <path id="Tracé_551" data-name="Tracé 551" d="M380.818,364.476l2.833-.026v6.632l2.859-.027v2.208q-2.847.027-5.692.06Z" transform="translate(-350.653 -362.768)" fill="#e44327"/>
      <path id="Tracé_552" data-name="Tracé 552" d="M390.7,373.221v-8.836q3.04-.022,6.082-.038v1.1l-.456,1.124-2.794.017v.984l2.794-.017v2.206l-2.794.019v1.213l3.25-.021v2.205Q393.742,373.193,390.7,373.221Z" transform="translate(-354.196 -362.731)" fill="#e44327"/>
      <path id="Tracé_553" data-name="Tracé 553" d="M404.71,366.536v-2.219q3.185-.012,6.369-.017v1.1q-.227.561-.456,1.122l-1.365,0v6.6l-2.846.009v-6.6Z" transform="translate(-359.216 -362.714)" fill="#e44327"/>
      <path id="Tracé_554" data-name="Tracé 554" d="M416.79,373.116a1.072,1.072,0,0,1-1.143-1.095v-6.628a1.075,1.075,0,0,1,1.143-1.1q2.268,0,4.537,0a1.074,1.074,0,0,1,1.143,1.1v6.628a1.07,1.07,0,0,1-1.143,1.095Q419.059,373.114,416.79,373.116Zm1.7-6.6v4.4h1.13v-4.4Z" transform="translate(-363.136 -362.712)" fill="#e44327"/>
      <path id="Tracé_555" data-name="Tracé 555" d="M432.876,368.4q-.189-1.494-.377-2.989v-1.1l2.625.011v8.826l-3.015-.014q-.669-2.038-1.337-4.075h-.22q.18,1.488.363,2.976v1.1l-2.611-.006V364.3l3.014.006q.661,2.044,1.324,4.09Z" transform="translate(-367.672 -362.714)" fill="#e44327"/>
      <path id="Tracé_556" data-name="Tracé 556" d="M443.469,366.576v-2.22q3.185.017,6.369.043v1.1q-.227.56-.455,1.12l-1.365-.011v6.614l-2.846-.023v-6.61Z" transform="translate(-373.108 -362.734)" fill="#e44327"/>
      <path id="Tracé_557" data-name="Tracé 557" d="M458.994,364.479q.635,3.88,1.272,7.764v1.1q-1.422-.017-2.846-.034-.084-.892-.169-1.784L456,371.512q-.091.89-.182,1.779l-2.833-.028v-1.1q.635-3.862,1.272-7.729Q456.629,364.455,458.994,364.479Zm-1.95,4.833q-.13-1.315-.261-2.63l-.311,0q-.13,1.312-.26,2.625Z" transform="translate(-376.52 -362.762)" fill="#e44327"/>
      <path id="Tracé_558" data-name="Tracé 558" d="M465.545,364.538q1.418.015,2.835.033v6.645l2.856.042v2.216q-2.846-.045-5.69-.083Z" transform="translate(-381.02 -362.799)" fill="#e44327"/>
      <path id="Tracé_559" data-name="Tracé 559" d="M475.428,373.526v-8.868q3.039.04,6.08.089v1.105q-.227.561-.455,1.122-1.4-.024-2.792-.045v.989l2.792.045v2.221l-2.792-.048v1.22q1.624.026,3.246.056v2.221Q478.469,373.576,475.428,373.526Z" transform="translate(-384.562 -362.842)" fill="#e44327"/>
      <path id="Tracé_560" data-name="Tracé 560" d="M491.093,369.022q-.188-1.511-.377-3.022v-1.107l2.625.047v8.914l-3.015-.065q-.669-2.069-1.338-4.134l-.222,0q.183,1.5.364,3.007v1.106q-1.305-.028-2.611-.052v-8.891l3.016.05q.661,2.072,1.324,4.145Z" transform="translate(-388.537 -362.901)" fill="#e44327"/>
      <path id="Tracé_561" data-name="Tracé 561" d="M498.164,367.268v-2.243q3.183.061,6.366.129v1.112l-.455,1.127-1.365-.03v6.688l-2.845-.069V367.3Z" transform="translate(-392.711 -362.974)" fill="#e44327"/>
    </g>
    <g id="Groupe_234" data-name="Groupe 234" transform="translate(416.58 269.131)">
      <path id="Tracé_562" data-name="Tracé 562" d="M542.5,341.543v8.512q-4.8-.125-9.6-.235v-8.459Q537.7,341.447,542.5,341.543Z" transform="translate(-532.902 -316.012)" fill="#d8af00"/>
      <path id="Tracé_563" data-name="Tracé 563" d="M563.6,336.288q-5.333-.163-10.667-.307v-34.13q11.4.026,22.794.059v4.322q-.829,2.2-1.657,4.4-5.235-.056-10.47-.106v5.555q5.235.073,10.47.155v8.681q-5.235-.122-10.47-.234Z" transform="translate(-540.082 -301.851)" fill="#d8af00"/>
      <path id="Tracé_564" data-name="Tracé 564" d="M613.575,302.025a4.183,4.183,0,0,1,4.234,4.46v14.052a4.228,4.228,0,0,1-2.822,3.957q1.679,4.428,3.357,8.89v4.448q-5.207-.226-10.416-.436-1.436-5.568-2.872-11.1l-2.142-.06V337.2q-5.331-.206-10.663-.393v-34.85Q602.915,301.987,613.575,302.025Zm-10.66,8.816v6.589l4.236.081v-6.617Z" transform="translate(-554.173 -301.888)" fill="#d8af00"/>
    </g>
  </g>
<script xmlns=""/></svg>